<svg width="24" height="24" viewBox="0 0 24 24" fill="none" xmlns="http://www.w3.org/2000/svg">
<path d="M8.92645 19.7639L9.27178 20.1093L8.92645 19.7639C8.83358 19.8568 8.67471 19.8586 8.57924 19.7694C8.52078 19.7038 8.5 19.6357 8.5 19.5875C8.5 19.523 8.52226 19.4623 8.57355 19.4111L15.0936 12.8911C15.7688 12.2158 15.7688 11.1192 15.0936 10.4439L8.57355 3.92395C8.47882 3.82921 8.47882 3.66579 8.57355 3.57105C8.66829 3.47632 8.83171 3.47632 8.92645 3.57105L15.4464 10.0911C16.31 10.9546 16.3126 12.3687 15.4456 13.2448C15.4453 13.2451 15.4451 13.2453 15.4448 13.2456L8.92645 19.7639Z" fill="#B12FAE" stroke="#B12FAE"/>
</svg>
