<svg width="375" height="381" viewBox="0 0 375 381" fill="none" xmlns="http://www.w3.org/2000/svg">
<path d="M568.74 380.37C568.74 279.49 528.666 182.741 457.333 111.408C385.999 40.0746 289.251 7.61626e-06 188.37 0C87.4898 -7.61626e-06 -9.25885 40.0746 -80.5921 111.408C-151.925 182.741 -192 279.49 -192 380.37L188.37 380.37H568.74Z" fill="white" fill-opacity="0.02"/>
<path d="M451.589 380.37C451.589 310.56 423.857 243.61 374.494 194.247C325.131 144.884 258.18 117.152 188.37 117.152C118.56 117.152 51.6097 144.884 2.24666 194.247C-47.1164 243.61 -74.8483 310.56 -74.8483 380.37L188.37 380.37H451.589Z" fill="white" fill-opacity="0.02"/>
<path d="M344.106 380.37C344.106 359.919 340.078 339.667 332.252 320.773C324.425 301.878 312.954 284.71 298.492 270.248C284.031 255.787 266.863 244.315 247.968 236.489C229.073 228.662 208.822 224.634 188.37 224.634C167.919 224.634 147.667 228.662 128.773 236.489C109.878 244.315 92.7096 255.787 78.2482 270.248C63.7868 284.71 52.3154 301.878 44.4889 320.773C36.6624 339.667 32.6342 359.919 32.6342 380.37H188.37H344.106Z" fill="white" fill-opacity="0.02"/>
<path d="M332.021 320.868C339.802 339.656 343.823 359.786 343.856 380.12H188.37L32.8844 380.12C32.9171 359.786 36.9379 339.656 44.7199 320.868C52.5338 302.004 63.9868 284.863 78.425 270.425C92.8632 255.987 110.004 244.534 128.868 236.72C147.733 228.906 167.951 224.884 188.37 224.884C208.789 224.884 229.008 228.906 247.872 236.72C266.737 244.534 283.877 255.987 298.315 270.425C312.754 284.863 324.207 302.004 332.021 320.868ZM32.3844 380.12H-74.5981C-74.532 310.467 -46.8338 243.681 2.42343 194.423C51.7396 145.107 118.627 117.402 188.37 117.402C258.114 117.402 325.001 145.107 374.317 194.423C423.574 243.681 451.272 310.467 451.339 380.12H344.356C344.323 359.721 340.29 339.525 332.482 320.677C324.643 301.752 313.154 284.556 298.669 270.071C284.184 255.587 266.989 244.097 248.063 236.258C229.138 228.419 208.855 224.384 188.37 224.384C167.886 224.384 147.602 228.419 128.677 236.258C109.752 244.097 92.5561 255.587 78.0714 270.071C63.5868 284.556 52.097 301.752 44.2579 320.677C36.4508 339.525 32.4171 359.721 32.3844 380.12ZM-191.75 380.12C-191.684 279.396 -151.643 182.812 -80.4153 111.585C-9.12895 40.2982 87.5561 0.249992 188.37 0.25C289.184 0.250008 385.869 40.2983 457.156 111.585C528.383 182.812 568.424 279.396 568.49 380.12H451.839C451.772 310.334 424.021 243.421 374.671 194.07C325.261 144.66 258.246 116.902 188.37 116.902C118.494 116.902 51.4798 144.66 2.06989 194.07C-47.2811 243.421 -75.032 310.334 -75.0981 380.12L-191.75 380.12Z" stroke="white" stroke-opacity="0.04" stroke-width="0.5"/>
</svg>
