<svg width="810" height="600" viewBox="0 0 810 600" fill="none" xmlns="http://www.w3.org/2000/svg">
<g clip-path="url(#clip0_12_1113)">
<path d="M779.871 529.432C777.655 529.432 775.42 528.859 773.443 527.714L751.756 515.189C750.5 514.469 749.743 513.157 749.743 511.716C749.743 510.275 750.5 508.964 751.756 508.243L773.443 495.718C777.415 493.427 782.347 493.427 786.3 495.718L807.987 508.243C809.243 508.964 810 510.275 810 511.716C810 513.157 809.243 514.469 807.987 515.189L786.3 527.714C784.323 528.859 782.088 529.432 779.871 529.432ZM779.871 497.436C778.246 497.436 776.62 497.861 775.161 498.692L753.474 511.217C753.216 511.365 753.179 511.587 753.179 511.716C753.179 511.845 753.216 512.067 753.474 512.215L775.161 524.74C778.061 526.421 781.682 526.421 784.582 524.74L806.269 512.215C806.527 512.067 806.564 511.845 806.564 511.716C806.564 511.587 806.527 511.365 806.269 511.217L784.582 498.692C783.123 497.861 781.497 497.436 779.871 497.436Z" fill="#B12FAE"/>
<path d="M717.859 444.306C714.239 444.306 710.637 443.382 707.404 441.516L670.089 419.976C668.316 418.96 667.245 417.113 667.245 415.062C667.245 413.011 668.298 411.183 670.089 410.148L707.404 388.608C713.851 384.895 721.849 384.876 728.296 388.608L765.611 410.148C767.384 411.164 768.455 413.011 768.455 415.062C768.455 417.113 767.402 418.941 765.629 419.976L728.315 441.516C725.1 443.382 721.48 444.306 717.859 444.306ZM709.122 438.542C714.516 441.645 721.203 441.645 726.578 438.542L763.893 417.002C764.89 416.411 765.001 415.45 765.001 415.062C765.001 414.674 764.89 413.713 763.893 413.122L726.578 391.582C721.184 388.479 714.497 388.479 709.122 391.582L671.807 413.122C670.81 413.713 670.699 414.674 670.699 415.062C670.699 415.45 670.81 416.411 671.807 417.002L709.122 438.542Z" fill="#B12FAE"/>
<path d="M43.5079 449C40.3957 449 37.2993 448.211 34.5205 446.616L2.44534 428.204C0.920971 427.32 0 425.757 0 424.004C0 422.251 0.905092 420.688 2.44534 419.804L34.5205 401.392C40.0622 398.203 46.9378 398.203 52.4795 401.392L84.5547 419.804C86.079 420.672 87 422.251 87 424.004C87 425.757 86.0949 427.32 84.5547 428.204L52.4795 446.616C49.7166 448.211 46.6043 449 43.4921 449H43.5079ZM43.5079 401.945C40.9197 401.945 38.3156 402.608 35.9973 403.934L3.92207 422.346C3.06461 422.851 2.96934 423.672 2.96934 424.004C2.96934 424.336 3.06461 425.157 3.92207 425.662L35.9973 444.073C40.6339 446.726 46.382 446.726 51.0027 444.073L83.0779 425.662C83.9513 425.157 84.0307 424.336 84.0307 424.004C84.0307 423.672 83.9354 422.851 83.0779 422.346L51.0027 403.934C48.6844 402.608 46.0962 401.945 43.4921 401.945H43.5079Z" fill="#B12FAE"/>
<path opacity="0.6" d="M428.451 572.179L161.653 418.129C157.755 415.875 158.254 411.959 162.743 409.372L333.983 310.502C338.471 307.916 345.269 307.62 349.148 309.874L615.947 463.924C619.844 466.178 619.345 470.095 614.857 472.681L443.617 571.551C439.128 574.137 432.33 574.433 428.451 572.179Z" fill="#2E3A72" fill-opacity="0.2"/>
<path d="M434.547 600C431.425 600 428.432 599.353 426.16 598.023L121.66 422.211C119.166 420.77 117.799 418.701 117.799 416.374C117.799 413.695 119.665 411.09 122.897 409.224L330.454 287.613C336.144 284.325 344.512 284.011 349.499 286.893L654 462.705C656.494 464.146 657.861 466.215 657.861 468.543C657.861 471.221 655.995 473.808 652.762 475.692L445.205 597.303C442.12 599.076 438.241 600 434.565 600H434.547ZM341.15 288.389C338.028 288.389 334.721 289.147 332.191 290.606L124.634 412.217C122.509 413.455 121.253 415.007 121.253 416.392C121.253 417.778 122.417 418.683 123.396 419.237L427.897 595.049C431.776 597.303 438.925 596.97 443.487 594.329L651.044 472.718C653.169 471.48 654.425 469.928 654.425 468.543C654.425 467.157 653.261 466.252 652.282 465.698L347.781 289.886C346.045 288.888 343.662 288.389 341.15 288.389Z" fill="#B12FAE"/>
<path d="M686.807 205.665L421.062 52.243C419.233 51.19 417.33 50.9683 415.631 51.4671C415.631 51.4671 415.631 51.4671 415.613 51.4671L410.699 53.1851L412.435 53.5915C411.733 54.4228 411.179 55.4389 410.81 56.6397L350.719 251.775C349.222 256.615 351.402 262.49 355.595 264.91L621.341 418.35C621.987 418.72 622.634 418.978 623.299 419.145L622.634 420.586L627.326 418.941C629.247 418.166 630.835 416.448 631.593 413.972L691.684 218.837C693.18 213.997 691 208.122 686.807 205.702V205.665Z" fill="#BC74E1"/>
<path d="M611.809 425.629L611.901 425.74L349.407 274.183C345.546 271.948 338.804 272.225 334.334 274.811L164.738 372.739L159.085 370.578L160.674 378.521C160.877 379.704 161.727 380.831 163.223 381.699L428.137 534.659C431.998 536.895 438.74 536.617 443.21 534.031L613.231 435.863C615.337 434.644 616.538 433.148 616.833 431.67L618.459 423.966L611.79 425.666L611.809 425.629Z" fill="#BC74E1"/>
<path d="M428.451 527.639L161.653 373.589C157.755 371.335 158.254 367.419 162.743 364.833L333.983 265.963C338.471 263.376 345.269 263.081 349.148 265.334L615.947 419.385C619.844 421.639 619.345 425.555 614.857 428.141L443.617 527.011C439.128 529.598 432.33 529.893 428.451 527.639Z" fill="url(#paint0_linear_12_1113)"/>
<path d="M614.838 426.072L443.598 524.942C439.109 527.529 432.312 527.824 428.432 525.57L161.634 371.52C160.304 370.763 159.528 369.784 159.214 368.749C158.697 370.541 159.454 372.333 161.634 373.589L428.432 527.639C432.33 529.893 439.109 529.598 443.598 527.011L614.838 428.141C617.794 426.423 618.976 424.151 618.348 422.156C617.942 423.541 616.796 424.945 614.838 426.072Z" fill="white"/>
<g opacity="0.4">
<path d="M288.91 348.594L279.895 343.385C279.175 342.96 279.267 342.24 280.098 341.759L290.738 335.626C291.57 335.146 292.844 335.09 293.565 335.515L302.579 340.725C303.3 341.15 303.207 341.87 302.376 342.35L291.736 348.484C290.905 348.964 289.63 349.019 288.91 348.594Z" fill="#131750"/>
<path d="M302.819 356.63L293.805 351.421C293.084 350.996 293.177 350.276 294.008 349.795L304.648 343.662C305.479 343.182 306.754 343.126 307.475 343.551L316.489 348.761C317.21 349.186 317.117 349.906 316.286 350.386L305.646 356.52C304.814 357 303.54 357.055 302.819 356.63Z" fill="#131750"/>
<path d="M316.729 364.666L307.715 359.457C306.994 359.032 307.087 358.312 307.918 357.831L318.558 351.698C319.389 351.218 320.664 351.162 321.384 351.587L330.399 356.797C331.119 357.222 331.027 357.942 330.196 358.422L319.556 364.556C318.724 365.036 317.45 365.091 316.729 364.666Z" fill="#131750"/>
<path d="M335.959 358.034L326.945 352.825C326.224 352.4 326.316 351.68 327.148 351.199L336.07 346.045C336.901 345.565 338.176 345.509 338.896 345.934L347.911 351.144C348.631 351.569 348.539 352.289 347.708 352.769L338.785 357.924C337.954 358.404 336.68 358.459 335.959 358.034Z" fill="#131750"/>
<path d="M349.869 366.07L340.854 360.861C340.134 360.436 340.226 359.716 341.058 359.235L349.98 354.081C350.811 353.601 352.086 353.545 352.806 353.97L361.821 359.18C362.541 359.605 362.449 360.325 361.617 360.805L352.695 365.96C351.864 366.44 350.589 366.495 349.869 366.07Z" fill="#131750"/>
<path d="M363.779 374.088L354.764 368.878C354.044 368.453 354.136 367.733 354.967 367.253L363.89 362.099C364.721 361.618 365.995 361.563 366.716 361.988L375.73 367.197C376.451 367.622 376.358 368.343 375.527 368.823L366.605 373.977C365.774 374.457 364.499 374.513 363.779 374.088Z" fill="#131750"/>
<path d="M377.688 382.124L368.674 376.914C367.953 376.489 368.046 375.769 368.877 375.289L377.799 370.135C378.63 369.654 379.905 369.599 380.625 370.024L389.64 375.233C390.36 375.658 390.268 376.379 389.437 376.859L380.515 382.013C379.683 382.493 378.409 382.549 377.688 382.124Z" fill="#131750"/>
<path d="M391.598 390.16L382.584 384.95C381.863 384.525 381.956 383.805 382.787 383.325L391.709 378.171C392.54 377.69 393.815 377.635 394.535 378.06L403.55 383.269C404.27 383.694 404.178 384.415 403.347 384.895L394.424 390.049C393.593 390.529 392.319 390.585 391.598 390.16Z" fill="#131750"/>
<path d="M405.508 398.196L396.493 392.986C395.773 392.561 395.865 391.841 396.697 391.361L405.619 386.206C406.45 385.726 407.725 385.671 408.445 386.096L417.46 391.305C418.18 391.73 418.088 392.45 417.256 392.931L408.334 398.085C407.503 398.565 406.228 398.621 405.508 398.196Z" fill="#131750"/>
<path d="M419.418 406.213L410.403 401.004C409.683 400.579 409.775 399.858 410.606 399.378L419.529 394.224C420.36 393.744 421.634 393.688 422.355 394.113L431.369 399.323C432.09 399.747 431.998 400.468 431.166 400.948L422.244 406.102C421.413 406.583 420.138 406.638 419.418 406.213Z" fill="#131750"/>
<path d="M433.328 414.249L424.313 409.04C423.593 408.615 423.685 407.894 424.516 407.414L433.438 402.26C434.27 401.78 435.544 401.724 436.265 402.149L445.279 407.359C446 407.783 445.907 408.504 445.076 408.984L436.154 414.138C435.323 414.619 434.048 414.674 433.328 414.249Z" fill="#131750"/>
<path d="M447.237 422.285L438.223 417.076C437.502 416.651 437.595 415.93 438.426 415.45L447.348 410.296C448.179 409.816 449.454 409.76 450.174 410.185L459.189 415.395C459.909 415.819 459.817 416.54 458.986 417.02L450.064 422.174C449.232 422.655 447.958 422.71 447.237 422.285Z" fill="#131750"/>
<path d="M461.147 430.321L452.133 425.112C451.412 424.687 451.504 423.966 452.336 423.486L461.258 418.332C462.089 417.851 463.364 417.796 464.084 418.221L473.099 423.431C473.819 423.855 473.727 424.576 472.896 425.056L463.973 430.21C463.142 430.691 461.868 430.746 461.147 430.321Z" fill="#131750"/>
<path d="M356.464 354.229L347.449 349.019C346.729 348.594 346.821 347.874 347.652 347.394L356.574 342.24C357.406 341.759 358.68 341.704 359.401 342.129L368.415 347.338C369.136 347.763 369.043 348.484 368.212 348.964L359.29 354.118C358.459 354.598 357.184 354.654 356.464 354.229Z" fill="#131750"/>
<path d="M342.332 346.082L333.317 340.873C332.597 340.448 332.689 339.727 333.521 339.247L342.443 334.093C343.274 333.612 344.549 333.557 345.269 333.982L354.284 339.191C355.004 339.616 354.912 340.337 354.081 340.817L345.158 345.971C344.327 346.452 343.052 346.507 342.332 346.082Z" fill="#131750"/>
<path d="M328.201 337.917L308.805 326.722C308.084 326.297 308.176 325.576 309.008 325.096L317.93 319.942C318.761 319.462 320.036 319.406 320.756 319.831L340.152 331.026C340.873 331.451 340.78 332.172 339.949 332.652L331.027 337.806C330.196 338.286 328.921 338.342 328.201 337.917Z" fill="#131750"/>
<path d="M338.083 327.978L322.345 318.889C321.624 318.464 321.717 317.744 322.548 317.263L331.47 312.109C332.301 311.629 333.576 311.574 334.297 311.998L350.035 321.087C350.756 321.512 350.663 322.233 349.832 322.713L340.91 327.867C340.078 328.348 338.804 328.403 338.083 327.978Z" fill="#131750"/>
<path d="M370.373 362.265L361.359 357.055C360.638 356.63 360.731 355.91 361.562 355.43L370.484 350.276C371.315 349.795 372.59 349.74 373.31 350.165L382.325 355.374C383.045 355.799 382.953 356.52 382.122 357L373.2 362.154C372.368 362.634 371.094 362.69 370.373 362.265Z" fill="#131750"/>
<path d="M384.283 370.301L375.269 365.091C374.548 364.666 374.64 363.946 375.472 363.466L384.394 358.312C385.225 357.831 386.5 357.776 387.22 358.201L396.235 363.41C396.955 363.835 396.863 364.556 396.032 365.036L387.109 370.19C386.278 370.67 385.004 370.726 384.283 370.301Z" fill="#131750"/>
<path d="M398.193 378.318L389.178 373.109C388.458 372.684 388.55 371.963 389.382 371.483L398.304 366.329C399.135 365.849 400.41 365.793 401.13 366.218L410.145 371.428C410.865 371.853 410.773 372.573 409.941 373.053L401.019 378.207C400.188 378.688 398.913 378.743 398.193 378.318Z" fill="#131750"/>
<path d="M412.103 386.354L403.088 381.145C402.368 380.72 402.46 379.999 403.291 379.519L412.213 374.365C413.045 373.885 414.319 373.829 415.04 374.254L424.054 379.464C424.775 379.889 424.682 380.609 423.851 381.089L414.929 386.243C414.098 386.724 412.823 386.779 412.103 386.354Z" fill="#131750"/>
<path d="M426.012 394.39L416.998 389.181C416.277 388.756 416.37 388.035 417.201 387.555L426.123 382.401C426.955 381.921 428.229 381.865 428.95 382.29L437.964 387.5C438.685 387.924 438.592 388.645 437.761 389.125L428.839 394.279C428.007 394.76 426.733 394.815 426.012 394.39Z" fill="#131750"/>
<path d="M439.922 402.426L430.908 397.217C430.187 396.792 430.28 396.071 431.111 395.591L440.033 390.437C440.864 389.957 442.139 389.901 442.859 390.326L451.874 395.536C452.594 395.96 452.502 396.681 451.671 397.161L442.749 402.315C441.917 402.796 440.643 402.851 439.922 402.426Z" fill="#131750"/>
<path d="M453.832 410.444L444.817 405.234C444.097 404.809 444.189 404.089 445.021 403.608L453.943 398.454C454.774 397.974 456.049 397.919 456.769 398.344L465.784 403.553C466.504 403.978 466.412 404.698 465.581 405.179L456.658 410.333C455.827 410.813 454.552 410.869 453.832 410.444Z" fill="#131750"/>
<path d="M467.742 418.48L458.727 413.27C458.007 412.845 458.099 412.125 458.93 411.644L467.853 406.49C468.684 406.01 469.959 405.955 470.679 406.379L479.694 411.589C480.414 412.014 480.322 412.734 479.49 413.215L470.568 418.369C469.737 418.849 468.462 418.905 467.742 418.48Z" fill="#131750"/>
<path d="M481.652 426.516L472.637 421.306C471.917 420.881 472.009 420.161 472.84 419.68L481.762 414.526C482.594 414.046 483.868 413.991 484.589 414.415L493.603 419.625C494.324 420.05 494.231 420.77 493.4 421.251L484.478 426.405C483.647 426.885 482.372 426.94 481.652 426.516Z" fill="#131750"/>
<path d="M506.386 440.796L486.732 429.453C486.011 429.028 486.103 428.308 486.935 427.827L495.857 422.673C496.688 422.193 497.963 422.137 498.683 422.562L518.338 433.905C519.058 434.33 518.966 435.05 518.135 435.531L509.213 440.685C508.381 441.165 507.107 441.22 506.386 440.796Z" fill="#131750"/>
<path d="M533.467 425.149L516.879 415.579C516.158 415.154 516.251 414.434 517.082 413.954L526.004 408.8C526.835 408.319 528.11 408.264 528.83 408.689L545.419 418.258C546.139 418.683 546.047 419.403 545.215 419.884L536.293 425.038C535.462 425.518 534.187 425.573 533.467 425.149Z" fill="#131750"/>
<path d="M394.72 360.695L385.706 355.485C384.985 355.06 385.077 354.34 385.909 353.859L394.831 348.705C395.662 348.225 396.937 348.17 397.657 348.594L406.672 353.804C407.392 354.229 407.3 354.949 406.469 355.43L397.546 360.584C396.715 361.064 395.441 361.119 394.72 360.695Z" fill="#131750"/>
<path d="M380.478 352.455L371.463 347.246C370.743 346.821 370.835 346.101 371.666 345.62L380.589 340.466C381.42 339.986 382.694 339.93 383.415 340.355L392.429 345.565C393.15 345.99 393.058 346.71 392.226 347.19L383.304 352.345C382.473 352.825 381.198 352.88 380.478 352.455Z" fill="#131750"/>
<path d="M366.217 344.235L357.202 339.025C356.482 338.6 356.574 337.88 357.406 337.4L366.328 332.245C367.159 331.765 368.434 331.71 369.154 332.135L378.169 337.344C378.889 337.769 378.797 338.489 377.966 338.97L369.043 344.124C368.212 344.604 366.937 344.66 366.217 344.235Z" fill="#131750"/>
<path d="M351.956 335.996L342.942 330.786C342.221 330.361 342.314 329.641 343.145 329.16L352.067 324.006C352.898 323.526 354.173 323.471 354.893 323.895L363.908 329.105C364.628 329.53 364.536 330.25 363.705 330.731L354.782 335.885C353.951 336.365 352.677 336.42 351.956 335.996Z" fill="#131750"/>
<path d="M408.63 368.731L399.615 363.521C398.895 363.096 398.987 362.376 399.819 361.895L408.741 356.741C409.572 356.261 410.847 356.206 411.567 356.63L420.582 361.84C421.302 362.265 421.21 362.985 420.378 363.466L411.456 368.62C410.625 369.1 409.35 369.155 408.63 368.731Z" fill="#131750"/>
<path d="M422.54 376.748L413.525 371.539C412.805 371.114 412.897 370.393 413.728 369.913L422.651 364.759C423.482 364.278 424.756 364.223 425.477 364.648L434.491 369.857C435.212 370.282 435.119 371.003 434.288 371.483L425.366 376.637C424.535 377.118 423.26 377.173 422.54 376.748Z" fill="#131750"/>
<path d="M436.468 384.784L427.453 379.574C426.733 379.15 426.825 378.429 427.657 377.949L436.579 372.795C437.41 372.314 438.685 372.259 439.405 372.684L448.42 377.893C449.14 378.318 449.048 379.039 448.216 379.519L439.294 384.673C438.463 385.153 437.188 385.209 436.468 384.784Z" fill="#131750"/>
<path d="M450.378 392.82L441.363 387.61C440.643 387.186 440.735 386.465 441.566 385.985L450.488 380.831C451.32 380.35 452.594 380.295 453.315 380.72L462.329 385.929C463.05 386.354 462.957 387.075 462.126 387.555L453.204 392.709C452.373 393.189 451.098 393.245 450.378 392.82Z" fill="#131750"/>
<path d="M464.287 400.856L455.273 395.646C454.552 395.221 454.645 394.501 455.476 394.021L464.398 388.867C465.23 388.386 466.504 388.331 467.225 388.756L476.239 393.965C476.96 394.39 476.867 395.111 476.036 395.591L467.114 400.745C466.282 401.225 465.008 401.281 464.287 400.856Z" fill="#131750"/>
<path d="M478.197 408.873L469.183 403.664C468.462 403.239 468.555 402.519 469.386 402.038L478.308 396.884C479.139 396.404 480.414 396.348 481.134 396.773L490.149 401.983C490.869 402.408 490.777 403.128 489.946 403.608L481.024 408.763C480.192 409.243 478.918 409.298 478.197 408.873Z" fill="#131750"/>
<path d="M492.107 416.909L483.092 411.7C482.372 411.275 482.464 410.554 483.296 410.074L492.218 404.92C493.049 404.44 494.324 404.384 495.044 404.809L504.059 410.019C504.779 410.444 504.687 411.164 503.855 411.644L494.933 416.798C494.102 417.279 492.827 417.334 492.107 416.909Z" fill="#131750"/>
<path d="M506.017 424.945L497.002 419.736C496.282 419.311 496.374 418.59 497.205 418.11L506.128 412.956C506.959 412.476 508.233 412.42 508.954 412.845L517.968 418.055C518.689 418.48 518.597 419.2 517.765 419.68L508.843 424.834C508.012 425.315 506.737 425.37 506.017 424.945Z" fill="#131750"/>
<path d="M519.927 432.981L510.912 427.772C510.192 427.347 510.284 426.626 511.115 426.146L520.037 420.992C520.869 420.512 522.143 420.456 522.864 420.881L531.878 426.091C532.599 426.516 532.506 427.236 531.675 427.716L522.753 432.87C521.922 433.351 520.647 433.406 519.927 432.981Z" fill="#131750"/>
<path d="M387.405 340.817L378.39 335.608C377.67 335.183 377.762 334.462 378.594 333.982L387.516 328.828C388.347 328.348 389.622 328.292 390.342 328.717L399.357 333.927C400.077 334.351 399.985 335.072 399.153 335.552L390.231 340.706C389.4 341.187 388.125 341.242 387.405 340.817Z" fill="#131750"/>
<path d="M373.569 332.837L364.555 327.627C363.834 327.202 363.926 326.482 364.758 326.001L373.68 320.847C374.511 320.367 375.786 320.312 376.506 320.736L385.521 325.946C386.241 326.371 386.149 327.091 385.318 327.572L376.395 332.726C375.564 333.206 374.29 333.261 373.569 332.837Z" fill="#131750"/>
<path d="M359.715 324.838L350.7 319.628C349.98 319.203 350.072 318.483 350.903 318.002L359.826 312.848C360.657 312.368 361.931 312.313 362.652 312.737L371.666 317.947C372.387 318.372 372.294 319.092 371.463 319.573L362.541 324.727C361.71 325.207 360.435 325.262 359.715 324.838Z" fill="#131750"/>
<path d="M345.879 316.857L336.864 311.648C336.144 311.223 336.236 310.502 337.067 310.022L345.99 304.868C346.821 304.387 348.095 304.332 348.816 304.757L357.83 309.966C358.551 310.391 358.459 311.112 357.627 311.592L348.705 316.746C347.874 317.227 346.599 317.282 345.879 316.857Z" fill="#131750"/>
<path d="M360.121 308.636L351.107 303.427C350.386 303.002 350.478 302.281 351.31 301.801L354.265 300.102C355.097 299.621 356.371 299.566 357.092 299.991L366.106 305.2C366.827 305.625 366.734 306.346 365.903 306.826L362.947 308.525C362.116 309.006 360.842 309.061 360.121 308.636Z" fill="#131750"/>
<path d="M378.169 319.055L369.154 313.846C368.434 313.421 368.526 312.7 369.357 312.22L372.313 310.521C373.144 310.04 374.419 309.985 375.139 310.41L384.154 315.619C384.874 316.044 384.782 316.765 383.951 317.245L380.995 318.944C380.164 319.425 378.889 319.48 378.169 319.055Z" fill="#131750"/>
<path d="M391.968 327.017L382.953 321.808C382.233 321.383 382.325 320.663 383.156 320.182L386.112 318.483C386.943 318.002 388.218 317.947 388.938 318.372L397.953 323.581C398.673 324.006 398.581 324.727 397.75 325.207L394.794 326.907C393.963 327.387 392.688 327.442 391.968 327.017Z" fill="#131750"/>
<path d="M405.748 334.98L396.734 329.77C396.013 329.345 396.106 328.625 396.937 328.144L399.892 326.445C400.724 325.964 401.998 325.909 402.719 326.334L411.733 331.543C412.454 331.968 412.361 332.689 411.53 333.169L408.574 334.869C407.743 335.349 406.469 335.404 405.748 334.98Z" fill="#131750"/>
<path d="M419.529 342.942L410.514 337.732C409.794 337.307 409.886 336.587 410.717 336.106L413.673 334.407C414.504 333.927 415.779 333.871 416.499 334.296L425.514 339.505C426.234 339.93 426.142 340.651 425.31 341.131L422.355 342.831C421.524 343.311 420.249 343.366 419.529 342.942Z" fill="#131750"/>
<path d="M496.485 387.37L487.47 382.161C486.75 381.736 486.842 381.015 487.674 380.535L490.629 378.836C491.46 378.355 492.735 378.3 493.455 378.725L502.47 383.934C503.191 384.359 503.098 385.08 502.267 385.56L499.311 387.259C498.48 387.74 497.205 387.795 496.485 387.37Z" fill="#131750"/>
<path d="M510.266 395.332L501.251 390.123C500.531 389.698 500.623 388.977 501.454 388.497L504.41 386.798C505.241 386.317 506.516 386.262 507.236 386.687L516.251 391.896C516.971 392.321 516.879 393.042 516.047 393.522L513.092 395.222C512.261 395.702 510.986 395.757 510.266 395.332Z" fill="#131750"/>
<path d="M524.046 403.276L515.031 398.066C514.311 397.642 514.403 396.921 515.235 396.441L518.19 394.741C519.021 394.261 520.296 394.205 521.016 394.63L530.031 399.84C530.751 400.265 530.659 400.985 529.828 401.466L526.872 403.165C526.041 403.645 524.766 403.701 524.046 403.276Z" fill="#131750"/>
<path d="M537.826 411.238L528.812 406.028C528.091 405.604 528.184 404.883 529.015 404.403L531.971 402.703C532.802 402.223 534.077 402.168 534.797 402.592L543.812 407.802C544.532 408.227 544.44 408.947 543.608 409.428L540.653 411.127C539.821 411.607 538.547 411.663 537.826 411.238Z" fill="#131750"/>
<path d="M401.315 348.853L392.3 343.644C391.58 343.219 391.672 342.498 392.503 342.018L401.426 336.864C402.257 336.383 403.531 336.328 404.252 336.753L413.266 341.962C413.987 342.387 413.894 343.108 413.063 343.588L404.141 348.742C403.31 349.223 402.035 349.278 401.315 348.853Z" fill="#131750"/>
<path d="M415.225 356.889L406.21 351.68C405.489 351.255 405.582 350.534 406.413 350.054L415.335 344.9C416.167 344.419 417.441 344.364 418.162 344.789L427.176 349.998C427.897 350.423 427.804 351.144 426.973 351.624L418.051 356.778C417.22 357.259 415.945 357.314 415.225 356.889Z" fill="#131750"/>
<path d="M429.134 364.925L420.12 359.716C419.399 359.291 419.492 358.57 420.323 358.09L429.245 352.936C430.076 352.455 431.351 352.4 432.071 352.825L441.086 358.034C441.806 358.459 441.714 359.18 440.883 359.66L431.961 364.814C431.129 365.294 429.855 365.35 429.134 364.925Z" fill="#131750"/>
<path d="M443.044 372.943L434.029 367.733C433.309 367.308 433.401 366.588 434.233 366.107L443.155 360.953C443.986 360.473 445.261 360.417 445.981 360.842L454.996 366.052C455.716 366.477 455.624 367.197 454.793 367.678L445.87 372.832C445.039 373.312 443.764 373.367 443.044 372.943Z" fill="#131750"/>
<path d="M456.954 380.978L447.939 375.769C447.219 375.344 447.311 374.624 448.142 374.143L457.065 368.989C457.896 368.509 459.171 368.453 459.891 368.878L468.906 374.088C469.626 374.513 469.534 375.233 468.702 375.714L459.78 380.868C458.949 381.348 457.674 381.403 456.954 380.978Z" fill="#131750"/>
<path d="M470.864 389.014L461.849 383.805C461.129 383.38 461.221 382.66 462.052 382.179L470.974 377.025C471.806 376.545 473.08 376.489 473.801 376.914L482.815 382.124C483.536 382.549 483.443 383.269 482.612 383.749L473.69 388.904C472.859 389.384 471.584 389.439 470.864 389.014Z" fill="#131750"/>
<path d="M484.773 397.05L475.759 391.841C475.038 391.416 475.131 390.696 475.962 390.215L484.884 385.061C485.715 384.581 486.99 384.525 487.71 384.95L496.725 390.16C497.445 390.585 497.353 391.305 496.522 391.785L487.6 396.94C486.768 397.42 485.494 397.475 484.773 397.05Z" fill="#131750"/>
<path d="M498.683 405.068L489.669 399.858C488.948 399.433 489.041 398.713 489.872 398.233L498.794 393.079C499.625 392.598 500.9 392.543 501.62 392.968L510.635 398.177C511.355 398.602 511.263 399.323 510.432 399.803L501.51 404.957C500.678 405.437 499.404 405.493 498.683 405.068Z" fill="#131750"/>
<path d="M512.593 413.104L503.578 407.894C502.858 407.469 502.95 406.749 503.782 406.269L512.704 401.115C513.535 400.634 514.81 400.579 515.53 401.004L524.545 406.213C525.265 406.638 525.173 407.359 524.341 407.839L515.419 412.993C514.588 413.473 513.313 413.529 512.593 413.104Z" fill="#131750"/>
<path d="M321.791 349.851L295.264 334.536C294.544 334.111 294.636 333.391 295.467 332.91L304.39 327.756C305.221 327.276 306.495 327.221 307.216 327.646L333.742 342.96C334.463 343.385 334.37 344.105 333.539 344.586L324.617 349.74C323.786 350.22 322.511 350.276 321.791 349.851Z" fill="#131750"/>
<path d="M492.68 448.517L466.153 433.203C465.433 432.778 465.525 432.058 466.356 431.577L475.279 426.423C476.11 425.943 477.384 425.888 478.105 426.312L504.631 441.627C505.352 442.052 505.259 442.772 504.428 443.253L495.506 448.407C494.675 448.887 493.4 448.942 492.68 448.517Z" fill="#131750"/>
<path d="M437.041 434.145L428.026 428.936C427.306 428.511 427.398 427.79 428.229 427.31L438.869 421.177C439.701 420.696 440.975 420.641 441.696 421.066L450.71 426.275C451.431 426.7 451.338 427.421 450.507 427.901L439.867 434.034C439.036 434.515 437.761 434.57 437.041 434.145Z" fill="#131750"/>
<path d="M336.033 375.806L321.624 367.493C320.904 367.068 320.996 366.347 321.828 365.867L332.468 359.734C333.299 359.254 334.574 359.198 335.294 359.623L349.703 367.936C350.423 368.361 350.331 369.082 349.499 369.562L338.859 375.695C338.028 376.175 336.753 376.231 336.033 375.806Z" fill="#131750"/>
<path d="M423.648 426.405L409.239 418.092C408.519 417.667 408.611 416.946 409.443 416.466L420.083 410.333C420.914 409.852 422.189 409.797 422.909 410.222L437.318 418.535C438.038 418.96 437.946 419.68 437.114 420.161L426.474 426.294C425.643 426.774 424.368 426.83 423.648 426.405Z" fill="#131750"/>
<path d="M356.094 387.407L341.686 379.094C340.965 378.669 341.057 377.949 341.889 377.468L352.529 371.335C353.36 370.855 354.635 370.8 355.355 371.224L369.764 379.538C370.484 379.962 370.392 380.683 369.56 381.163L358.92 387.296C358.089 387.777 356.814 387.832 356.094 387.407Z" fill="#131750"/>
<path d="M355.448 371.261L418.069 407.432C418.845 407.876 418.845 408.615 418.069 409.058L407.226 415.321C406.45 415.764 405.194 415.764 404.418 415.321L341.796 379.168L355.448 371.28V371.261Z" fill="#131750"/>
<path d="M475.925 448.702L485.956 454.503C486.547 454.854 486.473 455.445 485.789 455.833L481.448 458.345C480.765 458.733 479.73 458.789 479.139 458.438L469.109 452.637C468.518 452.286 468.591 451.695 469.275 451.307L473.616 448.795C474.299 448.407 475.334 448.351 475.925 448.702Z" fill="#131750"/>
<path d="M461.905 440.611L471.935 446.411C472.526 446.762 472.452 447.354 471.769 447.742L467.428 450.254C466.744 450.642 465.71 450.697 465.119 450.346L455.088 444.546C454.497 444.195 454.571 443.604 455.254 443.216L459.595 440.703C460.279 440.315 461.313 440.26 461.905 440.611Z" fill="#131750"/>
<path d="M447.995 432.575L458.025 438.376C458.616 438.727 458.543 439.318 457.859 439.706L453.518 442.218C452.835 442.606 451.8 442.661 451.209 442.31L441.178 436.51C440.587 436.159 440.661 435.568 441.345 435.18L445.686 432.667C446.369 432.279 447.404 432.224 447.995 432.575Z" fill="#131750"/>
<path d="M469.589 436.159L479.62 441.959C480.211 442.31 480.137 442.902 479.453 443.29L475.112 445.802C474.429 446.19 473.394 446.245 472.803 445.894L462.773 440.094C462.182 439.743 462.255 439.151 462.939 438.763L467.28 436.251C467.963 435.863 468.998 435.808 469.589 436.159Z" fill="#131750"/>
</g>
<path d="M616.796 419.92L351.051 266.48C346.876 264.06 344.697 258.185 346.174 253.345L406.265 58.2099C407.762 53.3699 412.343 51.4117 416.536 53.8132L682.281 207.254C686.456 209.674 688.636 215.548 687.158 220.389L627.067 415.524C625.571 420.364 620.99 422.322 616.796 419.92Z" fill="url(#paint1_linear_12_1113)"/>
<path d="M614.284 413.085L356.519 264.134C352.529 261.825 350.441 256.19 351.864 251.572L409.313 65.0266C410.736 60.3898 415.132 58.5055 419.141 60.8147L676.906 209.766C680.896 212.076 682.983 217.71 681.561 222.328L624.111 408.873C622.689 413.51 618.293 415.395 614.284 413.085Z" fill="url(#paint2_linear_12_1113)"/>
<path d="M614.284 413.085L356.519 264.134C352.529 261.825 350.441 256.19 351.864 251.572L409.313 65.0266C410.736 60.3898 415.132 58.5055 419.141 60.8147L676.906 209.766C680.896 212.076 682.983 217.71 681.561 222.328L624.111 408.873C622.689 413.51 618.293 415.395 614.284 413.085Z" fill="#131750"/>
<g style="mix-blend-mode:multiply" opacity="0.4">
<path d="M614.284 413.085L356.519 264.134C352.529 261.825 350.441 256.19 351.864 251.572L409.313 65.0266C410.736 60.3898 415.132 58.5055 419.141 60.8147L676.906 209.766C680.896 212.075 682.983 217.71 681.561 222.328L624.111 408.873C622.689 413.51 618.293 415.395 614.284 413.085Z" stroke="#402083" stroke-width="4" stroke-miterlimit="10"/>
</g>
<path opacity="0.5" d="M600.448 356.076L425.957 255.322C423.205 253.733 421.782 249.872 422.761 246.695L462.218 118.563C463.198 115.385 466.209 114.092 468.961 115.681L643.452 216.435C646.204 218.024 647.627 221.885 646.648 225.062L607.191 353.194C606.212 356.372 603.2 357.665 600.448 356.076Z" fill="#131750"/>
<path d="M576.877 359.161L402.386 258.407C399.634 256.818 398.211 252.957 399.19 249.78L438.648 121.648C439.627 118.47 442.638 117.177 445.39 118.766L619.881 219.52C622.634 221.109 624.056 224.97 623.077 228.147L583.62 356.279C582.641 359.457 579.63 360.75 576.877 359.161Z" fill="url(#paint3_radial_12_1113)"/>
<g opacity="0.5">
<path d="M576.877 359.161L402.386 258.407C399.634 256.818 398.211 252.957 399.19 249.78L438.648 121.648C439.627 118.47 442.638 117.177 445.39 118.766L619.881 219.52C622.634 221.109 624.056 224.97 623.077 228.147L583.62 356.279C582.641 359.457 579.63 360.75 576.877 359.161Z" fill="#131750"/>
</g>
<path d="M619.863 219.539L445.372 118.784C443.654 117.787 441.825 117.935 440.458 118.951C441.289 118.932 442.139 119.117 442.97 119.597L617.461 220.352C620.214 221.94 621.636 225.801 620.657 228.979L581.2 357.111C580.83 358.293 580.184 359.217 579.371 359.826C581.237 359.771 582.918 358.496 583.583 356.298L623.04 228.166C624.019 224.988 622.578 221.128 619.844 219.539H619.863Z" fill="white"/>
<g style="mix-blend-mode:multiply" opacity="0.4">
<path d="M356.796 463.795C354.395 463.795 352.086 463.296 350.331 462.28L280.412 421.916C278.565 420.844 277.549 419.311 277.549 417.611C277.549 415.635 278.953 413.677 281.41 412.273L317.394 391.49C321.791 388.959 328.238 388.7 332.098 390.917L401.998 431.282C403.845 432.353 404.861 433.887 404.88 435.586C404.88 437.563 403.476 439.521 401.019 440.925L365.035 461.708C362.652 463.093 359.659 463.795 356.796 463.795ZM325.651 391.453C323.121 391.453 320.442 392.063 318.392 393.245L282.407 414.028C280.597 415.081 279.563 416.392 279.563 417.63C279.563 418.868 280.579 419.699 281.428 420.179L351.347 460.544C354.524 462.373 360.324 462.114 364.019 459.971L400.003 439.188C401.813 438.135 402.848 436.842 402.848 435.586C402.848 434.33 401.832 433.517 400.982 433.037L331.082 392.672C329.66 391.859 327.72 391.453 325.651 391.453Z" stroke="#402083" stroke-width="4" stroke-miterlimit="10"/>
</g>
<path d="M487.877 186.009L477.089 179.784C476.091 179.211 475.556 177.826 475.888 176.68C476.221 175.553 477.311 175.092 478.308 175.664L489.096 181.89C490.093 182.463 490.629 183.848 490.297 184.993C489.964 186.12 488.874 186.582 487.877 186.009Z" fill="white"/>
<path d="M513.572 200.844L497.667 191.662C496.67 191.09 496.134 189.704 496.466 188.559C496.799 187.432 497.889 186.97 498.886 187.543L514.791 196.724C515.789 197.297 516.324 198.682 515.992 199.828C515.659 200.954 514.569 201.416 513.572 200.844Z" fill="white"/>
<path d="M466.116 234.04L455.328 227.815C454.331 227.242 453.795 225.857 454.128 224.711C454.46 223.584 455.55 223.123 456.548 223.695L467.335 229.921C468.333 230.494 468.869 231.879 468.536 233.024C468.204 234.151 467.114 234.613 466.116 234.04Z" fill="white"/>
<path d="M489.022 247.267L473.117 238.086C472.12 237.513 471.584 236.128 471.917 234.983C472.249 233.856 473.339 233.394 474.336 233.967L490.241 243.148C491.239 243.721 491.775 245.106 491.442 246.251C491.109 247.378 490.02 247.84 489.022 247.267Z" fill="white"/>
<path d="M455.568 177.456L448.826 173.558C447.828 172.986 447.293 171.6 447.625 170.455C447.958 169.328 449.048 168.866 450.045 169.439L456.788 173.337C457.785 173.909 458.321 175.295 457.988 176.44C457.656 177.567 456.566 178.029 455.568 177.456Z" fill="white"/>
<path d="M475.833 199.255L455.236 187.358C454.238 186.785 453.703 185.4 454.035 184.254C454.368 183.128 455.458 182.666 456.455 183.238L477.052 195.135C478.049 195.708 478.585 197.094 478.253 198.239C477.92 199.366 476.83 199.828 475.833 199.255Z" fill="white"/>
<path d="M456.843 208.492L450.101 204.594C449.103 204.021 448.567 202.636 448.9 201.49C449.232 200.363 450.322 199.901 451.32 200.474L458.062 204.372C459.06 204.945 459.595 206.33 459.263 207.476C458.93 208.602 457.841 209.064 456.843 208.492Z" fill="white"/>
<path d="M491.516 268.9L473.524 258.499C472.526 257.927 471.99 256.541 472.323 255.396C472.655 254.269 473.745 253.807 474.743 254.38L492.735 264.78C493.733 265.353 494.268 266.738 493.936 267.884C493.603 269.011 492.513 269.473 491.516 268.9Z" fill="white"/>
<path d="M449.288 224.323L444.965 221.829C443.968 221.257 443.432 219.871 443.765 218.726C444.097 217.599 445.187 217.137 446.184 217.71L450.507 220.204C451.505 220.776 452.04 222.162 451.708 223.307C451.375 224.434 450.285 224.896 449.288 224.323Z" fill="white"/>
<path d="M445.205 242.15L439.83 239.047C438.832 238.474 438.297 237.089 438.629 235.943C438.962 234.816 440.052 234.354 441.049 234.927L446.425 238.031C447.422 238.603 447.958 239.989 447.625 241.134C447.293 242.261 446.203 242.723 445.205 242.15Z" fill="white"/>
<path d="M466.098 254.213L451.929 246.03C450.932 245.457 450.396 244.072 450.729 242.926C451.061 241.799 452.151 241.337 453.149 241.91L467.317 250.094C468.314 250.667 468.85 252.052 468.518 253.197C468.185 254.324 467.095 254.786 466.098 254.213Z" fill="white"/>
<path d="M447.441 253.548L437.262 247.674C436.265 247.101 435.729 245.716 436.061 244.57C436.394 243.443 437.484 242.982 438.481 243.554L448.66 249.429C449.657 250.002 450.193 251.387 449.86 252.532C449.528 253.659 448.438 254.121 447.441 253.548Z" fill="white"/>
<path d="M506.959 277.86L500.42 274.091C499.422 273.518 498.886 272.133 499.219 270.987C499.551 269.861 500.641 269.399 501.639 269.971L508.178 273.74C509.176 274.313 509.711 275.698 509.379 276.843C509.046 277.97 507.956 278.432 506.959 277.86Z" fill="white"/>
<path d="M481.91 222.956L463.918 212.556C462.92 211.983 462.385 210.598 462.717 209.452C463.05 208.325 464.14 207.864 465.137 208.436L483.129 218.837C484.127 219.409 484.663 220.795 484.33 221.94C483.998 223.067 482.908 223.529 481.91 222.956Z" fill="white"/>
<path d="M484.053 214.089L452.687 195.985C451.689 195.412 451.154 194.027 451.486 192.882C451.819 191.755 452.908 191.293 453.906 191.866L485.272 209.97C486.27 210.542 486.805 211.928 486.473 213.073C486.14 214.2 485.051 214.662 484.053 214.089Z" fill="#E8975B"/>
<path d="M465.544 223.603L447.551 213.202C446.554 212.63 446.018 211.244 446.351 210.099C446.683 208.972 447.773 208.51 448.771 209.083L466.763 219.483C467.76 220.056 468.296 221.442 467.964 222.587C467.631 223.714 466.541 224.176 465.544 223.603Z" fill="#E8975B"/>
<path d="M495.561 230.845L489.022 227.076C488.025 226.503 487.489 225.118 487.821 223.972C488.154 222.846 489.244 222.384 490.241 222.956L496.781 226.725C497.778 227.298 498.314 228.683 497.981 229.829C497.649 230.955 496.559 231.417 495.561 230.845Z" fill="#E8975B"/>
<path d="M562.099 228.849L523.381 206.496C522.383 205.924 521.848 204.538 522.18 203.393C522.513 202.266 523.602 201.804 524.6 202.377L563.318 224.73C564.316 225.302 564.852 226.688 564.519 227.833C564.187 228.96 563.097 229.422 562.099 228.849Z" fill="#E8975B"/>
<path d="M464.029 242.926L442.398 230.438C441.4 229.865 440.864 228.48 441.197 227.335C441.529 226.208 442.619 225.746 443.617 226.319L465.248 238.807C466.246 239.379 466.781 240.765 466.449 241.91C466.116 243.037 465.026 243.499 464.029 242.926Z" fill="#F8359E"/>
<path d="M467.298 174.131L451.394 164.95C450.396 164.377 449.86 162.991 450.193 161.846C450.525 160.719 451.615 160.257 452.613 160.83L468.518 170.011C469.515 170.584 470.051 171.97 469.718 173.115C469.386 174.242 468.296 174.704 467.298 174.131Z" fill="#F8359E"/>
<path d="M444.116 261.732L425.698 251.091C424.701 250.519 424.165 249.133 424.498 247.988C424.83 246.861 425.92 246.399 426.918 246.972L445.335 257.613C446.332 258.185 446.868 259.571 446.535 260.716C446.203 261.843 445.113 262.305 444.116 261.732Z" fill="#E8975B"/>
<path d="M566.44 208.935L558.553 204.39C557.814 203.966 557.426 202.95 557.684 202.118C557.925 201.287 558.719 200.954 559.458 201.379L567.346 205.924C568.084 206.349 568.472 207.365 568.214 208.196C567.974 209.027 567.179 209.36 566.44 208.935Z" fill="white"/>
<path d="M581.477 217.618L573.589 213.073C572.85 212.648 572.462 211.632 572.721 210.801C572.961 209.97 573.755 209.637 574.494 210.062L582.382 214.606C583.121 215.031 583.509 216.047 583.25 216.879C583.01 217.71 582.216 218.042 581.477 217.618Z" fill="white"/>
<path d="M596.514 226.3L588.626 221.756C587.887 221.331 587.499 220.315 587.758 219.483C587.998 218.652 588.792 218.32 589.531 218.744L597.419 223.289C598.158 223.714 598.546 224.73 598.287 225.561C598.047 226.392 597.253 226.725 596.514 226.3Z" fill="white"/>
<path d="M603.921 230.586L603.681 230.438C602.942 230.013 602.554 228.997 602.813 228.166C603.053 227.335 603.847 227.002 604.586 227.427L604.826 227.575C605.565 228 605.953 229.016 605.694 229.847C605.454 230.678 604.66 231.011 603.921 230.586Z" fill="#F8359E"/>
<path d="M196.935 322.861C191.948 322.861 186.96 321.568 182.508 319L129.695 288.5C127.405 287.17 126.038 284.806 126.038 282.164C126.038 279.522 127.405 277.158 129.695 275.827L182.508 245.328C191.412 240.192 202.477 240.192 211.381 245.328L264.193 275.827C266.484 277.158 267.851 279.522 267.851 282.164C267.851 284.806 266.484 287.17 264.193 288.5L211.381 319C206.929 321.568 201.941 322.861 196.954 322.861H196.935ZM184.226 316.026C192.077 320.552 201.812 320.552 209.663 316.026L262.476 285.526C263.695 284.824 264.415 283.568 264.415 282.164C264.415 280.76 263.695 279.504 262.476 278.802L209.663 248.302C201.812 243.776 192.077 243.776 184.226 248.302L131.413 278.802C130.194 279.504 129.474 280.76 129.474 282.164C129.474 283.568 130.194 284.824 131.413 285.526L184.226 316.026Z" fill="#B12FAE"/>
<path opacity="0.6" d="M222.335 297.7C208.166 305.884 185.187 305.884 171.018 297.7C156.85 289.516 156.85 276.252 171.018 268.069C185.187 259.885 208.166 259.885 222.335 268.069C236.503 276.252 236.503 289.516 222.335 297.7Z" fill="#2E3A72" fill-opacity="0.2"/>
<path d="M250.45 133.6H147.115L156.721 245.494C156.721 251.701 160.821 257.927 169.042 262.656C185.464 272.133 212.101 272.133 228.523 262.656C236.743 257.908 240.844 251.701 240.844 245.476L250.45 133.582V133.6Z" fill="url(#paint4_radial_12_1113)"/>
<path d="M250.45 133.6H147.115L148.704 152C151.068 155.029 154.264 157.948 158.272 160.608C178.019 173.706 210.605 176.237 232.827 166.797L229.391 248.634C229.244 252.2 228.006 255.673 225.697 258.388C222.353 262.323 215.906 266.96 203.511 269.583C212.655 268.992 221.522 266.683 228.523 262.637C236.743 257.89 240.844 251.683 240.844 245.457L248.547 155.731L250.45 133.582V133.6Z" fill="#131750" fill-opacity="0.3"/>
<path opacity="0.4" d="M198.782 163.435C227.318 163.435 250.45 150.077 250.45 133.6C250.45 117.123 227.318 103.766 198.782 103.766C170.247 103.766 147.115 117.123 147.115 133.6C147.115 150.077 170.247 163.435 198.782 163.435Z" fill="#131750"/>
<path opacity="0.4" d="M198.782 148.767C223.359 148.767 243.283 137.262 243.283 123.07C243.283 108.878 223.359 97.3737 198.782 97.3737C174.206 97.3737 154.282 108.878 154.282 123.07C154.282 137.262 174.206 148.767 198.782 148.767Z" fill="#131750"/>
<path d="M253.516 132.196V132.104C253.516 132.048 253.516 131.993 253.516 131.956L252.519 121.943L252.482 122.054C252.039 114.48 246.811 106.961 236.799 101.179C215.814 89.0606 181.806 89.0606 160.821 101.179C150.551 107.109 145.323 114.85 145.101 122.627L144.159 131.513C144.141 131.753 144.104 131.974 144.085 132.215V132.362C143.513 140.86 148.851 149.469 160.083 155.953C181.474 168.312 216.165 168.312 237.556 155.953C248.861 149.432 254.2 140.749 253.553 132.196H253.516Z" fill="url(#paint5_linear_12_1113)"/>
<path d="M198.782 148.767C223.359 148.767 243.283 137.262 243.283 123.07C243.283 108.878 223.359 97.3737 198.782 97.3737C174.206 97.3737 154.282 108.878 154.282 123.07C154.282 137.262 174.206 148.767 198.782 148.767Z" fill="url(#paint6_linear_12_1113)"/>
<path d="M196.677 148.767C221.253 148.767 241.177 137.262 241.177 123.07C241.177 108.878 221.253 97.3737 196.677 97.3737C172.1 97.3737 152.176 108.878 152.176 123.07C152.176 137.262 172.1 148.767 196.677 148.767Z" fill="url(#paint7_linear_12_1113)"/>
<path opacity="0.4" d="M172.588 108.735C189.971 98.7038 218.142 98.7038 235.524 108.735C235.746 108.864 235.931 108.994 236.152 109.141C234.471 107.645 232.513 106.222 230.26 104.911C212.877 94.8798 184.706 94.8798 167.324 104.911C150.163 114.813 149.978 130.792 166.696 140.86C155.538 130.903 157.478 117.473 172.588 108.753V108.735Z" fill="#131750"/>
<path d="M167.305 109.363C184.688 99.3319 212.858 99.3319 230.241 109.363C237.944 113.815 242.23 119.486 243.098 125.306C244.188 118.009 239.902 110.49 230.241 104.911C212.858 94.8798 184.688 94.8798 167.305 104.911C157.626 110.49 153.359 118.009 154.448 125.306C155.317 119.486 159.602 113.815 167.305 109.363Z" fill="url(#paint8_linear_12_1113)"/>
<path d="M237.094 101.401C216.147 89.0606 182.009 88.7651 160.84 100.736C139.67 112.707 139.504 132.418 160.452 144.758C181.4 157.098 215.537 157.394 236.706 145.423C257.876 133.452 258.042 113.741 237.094 101.401ZM230.241 141.248C224.441 144.592 217.421 146.809 210.014 147.917L209.201 145.257C208.868 144.185 207.889 143.447 206.763 143.447H190.784C189.657 143.447 188.678 144.185 188.345 145.257L187.533 147.917C180.125 146.809 173.106 144.592 167.305 141.248C149.923 131.217 149.923 114.942 167.305 104.911C184.688 94.8798 212.858 94.8798 230.241 104.911C247.624 114.942 247.624 131.217 230.241 141.248Z" fill="url(#paint9_radial_12_1113)"/>
<path d="M230.26 103.008C212.877 92.977 184.706 92.977 167.324 103.008C158.217 108.273 153.894 115.238 154.338 122.128C154.744 115.866 159.067 109.677 167.324 104.911C184.706 94.8798 212.877 94.8798 230.26 104.911C238.535 109.695 242.858 115.866 243.264 122.128C243.708 115.238 239.385 108.273 230.26 103.008Z" fill="white"/>
<path d="M236.706 143.52C215.537 155.491 181.4 155.196 160.452 142.855C150.477 136.981 145.305 129.444 144.898 121.851C144.492 130.072 149.664 138.385 160.452 144.758C181.4 157.098 215.537 157.394 236.706 145.423C247.79 139.142 253.11 130.755 252.648 122.405C252.26 130.109 246.959 137.738 236.706 143.52Z" fill="white"/>
<path d="M203.567 146.716H193.998C193.335 146.716 192.797 147.254 192.797 147.917V148.102C192.797 148.765 193.335 149.303 193.998 149.303H203.567C204.23 149.303 204.768 148.765 204.768 148.102V147.917C204.768 147.254 204.23 146.716 203.567 146.716Z" fill="#0C0A78"/>
<path d="M203.567 146.716H194.017C193.352 146.716 192.816 147.252 192.816 147.917V148.083C192.816 148.194 192.853 148.305 192.89 148.397C193.037 147.899 193.481 147.511 194.035 147.511H203.585C204.139 147.511 204.583 147.88 204.731 148.397C204.768 148.287 204.804 148.194 204.804 148.083V147.917C204.804 147.252 204.269 146.716 203.604 146.716H203.567Z" fill="url(#paint10_linear_12_1113)"/>
<path d="M181.806 201.361L169.319 215.863L182.046 226.67V221.091L174.676 214.717L181.511 206.977L181.806 201.361Z" fill="white"/>
<path d="M203.788 202.026L216.294 216.509L203.567 227.316V221.737L210.919 215.364L202.736 206.7L203.788 202.026Z" fill="white"/>
<path d="M184.54 226.67L195.439 202.672H200.556L188.216 226.67H184.54Z" fill="white"/>
<path opacity="0.5" d="M202.163 148.009C202.163 148.009 231.054 138.329 219.361 105.133C207.668 71.9357 184.891 61.8123 194.054 35.2659C194.054 35.2659 179.682 56.769 193.111 85.8462C206.541 114.923 209.496 111.598 209.33 125.509C209.146 142.043 195.79 148.009 195.79 148.009H202.144H202.163Z" fill="white"/>
<path opacity="0.5" d="M204.768 39.8658C204.768 39.8658 201.756 20.0068 220.395 0C220.395 0 203.918 36.7992 209.312 54.9586C209.312 54.9586 204.952 43.4127 204.768 39.8658Z" fill="white"/>
</g>
<defs>
<linearGradient id="paint0_linear_12_1113" x1="388.812" y1="529.165" x2="388.812" y2="263.817" gradientUnits="userSpaceOnUse">
<stop stop-color="#3D1F81"/>
<stop offset="1" stop-color="#6B34A6"/>
</linearGradient>
<linearGradient id="paint1_linear_12_1113" x1="516.675" y1="420.958" x2="516.675" y2="52.7878" gradientUnits="userSpaceOnUse">
<stop stop-color="#3D1F81"/>
<stop offset="1" stop-color="#6B34A6"/>
</linearGradient>
<linearGradient id="paint2_linear_12_1113" x1="351.421" y1="236.959" x2="682.023" y2="236.959" gradientUnits="userSpaceOnUse">
<stop stop-color="#3919BB"/>
<stop offset="1" stop-color="#6507FA"/>
</linearGradient>
<radialGradient id="paint3_radial_12_1113" cx="0" cy="0" r="1" gradientUnits="userSpaceOnUse" gradientTransform="translate(155.465 40.5308) scale(642.565 642.6)">
<stop stop-color="#E39A65"/>
<stop offset="0.47" stop-color="#A92FFB"/>
<stop offset="0.59" stop-color="#881BFA"/>
<stop offset="0.73" stop-color="#6507FA"/>
<stop offset="1" stop-color="#3919BB"/>
</radialGradient>
<radialGradient id="paint4_radial_12_1113" cx="0" cy="0" r="1" gradientUnits="userSpaceOnUse" gradientTransform="translate(138.599 166.483) scale(305.443 305.459)">
<stop stop-color="#E39A65"/>
<stop offset="0.15" stop-color="#A92FFB"/>
<stop offset="0.41" stop-color="#3919BB"/>
<stop offset="0.93" stop-color="#3919BB"/>
</radialGradient>
<linearGradient id="paint5_linear_12_1113" x1="144.011" y1="128.649" x2="253.572" y2="128.649" gradientUnits="userSpaceOnUse">
<stop stop-color="#E39A65"/>
<stop offset="0.25" stop-color="#A92FFB"/>
<stop offset="0.56" stop-color="#3919BB"/>
</linearGradient>
<linearGradient id="paint6_linear_12_1113" x1="154.282" y1="123.07" x2="243.283" y2="123.07" gradientUnits="userSpaceOnUse">
<stop stop-color="#4F1FEC"/>
<stop offset="1" stop-color="#A92FFB"/>
</linearGradient>
<linearGradient id="paint7_linear_12_1113" x1="196.679" y1="148.769" x2="196.679" y2="97.3737" gradientUnits="userSpaceOnUse">
<stop stop-color="#3D1F81"/>
<stop offset="1" stop-color="#6B34A6"/>
</linearGradient>
<linearGradient id="paint8_linear_12_1113" x1="154.282" y1="111.34" x2="266.503" y2="111.34" gradientUnits="userSpaceOnUse">
<stop stop-color="#131060"/>
<stop offset="0.19" stop-color="#140F62"/>
<stop offset="0.28" stop-color="#190F6A"/>
<stop offset="0.36" stop-color="#220F77"/>
<stop offset="0.42" stop-color="#2E0F8A"/>
<stop offset="0.48" stop-color="#3D0EA3"/>
<stop offset="0.54" stop-color="#510EC1"/>
<stop offset="0.58" stop-color="#670DE5"/>
<stop offset="0.61" stop-color="#740DF8"/>
<stop offset="0.62" stop-color="#7A14EF"/>
<stop offset="0.68" stop-color="#9B3BC2"/>
<stop offset="0.75" stop-color="#B75C9D"/>
<stop offset="0.81" stop-color="#CC7680"/>
<stop offset="0.88" stop-color="#DB886B"/>
<stop offset="0.94" stop-color="#E4935F"/>
<stop offset="1" stop-color="#E8975B"/>
</linearGradient>
<radialGradient id="paint9_radial_12_1113" cx="0" cy="0" r="1" gradientUnits="userSpaceOnUse" gradientTransform="translate(130.323 97.6508) scale(199.798 199.809)">
<stop stop-color="#E39A65"/>
<stop offset="0.25" stop-color="#A92FFB"/>
<stop offset="0.74" stop-color="#3919BB"/>
</radialGradient>
<linearGradient id="paint10_linear_12_1113" x1="191.744" y1="147.566" x2="207.261" y2="147.566" gradientUnits="userSpaceOnUse">
<stop stop-color="#131060"/>
<stop offset="0.19" stop-color="#140F62"/>
<stop offset="0.28" stop-color="#190F6A"/>
<stop offset="0.36" stop-color="#220F77"/>
<stop offset="0.42" stop-color="#2E0F8A"/>
<stop offset="0.48" stop-color="#3D0EA3"/>
<stop offset="0.54" stop-color="#510EC1"/>
<stop offset="0.58" stop-color="#670DE5"/>
<stop offset="0.61" stop-color="#740DF8"/>
<stop offset="0.62" stop-color="#7A14EF"/>
<stop offset="0.68" stop-color="#9B3BC2"/>
<stop offset="0.75" stop-color="#B75C9D"/>
<stop offset="0.81" stop-color="#CC7680"/>
<stop offset="0.88" stop-color="#DB886B"/>
<stop offset="0.94" stop-color="#E4935F"/>
<stop offset="1" stop-color="#E8975B"/>
</linearGradient>
<clipPath id="clip0_12_1113">
<rect width="810" height="600" fill="white"/>
</clipPath>
</defs>
</svg>
