<svg width="289" height="300" viewBox="0 0 289 300" fill="none" xmlns="http://www.w3.org/2000/svg">
<g clip-path="url(#clip0_16_1437)">
<path d="M21.754 224.5C20.1978 224.5 18.6497 224.105 17.2603 223.308L1.22267 214.102C0.460485 213.66 0 212.878 0 212.002C0 211.126 0.452546 210.344 1.22267 209.902L17.2603 200.696C20.0311 199.101 23.4689 199.101 26.2397 200.696L42.2773 209.902C43.0395 210.336 43.5 211.126 43.5 212.002C43.5 212.878 43.0475 213.66 42.2773 214.102L26.2397 223.308C24.8583 224.105 23.3022 224.5 21.746 224.5H21.754ZM21.754 200.972C20.4598 200.972 19.1578 201.304 17.9986 201.967L1.96103 211.173C1.53231 211.426 1.48467 211.836 1.48467 212.002C1.48467 212.168 1.53231 212.578 1.96103 212.831L17.9986 222.037C20.3169 223.363 23.191 223.363 25.5014 222.037L41.539 212.831C41.9756 212.578 42.0153 212.168 42.0153 212.002C42.0153 211.836 41.9677 211.426 41.539 211.173L25.5014 201.967C24.3422 201.304 23.0481 200.972 21.746 200.972H21.754Z" fill="#B12FAE"/>
<path opacity="0.6" d="M214.225 286.089L80.8263 209.064C78.8774 207.937 79.1268 205.979 81.3712 204.686L166.991 155.251C169.236 153.958 172.635 153.81 174.574 154.937L307.973 231.962C309.922 233.089 309.673 235.047 307.428 236.34L221.808 285.775C219.564 287.069 216.165 287.216 214.225 286.089Z" fill="#2E3A72" fill-opacity="0.2"/>
<path d="M217.273 300C215.712 300 214.216 299.677 213.08 299.012L60.8298 211.106C59.5829 210.385 58.8994 209.351 58.8994 208.187C58.8994 206.847 59.8323 205.545 61.4486 204.612L165.227 143.807C168.072 142.163 172.256 142.006 174.75 143.447L327 231.353C328.247 232.073 328.93 233.108 328.93 234.271C328.93 235.611 327.997 236.904 326.381 237.846L222.603 298.651C221.06 299.538 219.121 300 217.283 300H217.273ZM170.575 144.195C169.014 144.195 167.361 144.573 166.095 145.303L62.3168 206.109C61.2547 206.727 60.6266 207.503 60.6266 208.196C60.6266 208.889 61.2085 209.341 61.698 209.618L213.948 297.525C215.888 298.651 219.462 298.485 221.744 297.164L325.522 236.359C326.584 235.74 327.212 234.964 327.212 234.271C327.212 233.579 326.63 233.126 326.141 232.849L173.891 144.943C173.022 144.444 171.831 144.195 170.575 144.195Z" fill="#B12FAE"/>
<path d="M343.404 102.833L210.531 26.1215C209.617 25.595 208.665 25.4842 207.816 25.7335C207.816 25.7335 207.816 25.7335 207.806 25.7335L205.349 26.5926L206.218 26.7958C205.867 27.2114 205.59 27.7194 205.405 28.3198L175.359 125.887C174.611 128.307 175.701 131.245 177.798 132.455L310.67 209.175C310.994 209.36 311.317 209.489 311.649 209.572L311.317 210.293L313.663 209.471C314.623 209.083 315.418 208.224 315.796 206.986L345.842 109.418C346.59 106.998 345.5 104.061 343.404 102.851V102.833Z" fill="#BC74E1"/>
<path d="M305.904 212.814L305.951 212.87L174.703 137.092C172.773 135.974 169.402 136.113 167.167 137.406L82.3688 186.37L79.5425 185.289L80.3368 189.261C80.4384 189.852 80.8633 190.415 81.6114 190.849L214.068 267.33C215.999 268.447 219.37 268.309 221.605 267.016L306.616 217.932C307.668 217.322 308.269 216.574 308.417 215.835L309.229 211.983L305.895 212.833L305.904 212.814Z" fill="#BC74E1"/>
<path d="M214.225 263.82L80.8263 186.795C78.8774 185.668 79.1268 183.709 81.3712 182.416L166.991 132.981C169.236 131.688 172.635 131.54 174.574 132.667L307.973 209.692C309.922 210.819 309.673 212.777 307.428 214.071L221.808 263.506C219.564 264.799 216.165 264.947 214.225 263.82Z" fill="url(#paint0_linear_16_1437)"/>
<path d="M307.419 213.036L221.799 262.471C219.555 263.764 216.156 263.912 214.216 262.785L80.8171 185.76C80.1521 185.381 79.7642 184.892 79.6072 184.375C79.3485 185.27 79.7272 186.166 80.8171 186.795L214.216 263.82C216.165 264.947 219.555 264.799 221.799 263.506L307.419 214.071C308.897 213.212 309.488 212.075 309.174 211.078C308.971 211.771 308.398 212.473 307.419 213.036Z" fill="white"/>
<g opacity="0.4">
<path d="M144.455 174.297L139.948 171.692C139.587 171.48 139.634 171.12 140.049 170.88L145.369 167.813C145.785 167.573 146.422 167.545 146.782 167.758L151.29 170.362C151.65 170.575 151.604 170.935 151.188 171.175L145.868 174.242C145.452 174.482 144.815 174.51 144.455 174.297Z" fill="#131750"/>
<path d="M151.41 178.315L146.903 175.71C146.542 175.498 146.589 175.138 147.004 174.898L152.324 171.831C152.74 171.591 153.377 171.563 153.737 171.776L158.245 174.38C158.605 174.593 158.559 174.953 158.143 175.193L152.823 178.26C152.407 178.5 151.77 178.528 151.41 178.315Z" fill="#131750"/>
<path d="M158.365 182.333L153.858 179.728C153.497 179.516 153.543 179.156 153.959 178.916L159.279 175.849C159.695 175.609 160.332 175.581 160.692 175.794L165.2 178.398C165.56 178.611 165.514 178.971 165.098 179.211L159.778 182.278C159.362 182.518 158.725 182.546 158.365 182.333Z" fill="#131750"/>
<path d="M167.98 179.017L163.472 176.412C163.112 176.2 163.158 175.84 163.574 175.6L168.035 173.023C168.451 172.782 169.088 172.755 169.448 172.967L173.956 175.572C174.316 175.784 174.27 176.145 173.854 176.385L169.393 178.962C168.977 179.202 168.34 179.23 167.98 179.017Z" fill="#131750"/>
<path d="M174.935 183.035L170.427 180.43C170.067 180.218 170.113 179.858 170.529 179.618L174.99 177.041C175.406 176.8 176.043 176.773 176.403 176.985L180.91 179.59C181.271 179.802 181.225 180.163 180.809 180.403L176.348 182.98C175.932 183.22 175.295 183.248 174.935 183.035Z" fill="#131750"/>
<path d="M181.889 187.044L177.382 184.439C177.022 184.227 177.068 183.866 177.484 183.626L181.945 181.049C182.361 180.809 182.998 180.781 183.358 180.994L187.865 183.599C188.226 183.811 188.179 184.171 187.764 184.411L183.303 186.989C182.887 187.229 182.25 187.256 181.889 187.044Z" fill="#131750"/>
<path d="M188.844 191.062L184.337 188.457C183.977 188.245 184.023 187.884 184.439 187.644L188.9 185.067C189.315 184.827 189.953 184.799 190.313 185.012L194.82 187.617C195.18 187.829 195.134 188.189 194.719 188.429L190.257 191.006C189.842 191.247 189.205 191.274 188.844 191.062Z" fill="#131750"/>
<path d="M195.799 195.08L191.292 192.475C190.932 192.263 190.978 191.902 191.393 191.662L195.855 189.085C196.27 188.845 196.907 188.817 197.268 189.03L201.775 191.635C202.135 191.847 202.089 192.207 201.673 192.447L197.212 195.024C196.797 195.265 196.159 195.292 195.799 195.08Z" fill="#131750"/>
<path d="M202.754 199.098L198.247 196.493C197.887 196.281 197.933 195.92 198.348 195.68L202.81 193.103C203.225 192.863 203.862 192.835 204.223 193.048L208.73 195.653C209.09 195.865 209.044 196.225 208.628 196.465L204.167 199.042C203.752 199.283 203.114 199.31 202.754 199.098Z" fill="#131750"/>
<path d="M209.709 203.107L205.202 200.502C204.842 200.289 204.888 199.929 205.303 199.689L209.764 197.112C210.18 196.872 210.817 196.844 211.178 197.057L215.685 199.661C216.045 199.874 215.999 200.234 215.583 200.474L211.122 203.051C210.707 203.291 210.069 203.319 209.709 203.107Z" fill="#131750"/>
<path d="M216.664 207.125L212.157 204.52C211.796 204.307 211.843 203.947 212.258 203.707L216.719 201.13C217.135 200.89 217.772 200.862 218.132 201.075L222.64 203.679C223 203.892 222.954 204.252 222.538 204.492L218.077 207.069C217.661 207.309 217.024 207.337 216.664 207.125Z" fill="#131750"/>
<path d="M223.619 211.143L219.111 208.538C218.751 208.325 218.797 207.965 219.213 207.725L223.674 205.148C224.09 204.908 224.727 204.88 225.087 205.093L229.595 207.697C229.955 207.91 229.909 208.27 229.493 208.51L225.032 211.087C224.616 211.327 223.979 211.355 223.619 211.143Z" fill="#131750"/>
<path d="M230.574 215.161L226.066 212.556C225.706 212.343 225.752 211.983 226.168 211.743L230.629 209.166C231.045 208.926 231.682 208.898 232.042 209.11L236.55 211.715C236.91 211.928 236.864 212.288 236.448 212.528L231.987 215.105C231.571 215.345 230.934 215.373 230.574 215.161Z" fill="#131750"/>
<path d="M178.232 177.114L173.725 174.51C173.364 174.297 173.411 173.937 173.826 173.697L178.287 171.12C178.703 170.88 179.34 170.852 179.7 171.064L184.208 173.669C184.568 173.882 184.522 174.242 184.106 174.482L179.645 177.059C179.229 177.299 178.592 177.327 178.232 177.114Z" fill="#131750"/>
<path d="M171.166 173.041L166.659 170.436C166.299 170.224 166.345 169.864 166.76 169.623L171.221 167.046C171.637 166.806 172.274 166.779 172.635 166.991L177.142 169.596C177.502 169.808 177.456 170.168 177.04 170.409L172.579 172.986C172.164 173.226 171.526 173.253 171.166 173.041Z" fill="#131750"/>
<path d="M164.101 168.958L154.402 163.361C154.042 163.148 154.088 162.788 154.504 162.548L158.965 159.971C159.381 159.731 160.018 159.703 160.378 159.916L170.076 165.513C170.437 165.726 170.39 166.086 169.975 166.326L165.514 168.903C165.098 169.143 164.461 169.171 164.101 168.958Z" fill="#131750"/>
<path d="M169.042 163.989L161.172 159.445C160.812 159.232 160.858 158.872 161.274 158.632L165.735 156.055C166.151 155.815 166.788 155.787 167.148 155.999L175.018 160.544C175.378 160.756 175.332 161.116 174.916 161.357L170.455 163.934C170.039 164.174 169.402 164.201 169.042 163.989Z" fill="#131750"/>
<path d="M185.187 181.132L180.68 178.528C180.319 178.315 180.366 177.955 180.781 177.715L185.242 175.138C185.658 174.898 186.295 174.87 186.655 175.082L191.163 177.687C191.523 177.9 191.477 178.26 191.061 178.5L186.6 181.077C186.184 181.317 185.547 181.345 185.187 181.132Z" fill="#131750"/>
<path d="M192.142 185.15L187.634 182.546C187.274 182.333 187.32 181.973 187.736 181.733L192.197 179.156C192.613 178.916 193.25 178.888 193.61 179.1L198.118 181.705C198.478 181.918 198.432 182.278 198.016 182.518L193.555 185.095C193.139 185.335 192.502 185.363 192.142 185.15Z" fill="#131750"/>
<path d="M199.097 189.159L194.589 186.554C194.229 186.342 194.275 185.982 194.691 185.742L199.152 183.164C199.568 182.924 200.205 182.897 200.565 183.109L205.072 185.714C205.433 185.926 205.386 186.287 204.971 186.527L200.51 189.104C200.094 189.344 199.457 189.372 199.097 189.159Z" fill="#131750"/>
<path d="M206.051 193.177L201.544 190.572C201.184 190.36 201.23 190 201.646 189.76L206.107 187.182C206.522 186.942 207.16 186.915 207.52 187.127L212.027 189.732C212.388 189.944 212.341 190.304 211.926 190.545L207.465 193.122C207.049 193.362 206.412 193.39 206.051 193.177Z" fill="#131750"/>
<path d="M213.006 197.195L208.499 194.59C208.139 194.378 208.185 194.018 208.601 193.778L213.062 191.2C213.477 190.96 214.115 190.933 214.475 191.145L218.982 193.75C219.342 193.962 219.296 194.322 218.881 194.563L214.42 197.14C214.004 197.38 213.367 197.408 213.006 197.195Z" fill="#131750"/>
<path d="M219.961 201.213L215.454 198.608C215.094 198.396 215.14 198.036 215.556 197.795L220.017 195.218C220.432 194.978 221.07 194.951 221.43 195.163L225.937 197.768C226.297 197.98 226.251 198.34 225.835 198.581L221.374 201.158C220.959 201.398 220.321 201.426 219.961 201.213Z" fill="#131750"/>
<path d="M226.916 205.222L222.409 202.617C222.049 202.405 222.095 202.044 222.51 201.804L226.971 199.227C227.387 198.987 228.024 198.959 228.385 199.172L232.892 201.777C233.252 201.989 233.206 202.349 232.79 202.589L228.329 205.166C227.914 205.407 227.276 205.434 226.916 205.222Z" fill="#131750"/>
<path d="M233.871 209.24L229.364 206.635C229.004 206.423 229.05 206.062 229.465 205.822L233.926 203.245C234.342 203.005 234.979 202.977 235.34 203.19L239.847 205.795C240.207 206.007 240.161 206.367 239.745 206.607L235.284 209.184C234.869 209.425 234.231 209.452 233.871 209.24Z" fill="#131750"/>
<path d="M240.826 213.258L236.319 210.653C235.958 210.441 236.005 210.08 236.42 209.84L240.881 207.263C241.297 207.023 241.934 206.995 242.295 207.208L246.802 209.812C247.162 210.025 247.116 210.385 246.7 210.625L242.239 213.202C241.823 213.443 241.186 213.47 240.826 213.258Z" fill="#131750"/>
<path d="M253.193 220.398L243.366 214.726C243.006 214.514 243.052 214.154 243.467 213.914L247.929 211.337C248.344 211.096 248.981 211.069 249.342 211.281L259.169 216.952C259.529 217.165 259.483 217.525 259.067 217.765L254.606 220.342C254.191 220.583 253.553 220.61 253.193 220.398Z" fill="#131750"/>
<path d="M266.734 212.574L258.439 207.79C258.079 207.577 258.125 207.217 258.541 206.977L263.002 204.4C263.418 204.16 264.055 204.132 264.415 204.344L272.709 209.129C273.07 209.341 273.023 209.702 272.608 209.942L268.147 212.519C267.731 212.759 267.094 212.787 266.734 212.574Z" fill="#131750"/>
<path d="M197.36 180.347L192.853 177.743C192.493 177.53 192.539 177.17 192.954 176.93L197.416 174.353C197.831 174.112 198.469 174.085 198.829 174.297L203.336 176.902C203.696 177.114 203.65 177.475 203.234 177.715L198.773 180.292C198.358 180.532 197.72 180.56 197.36 180.347Z" fill="#131750"/>
<path d="M190.239 176.228L185.732 173.623C185.372 173.411 185.418 173.05 185.833 172.81L190.294 170.233C190.71 169.993 191.347 169.965 191.708 170.178L196.215 172.782C196.575 172.995 196.529 173.355 196.113 173.595L191.652 176.172C191.237 176.412 190.599 176.44 190.239 176.228Z" fill="#131750"/>
<path d="M183.109 172.117L178.601 169.513C178.241 169.3 178.287 168.94 178.703 168.7L183.164 166.123C183.58 165.883 184.217 165.855 184.577 166.067L189.085 168.672C189.445 168.885 189.399 169.245 188.983 169.485L184.522 172.062C184.106 172.302 183.469 172.33 183.109 172.117Z" fill="#131750"/>
<path d="M175.978 167.998L171.471 165.393C171.111 165.181 171.157 164.82 171.573 164.58L176.034 162.003C176.449 161.763 177.087 161.735 177.447 161.948L181.954 164.552C182.314 164.765 182.268 165.125 181.852 165.365L177.391 167.942C176.976 168.183 176.338 168.21 175.978 167.998Z" fill="#131750"/>
<path d="M204.315 184.365L199.808 181.761C199.448 181.548 199.494 181.188 199.909 180.948L204.37 178.371C204.786 178.13 205.423 178.103 205.784 178.315L210.291 180.92C210.651 181.132 210.605 181.493 210.189 181.733L205.728 184.31C205.313 184.55 204.675 184.578 204.315 184.365Z" fill="#131750"/>
<path d="M211.27 188.374L206.763 185.769C206.402 185.557 206.449 185.197 206.864 184.956L211.325 182.379C211.741 182.139 212.378 182.112 212.738 182.324L217.246 184.929C217.606 185.141 217.56 185.501 217.144 185.742L212.683 188.319C212.267 188.559 211.63 188.586 211.27 188.374Z" fill="#131750"/>
<path d="M218.234 192.392L213.727 189.787C213.367 189.575 213.413 189.215 213.828 188.974L218.289 186.397C218.705 186.157 219.342 186.13 219.703 186.342L224.21 188.947C224.57 189.159 224.524 189.519 224.108 189.76L219.647 192.337C219.232 192.577 218.594 192.604 218.234 192.392Z" fill="#131750"/>
<path d="M225.189 196.41L220.682 193.805C220.321 193.593 220.368 193.233 220.783 192.992L225.244 190.415C225.66 190.175 226.297 190.147 226.657 190.36L231.165 192.965C231.525 193.177 231.479 193.537 231.063 193.777L226.602 196.355C226.186 196.595 225.549 196.622 225.189 196.41Z" fill="#131750"/>
<path d="M232.144 200.428L227.637 197.823C227.276 197.611 227.323 197.251 227.738 197.01L232.199 194.433C232.615 194.193 233.252 194.165 233.612 194.378L238.12 196.983C238.48 197.195 238.434 197.555 238.018 197.795L233.557 200.373C233.141 200.613 232.504 200.64 232.144 200.428Z" fill="#131750"/>
<path d="M239.099 204.437L234.591 201.832C234.231 201.619 234.277 201.259 234.693 201.019L239.154 198.442C239.57 198.202 240.207 198.174 240.567 198.387L245.075 200.991C245.435 201.204 245.389 201.564 244.973 201.804L240.512 204.381C240.096 204.621 239.459 204.649 239.099 204.437Z" fill="#131750"/>
<path d="M246.054 208.455L241.546 205.85C241.186 205.637 241.232 205.277 241.648 205.037L246.109 202.46C246.525 202.22 247.162 202.192 247.522 202.405L252.029 205.009C252.39 205.222 252.343 205.582 251.928 205.822L247.467 208.399C247.051 208.639 246.414 208.667 246.054 208.455Z" fill="#131750"/>
<path d="M253.008 212.473L248.501 209.868C248.141 209.655 248.187 209.295 248.603 209.055L253.064 206.478C253.48 206.238 254.117 206.21 254.477 206.423L258.984 209.027C259.345 209.24 259.298 209.6 258.883 209.84L254.422 212.417C254.006 212.657 253.369 212.685 253.008 212.473Z" fill="#131750"/>
<path d="M259.963 216.491L255.456 213.886C255.096 213.673 255.142 213.313 255.558 213.073L260.019 210.496C260.434 210.256 261.072 210.228 261.432 210.441L265.939 213.045C266.3 213.258 266.253 213.618 265.838 213.858L261.377 216.435C260.961 216.675 260.324 216.703 259.963 216.491Z" fill="#131750"/>
<path d="M193.703 170.409L189.195 167.804C188.835 167.591 188.881 167.231 189.297 166.991L193.758 164.414C194.174 164.174 194.811 164.146 195.171 164.359L199.678 166.963C200.039 167.176 199.992 167.536 199.577 167.776L195.116 170.353C194.7 170.593 194.063 170.621 193.703 170.409Z" fill="#131750"/>
<path d="M186.785 166.418L182.277 163.814C181.917 163.601 181.963 163.241 182.379 163.001L186.84 160.424C187.256 160.183 187.893 160.156 188.253 160.368L192.761 162.973C193.121 163.185 193.075 163.546 192.659 163.786L188.198 166.363C187.782 166.603 187.145 166.631 186.785 166.418Z" fill="#131750"/>
<path d="M179.857 162.419L175.35 159.814C174.99 159.602 175.036 159.241 175.452 159.001L179.913 156.424C180.329 156.184 180.966 156.156 181.326 156.369L185.833 158.973C186.194 159.186 186.147 159.546 185.732 159.786L181.271 162.363C180.855 162.604 180.218 162.631 179.857 162.419Z" fill="#131750"/>
<path d="M172.94 158.429L168.432 155.824C168.072 155.611 168.118 155.251 168.534 155.011L172.995 152.434C173.411 152.194 174.048 152.166 174.408 152.378L178.915 154.983C179.276 155.196 179.229 155.556 178.814 155.796L174.353 158.373C173.937 158.613 173.3 158.641 172.94 158.429Z" fill="#131750"/>
<path d="M180.061 154.318L175.553 151.713C175.193 151.501 175.239 151.141 175.655 150.901L177.133 150.051C177.548 149.811 178.186 149.783 178.546 149.995L183.053 152.6C183.413 152.813 183.367 153.173 182.952 153.413L181.474 154.263C181.058 154.503 180.421 154.531 180.061 154.318Z" fill="#131750"/>
<path d="M189.085 159.528L184.577 156.923C184.217 156.71 184.263 156.35 184.679 156.11L186.157 155.26C186.572 155.02 187.21 154.992 187.57 155.205L192.077 157.81C192.437 158.022 192.391 158.382 191.975 158.622L190.498 159.472C190.082 159.712 189.445 159.74 189.085 159.528Z" fill="#131750"/>
<path d="M195.984 163.509L191.477 160.904C191.116 160.692 191.163 160.331 191.578 160.091L193.056 159.241C193.472 159.001 194.109 158.973 194.469 159.186L198.976 161.791C199.337 162.003 199.291 162.363 198.875 162.604L197.397 163.453C196.981 163.693 196.344 163.721 195.984 163.509Z" fill="#131750"/>
<path d="M202.874 167.49L198.367 164.885C198.007 164.673 198.053 164.312 198.469 164.072L199.946 163.222C200.362 162.982 200.999 162.955 201.359 163.167L205.867 165.772C206.227 165.984 206.181 166.344 205.765 166.585L204.287 167.434C203.872 167.675 203.234 167.702 202.874 167.49Z" fill="#131750"/>
<path d="M209.764 171.471L205.257 168.866C204.897 168.654 204.943 168.293 205.359 168.053L206.837 167.203C207.252 166.963 207.89 166.936 208.25 167.148L212.757 169.753C213.117 169.965 213.071 170.325 212.655 170.566L211.178 171.415C210.762 171.656 210.125 171.683 209.764 171.471Z" fill="#131750"/>
<path d="M248.243 193.685L243.735 191.08C243.375 190.868 243.421 190.508 243.837 190.268L245.315 189.418C245.73 189.178 246.368 189.15 246.728 189.362L251.235 191.967C251.595 192.18 251.549 192.54 251.134 192.78L249.656 193.63C249.24 193.87 248.603 193.898 248.243 193.685Z" fill="#131750"/>
<path d="M255.133 197.666L250.626 195.061C250.265 194.849 250.312 194.489 250.727 194.249L252.205 193.399C252.621 193.159 253.258 193.131 253.618 193.343L258.125 195.948C258.486 196.161 258.439 196.521 258.024 196.761L256.546 197.611C256.13 197.851 255.493 197.879 255.133 197.666Z" fill="#131750"/>
<path d="M262.023 201.638L257.516 199.033C257.156 198.821 257.202 198.461 257.617 198.22L259.095 197.371C259.511 197.13 260.148 197.103 260.508 197.315L265.016 199.92C265.376 200.132 265.33 200.493 264.914 200.733L263.436 201.583C263.021 201.823 262.383 201.85 262.023 201.638Z" fill="#131750"/>
<path d="M268.913 205.619L264.406 203.014C264.046 202.802 264.092 202.442 264.508 202.201L265.986 201.352C266.401 201.112 267.038 201.084 267.399 201.296L271.906 203.901C272.266 204.113 272.22 204.474 271.804 204.714L270.327 205.564C269.911 205.804 269.274 205.831 268.913 205.619Z" fill="#131750"/>
<path d="M200.658 174.427L196.15 171.822C195.79 171.609 195.836 171.249 196.252 171.009L200.713 168.432C201.129 168.192 201.766 168.164 202.126 168.376L206.633 170.981C206.994 171.194 206.947 171.554 206.532 171.794L202.071 174.371C201.655 174.611 201.018 174.639 200.658 174.427Z" fill="#131750"/>
<path d="M207.612 178.445L203.105 175.84C202.745 175.627 202.791 175.267 203.207 175.027L207.668 172.45C208.083 172.21 208.721 172.182 209.081 172.394L213.588 174.999C213.948 175.212 213.902 175.572 213.487 175.812L209.026 178.389C208.61 178.629 207.973 178.657 207.612 178.445Z" fill="#131750"/>
<path d="M214.567 182.462L210.06 179.858C209.7 179.645 209.746 179.285 210.162 179.045L214.623 176.468C215.038 176.228 215.676 176.2 216.036 176.412L220.543 179.017C220.903 179.23 220.857 179.59 220.441 179.83L215.98 182.407C215.565 182.647 214.927 182.675 214.567 182.462Z" fill="#131750"/>
<path d="M221.522 186.471L217.015 183.866C216.655 183.654 216.701 183.294 217.116 183.054L221.578 180.477C221.993 180.236 222.63 180.209 222.991 180.421L227.498 183.026C227.858 183.238 227.812 183.599 227.396 183.839L222.935 186.416C222.52 186.656 221.882 186.684 221.522 186.471Z" fill="#131750"/>
<path d="M228.477 190.489L223.97 187.884C223.61 187.672 223.656 187.312 224.071 187.072L228.533 184.495C228.948 184.254 229.585 184.227 229.946 184.439L234.453 187.044C234.813 187.256 234.767 187.617 234.351 187.857L229.89 190.434C229.475 190.674 228.837 190.702 228.477 190.489Z" fill="#131750"/>
<path d="M235.432 194.507L230.925 191.902C230.564 191.69 230.611 191.33 231.026 191.09L235.487 188.513C235.903 188.272 236.54 188.245 236.9 188.457L241.408 191.062C241.768 191.274 241.722 191.635 241.306 191.875L236.845 194.452C236.429 194.692 235.792 194.72 235.432 194.507Z" fill="#131750"/>
<path d="M242.387 198.525L237.879 195.92C237.519 195.708 237.565 195.348 237.981 195.108L242.442 192.531C242.858 192.29 243.495 192.263 243.855 192.475L248.363 195.08C248.723 195.292 248.677 195.653 248.261 195.893L243.8 198.47C243.384 198.71 242.747 198.738 242.387 198.525Z" fill="#131750"/>
<path d="M249.342 202.534L244.834 199.929C244.474 199.717 244.52 199.356 244.936 199.116L249.397 196.539C249.813 196.299 250.45 196.271 250.81 196.484L255.317 199.089C255.678 199.301 255.632 199.661 255.216 199.901L250.755 202.479C250.339 202.719 249.702 202.746 249.342 202.534Z" fill="#131750"/>
<path d="M256.297 206.552L251.789 203.947C251.429 203.735 251.475 203.374 251.891 203.134L256.352 200.557C256.768 200.317 257.405 200.289 257.765 200.502L262.272 203.107C262.633 203.319 262.586 203.679 262.171 203.919L257.71 206.496C257.294 206.737 256.657 206.764 256.297 206.552Z" fill="#131750"/>
<path d="M160.895 174.925L147.632 167.268C147.272 167.056 147.318 166.695 147.734 166.455L152.195 163.878C152.611 163.638 153.248 163.61 153.608 163.823L166.871 171.48C167.231 171.692 167.185 172.053 166.77 172.293L162.309 174.87C161.893 175.11 161.256 175.138 160.895 174.925Z" fill="#131750"/>
<path d="M246.34 224.259L233.077 216.601C232.717 216.389 232.763 216.029 233.178 215.789L237.639 213.212C238.055 212.971 238.692 212.944 239.053 213.156L252.316 220.813C252.676 221.026 252.63 221.386 252.214 221.626L247.753 224.203C247.338 224.443 246.7 224.471 246.34 224.259Z" fill="#131750"/>
<path d="M218.52 217.073L214.013 214.468C213.653 214.255 213.699 213.895 214.115 213.655L219.435 210.588C219.85 210.348 220.488 210.321 220.848 210.533L225.355 213.138C225.715 213.35 225.669 213.71 225.254 213.951L219.933 217.017C219.518 217.257 218.881 217.285 218.52 217.073Z" fill="#131750"/>
<path d="M168.017 187.903L160.812 183.746C160.452 183.534 160.498 183.174 160.914 182.934L166.234 179.867C166.65 179.627 167.287 179.599 167.647 179.812L174.851 183.968C175.212 184.181 175.165 184.541 174.75 184.781L169.43 187.848C169.014 188.088 168.377 188.115 168.017 187.903Z" fill="#131750"/>
<path d="M211.824 213.202L204.62 209.046C204.26 208.833 204.306 208.473 204.721 208.233L210.042 205.166C210.457 204.926 211.094 204.899 211.455 205.111L218.659 209.268C219.019 209.48 218.973 209.84 218.557 210.08L213.237 213.147C212.822 213.387 212.184 213.415 211.824 213.202Z" fill="#131750"/>
<path d="M178.047 193.704L170.843 189.547C170.483 189.335 170.529 188.974 170.944 188.734L176.265 185.668C176.68 185.427 177.317 185.4 177.678 185.612L184.882 189.769C185.242 189.981 185.196 190.341 184.78 190.582L179.46 193.648C179.045 193.888 178.407 193.916 178.047 193.704Z" fill="#131750"/>
<path d="M177.724 185.631L209.035 203.716C209.423 203.938 209.423 204.307 209.035 204.529L203.613 207.66C203.225 207.882 202.597 207.882 202.209 207.66L170.898 189.584L177.724 185.64V185.631Z" fill="#131750"/>
<path d="M237.963 224.351L242.978 227.251C243.274 227.427 243.237 227.723 242.895 227.916L240.724 229.173C240.383 229.367 239.865 229.394 239.57 229.219L234.555 226.319C234.259 226.143 234.296 225.847 234.638 225.653L236.808 224.397C237.15 224.203 237.667 224.176 237.963 224.351Z" fill="#131750"/>
<path d="M230.952 220.305L235.968 223.206C236.263 223.381 236.226 223.677 235.885 223.871L233.714 225.127C233.372 225.321 232.855 225.349 232.56 225.173L227.544 222.273C227.249 222.097 227.286 221.802 227.627 221.608L229.798 220.352C230.14 220.158 230.657 220.13 230.952 220.305Z" fill="#131750"/>
<path d="M223.997 216.287L229.013 219.188C229.308 219.363 229.271 219.659 228.93 219.853L226.759 221.109C226.417 221.303 225.9 221.331 225.604 221.155L220.589 218.255C220.294 218.079 220.331 217.784 220.672 217.59L222.843 216.334C223.185 216.14 223.702 216.112 223.997 216.287Z" fill="#131750"/>
<path d="M234.795 218.079L239.81 220.98C240.106 221.155 240.069 221.451 239.727 221.645L237.556 222.901C237.215 223.095 236.697 223.123 236.402 222.947L231.387 220.047C231.091 219.871 231.128 219.576 231.47 219.382L233.64 218.126C233.982 217.932 234.499 217.904 234.795 218.079Z" fill="#131750"/>
</g>
<path d="M308.398 209.96L175.526 133.24C173.438 132.03 172.348 129.093 173.087 126.673L203.133 29.105C203.881 26.6849 206.171 25.7058 208.268 26.9066L341.141 103.627C343.228 104.837 344.318 107.774 343.579 110.194L313.534 207.762C312.785 210.182 310.495 211.161 308.398 209.96Z" fill="url(#paint1_linear_16_1437)"/>
<path d="M307.142 206.543L178.259 132.067C176.264 130.912 175.221 128.095 175.932 125.786L204.657 32.5133C205.368 30.1949 207.566 29.2527 209.57 30.4073L338.453 104.883C340.448 106.038 341.492 108.855 340.78 111.164L312.056 204.437C311.344 206.755 309.146 207.697 307.142 206.543Z" fill="url(#paint2_linear_16_1437)"/>
<path d="M307.142 206.543L178.259 132.067C176.264 130.912 175.221 128.095 175.932 125.786L204.657 32.5133C205.368 30.1949 207.566 29.2527 209.57 30.4073L338.453 104.883C340.448 106.038 341.492 108.855 340.78 111.164L312.056 204.437C311.344 206.755 309.146 207.697 307.142 206.543Z" fill="#131750"/>
<g style="mix-blend-mode:multiply" opacity="0.4">
<path d="M307.142 206.543L178.259 132.067C176.264 130.912 175.221 128.095 175.932 125.786L204.657 32.5133C205.368 30.1949 207.566 29.2527 209.57 30.4073L338.453 104.883C340.448 106.038 341.492 108.855 340.78 111.164L312.056 204.437C311.344 206.755 309.146 207.697 307.142 206.543Z" stroke="#402083" stroke-width="2" stroke-miterlimit="10"/>
</g>
<path opacity="0.5" d="M300.224 178.038L212.978 127.661C211.602 126.867 210.891 124.936 211.381 123.347L231.109 59.2814C231.599 57.6927 233.104 57.0461 234.48 57.8404L321.726 108.218C323.102 109.012 323.813 110.942 323.324 112.531L303.595 176.597C303.106 178.186 301.6 178.832 300.224 178.038Z" fill="#131750"/>
<path d="M288.439 179.581L201.193 129.203C199.817 128.409 199.106 126.479 199.595 124.89L219.324 60.8239C219.813 59.2352 221.319 58.5886 222.695 59.383L309.941 109.76C311.317 110.555 312.028 112.485 311.538 114.074L291.81 178.14C291.32 179.728 289.815 180.375 288.439 179.581Z" fill="url(#paint3_radial_16_1437)"/>
<g opacity="0.5">
<path d="M288.439 179.581L201.193 129.203C199.817 128.409 199.106 126.479 199.595 124.89L219.324 60.8239C219.813 59.2352 221.319 58.5886 222.695 59.383L309.941 109.76C311.317 110.555 312.028 112.485 311.538 114.074L291.81 178.14C291.32 179.728 289.815 180.375 288.439 179.581Z" fill="#131750"/>
</g>
<path d="M309.931 109.769L222.686 59.3922C221.827 58.8934 220.912 58.9673 220.229 59.4754C220.645 59.4661 221.07 59.5585 221.485 59.7986L308.731 110.176C310.107 110.97 310.818 112.901 310.329 114.489L290.6 178.555C290.415 179.147 290.092 179.608 289.686 179.913C290.618 179.885 291.459 179.248 291.791 178.149L311.52 114.083C312.01 112.494 311.289 110.564 309.922 109.769H309.931Z" fill="white"/>
<g style="mix-blend-mode:multiply" opacity="0.4">
<path d="M178.398 231.898C177.197 231.898 176.043 231.648 175.165 231.14L140.206 210.958C139.283 210.422 138.775 209.655 138.775 208.806C138.775 207.817 139.476 206.838 140.705 206.136L158.697 195.745C160.895 194.48 164.119 194.35 166.049 195.459L200.999 215.641C201.923 216.177 202.431 216.943 202.44 217.793C202.44 218.781 201.738 219.76 200.51 220.462L182.517 230.854C181.326 231.547 179.83 231.898 178.398 231.898ZM162.826 195.726C161.56 195.726 160.221 196.031 159.196 196.622L141.204 207.014C140.299 207.54 139.781 208.196 139.781 208.815C139.781 209.434 140.289 209.849 140.714 210.09L175.673 230.272C177.262 231.186 180.162 231.057 182.009 229.986L200.002 219.594C200.907 219.068 201.424 218.421 201.424 217.793C201.424 217.165 200.916 216.759 200.491 216.518L165.541 196.336C164.83 195.93 163.86 195.726 162.826 195.726Z" stroke="#402083" stroke-width="2" stroke-miterlimit="10"/>
</g>
<path d="M243.938 93.0047L238.544 89.8919C238.046 89.6056 237.778 88.9128 237.944 88.3402C238.11 87.7767 238.655 87.5458 239.154 87.8321L244.548 90.9449C245.047 91.2313 245.315 91.924 245.148 92.4967C244.982 93.0601 244.437 93.2911 243.938 93.0047Z" fill="white"/>
<path d="M256.786 100.422L248.834 95.8312C248.335 95.5448 248.067 94.8521 248.233 94.2794C248.399 93.7159 248.944 93.485 249.443 93.7714L257.396 98.362C257.894 98.6484 258.162 99.3411 257.996 99.9138C257.83 100.477 257.285 100.708 256.786 100.422Z" fill="white"/>
<path d="M233.058 117.02L227.664 113.907C227.165 113.621 226.898 112.928 227.064 112.356C227.23 111.792 227.775 111.561 228.274 111.848L233.668 114.96C234.166 115.247 234.434 115.94 234.268 116.512C234.102 117.076 233.557 117.307 233.058 117.02Z" fill="white"/>
<path d="M244.511 123.634L236.559 119.043C236.06 118.757 235.792 118.064 235.958 117.491C236.124 116.928 236.669 116.697 237.168 116.983L245.121 121.574C245.619 121.86 245.887 122.553 245.721 123.126C245.555 123.689 245.01 123.92 244.511 123.634Z" fill="white"/>
<path d="M227.784 88.7281L224.413 86.7791C223.914 86.4928 223.646 85.8001 223.813 85.2274C223.979 84.6639 224.524 84.433 225.023 84.7194L228.394 86.6683C228.893 86.9547 229.16 87.6474 228.994 88.2201C228.828 88.7835 228.283 89.0144 227.784 88.7281Z" fill="white"/>
<path d="M237.916 99.6275L227.618 93.679C227.119 93.3927 226.851 92.6999 227.018 92.1272C227.184 91.5638 227.729 91.3329 228.228 91.6192L238.526 97.5677C239.025 97.854 239.293 98.5468 239.126 99.1194C238.96 99.6829 238.415 99.9138 237.916 99.6275Z" fill="white"/>
<path d="M228.422 104.246L225.05 102.297C224.552 102.011 224.284 101.318 224.45 100.745C224.616 100.182 225.161 99.9507 225.66 100.237L229.031 102.186C229.53 102.472 229.798 103.165 229.631 103.738C229.465 104.301 228.92 104.532 228.422 104.246Z" fill="white"/>
<path d="M245.758 134.45L236.762 129.25C236.263 128.963 235.995 128.271 236.161 127.698C236.328 127.134 236.873 126.904 237.371 127.19L246.368 132.39C246.866 132.676 247.134 133.369 246.968 133.942C246.802 134.505 246.257 134.736 245.758 134.45Z" fill="white"/>
<path d="M224.644 112.162L222.483 110.915C221.984 110.628 221.716 109.936 221.882 109.363C222.049 108.8 222.593 108.569 223.092 108.855L225.254 110.102C225.752 110.388 226.02 111.081 225.854 111.654C225.688 112.217 225.143 112.448 224.644 112.162Z" fill="white"/>
<path d="M222.603 121.075L219.915 119.523C219.416 119.237 219.148 118.544 219.315 117.972C219.481 117.408 220.026 117.177 220.525 117.464L223.212 119.015C223.711 119.302 223.979 119.994 223.813 120.567C223.646 121.131 223.102 121.361 222.603 121.075Z" fill="white"/>
<path d="M233.049 127.107L225.965 123.015C225.466 122.729 225.198 122.036 225.364 121.463C225.531 120.9 226.076 120.669 226.574 120.955L233.658 125.047C234.157 125.333 234.425 126.026 234.259 126.599C234.093 127.162 233.548 127.393 233.049 127.107Z" fill="white"/>
<path d="M223.72 126.774L218.631 123.837C218.132 123.551 217.864 122.858 218.031 122.285C218.197 121.722 218.742 121.491 219.241 121.777L224.33 124.714C224.829 125.001 225.096 125.694 224.93 126.266C224.764 126.83 224.219 127.061 223.72 126.774Z" fill="white"/>
<path d="M253.479 138.93L250.21 137.045C249.711 136.759 249.443 136.066 249.609 135.494C249.776 134.93 250.321 134.699 250.819 134.986L254.089 136.87C254.588 137.156 254.856 137.849 254.689 138.422C254.523 138.985 253.978 139.216 253.479 138.93Z" fill="white"/>
<path d="M240.955 111.478L231.959 106.278C231.46 105.992 231.192 105.299 231.359 104.726C231.525 104.163 232.07 103.932 232.569 104.218L241.565 109.418C242.063 109.705 242.331 110.397 242.165 110.97C241.999 111.534 241.454 111.765 240.955 111.478Z" fill="white"/>
<path d="M242.027 107.045L226.343 97.9925C225.845 97.7062 225.577 97.0135 225.743 96.4408C225.909 95.8773 226.454 95.6464 226.953 95.9328L242.636 104.985C243.135 105.271 243.403 105.964 243.236 106.537C243.07 107.1 242.525 107.331 242.027 107.045Z" fill="#E8975B"/>
<path d="M232.772 111.801L223.776 106.601C223.277 106.315 223.009 105.622 223.175 105.049C223.342 104.486 223.887 104.255 224.385 104.541L233.381 109.742C233.88 110.028 234.148 110.721 233.982 111.293C233.816 111.857 233.271 112.088 232.772 111.801Z" fill="#E8975B"/>
<path d="M247.781 115.422L244.511 113.538C244.012 113.252 243.744 112.559 243.911 111.986C244.077 111.423 244.622 111.192 245.121 111.478L248.39 113.362C248.889 113.649 249.157 114.342 248.991 114.914C248.824 115.478 248.279 115.709 247.781 115.422Z" fill="#E8975B"/>
<path d="M281.05 114.425L261.69 103.248C261.192 102.962 260.924 102.269 261.09 101.696C261.256 101.133 261.801 100.902 262.3 101.188L281.659 112.365C282.158 112.651 282.426 113.344 282.26 113.917C282.093 114.48 281.548 114.711 281.05 114.425Z" fill="#E8975B"/>
<path d="M232.014 121.463L221.199 115.219C220.7 114.933 220.432 114.24 220.598 113.667C220.765 113.104 221.31 112.873 221.808 113.159L232.624 119.403C233.123 119.69 233.391 120.382 233.224 120.955C233.058 121.519 232.513 121.749 232.014 121.463Z" fill="#F8359E"/>
<path d="M233.649 87.0655L225.697 82.4748C225.198 82.1885 224.93 81.4957 225.096 80.9231C225.263 80.3596 225.808 80.1287 226.306 80.415L234.259 85.0057C234.758 85.292 235.025 85.9848 234.859 86.5575C234.693 87.1209 234.148 87.3518 233.649 87.0655Z" fill="#F8359E"/>
<path d="M222.058 130.866L212.849 125.546C212.35 125.259 212.083 124.567 212.249 123.994C212.415 123.431 212.96 123.2 213.459 123.486L222.667 128.806C223.166 129.093 223.434 129.785 223.268 130.358C223.101 130.922 222.557 131.152 222.058 130.866Z" fill="#E8975B"/>
<path d="M283.22 104.467L279.276 102.195C278.907 101.983 278.713 101.475 278.842 101.059C278.962 100.643 279.359 100.477 279.729 100.69L283.673 102.962C284.042 103.174 284.236 103.682 284.107 104.098C283.987 104.514 283.59 104.68 283.22 104.467Z" fill="white"/>
<path d="M290.738 108.809L286.795 106.537C286.425 106.324 286.231 105.816 286.36 105.4C286.481 104.985 286.878 104.818 287.247 105.031L291.191 107.303C291.56 107.516 291.754 108.024 291.625 108.439C291.505 108.855 291.108 109.021 290.738 108.809Z" fill="white"/>
<path d="M98.4675 161.43C95.9737 161.43 93.4799 160.784 91.254 159.5L64.8476 144.25C63.7023 143.585 63.0188 142.403 63.0188 141.082C63.0188 139.761 63.7023 138.579 64.8476 137.914L91.254 122.664C95.7059 120.096 101.238 120.096 105.69 122.664L132.097 137.914C133.242 138.579 133.925 139.761 133.925 141.082C133.925 142.403 133.242 143.585 132.097 144.25L105.69 159.5C103.464 160.784 100.971 161.43 98.4767 161.43H98.4675ZM92.113 158.013C96.0384 160.276 100.906 160.276 104.831 158.013L131.238 142.763C131.847 142.412 132.207 141.784 132.207 141.082C132.207 140.38 131.847 139.752 131.238 139.401L104.831 124.151C100.906 121.888 96.0384 121.888 92.113 124.151L65.7065 139.401C65.0969 139.752 64.7367 140.38 64.7367 141.082C64.7367 141.784 65.0969 142.412 65.7065 142.763L92.113 158.013Z" fill="#B12FAE"/>
<path opacity="0.6" d="M111.167 148.85C104.083 152.942 92.5934 152.942 85.5092 148.85C78.425 144.758 78.425 138.126 85.5092 134.034C92.5934 129.942 104.083 129.942 111.167 134.034C118.252 138.126 118.252 144.758 111.167 148.85Z" fill="#2E3A72" fill-opacity="0.2"/>
<path d="M125.225 66.8001H73.5574L78.3602 122.747C78.3602 125.851 80.4107 128.963 84.5208 131.328C92.7318 136.066 106.05 136.066 114.261 131.328C118.372 128.954 120.422 125.851 120.422 122.738L125.225 66.7908V66.8001Z" fill="url(#paint4_radial_16_1437)"/>
<path d="M125.225 66.8001H73.5574L74.3517 75.9999C75.5339 77.5147 77.1318 78.9741 79.1361 80.3042C89.0096 86.853 105.302 88.1185 116.414 83.3985L114.696 124.317C114.622 126.1 114.003 127.836 112.848 129.194C111.177 131.162 107.953 133.48 101.756 134.792C106.328 134.496 110.761 133.342 114.261 131.319C118.372 128.945 120.422 125.841 120.422 122.729L124.274 77.8657L125.225 66.7908V66.8001Z" fill="#131750" fill-opacity="0.3"/>
<path opacity="0.4" d="M99.3911 81.7174C113.659 81.7174 125.225 75.0387 125.225 66.8001C125.225 58.5615 113.659 51.8828 99.3911 51.8828C85.1235 51.8828 73.5574 58.5615 73.5574 66.8001C73.5574 75.0387 85.1235 81.7174 99.3911 81.7174Z" fill="#131750"/>
<path opacity="0.4" d="M99.3912 74.3834C111.68 74.3834 121.641 68.6311 121.641 61.5351C121.641 54.4392 111.68 48.6868 99.3912 48.6868C87.1028 48.6868 77.1411 54.4392 77.1411 61.5351C77.1411 68.6311 87.1028 74.3834 99.3912 74.3834Z" fill="#131750"/>
<path d="M126.758 66.0981V66.0519C126.758 66.0242 126.758 65.9965 126.758 65.978L126.26 60.9717L126.241 61.0271C126.019 57.2401 123.406 53.4807 118.399 50.5896C107.907 44.5303 90.9032 44.5303 80.4108 50.5896C75.2755 53.5546 72.6616 57.4248 72.5508 61.3135L72.0797 65.7563C72.0705 65.8764 72.052 65.9872 72.0428 66.1073V66.1812C71.7565 70.4301 74.4257 74.7344 80.0414 77.9765C90.7369 84.1559 108.083 84.1559 118.778 77.9765C124.431 74.716 127.1 70.3747 126.777 66.0981H126.758Z" fill="url(#paint5_linear_16_1437)"/>
<path d="M99.3912 74.3834C111.68 74.3834 121.641 68.6311 121.641 61.5351C121.641 54.4392 111.68 48.6868 99.3912 48.6868C87.1028 48.6868 77.1411 54.4392 77.1411 61.5351C77.1411 68.6311 87.1028 74.3834 99.3912 74.3834Z" fill="url(#paint6_linear_16_1437)"/>
<path d="M98.3382 74.3834C110.627 74.3834 120.588 68.6311 120.588 61.5351C120.588 54.4392 110.627 48.6868 98.3382 48.6868C86.0499 48.6868 76.0881 54.4392 76.0881 61.5351C76.0881 68.6311 86.0499 74.3834 98.3382 74.3834Z" fill="url(#paint7_linear_16_1437)"/>
<path opacity="0.4" d="M86.2942 54.3674C94.9855 49.3519 109.071 49.3519 117.762 54.3674C117.873 54.4321 117.965 54.4968 118.076 54.5706C117.236 53.8225 116.257 53.1112 115.13 52.4554C106.438 47.4399 92.3532 47.4399 83.6619 52.4554C75.0814 57.4063 74.9891 65.3961 83.3479 70.4301C77.7692 65.4515 78.739 58.7364 86.2942 54.3767V54.3674Z" fill="#131750"/>
<path d="M83.6527 54.6815C92.344 49.6659 106.429 49.6659 115.121 54.6815C118.972 56.9075 121.115 59.7432 121.549 62.6528C122.094 59.0043 119.951 55.2449 115.121 52.4554C106.429 47.4399 92.344 47.4399 83.6527 52.4554C78.8129 55.2449 76.6793 59.0043 77.2242 62.6528C77.6583 59.7432 79.8011 56.9075 83.6527 54.6815Z" fill="url(#paint8_linear_16_1437)"/>
<path d="M118.547 50.7005C108.073 44.5303 91.0047 44.3825 80.42 50.3679C69.8352 56.3533 69.7521 66.2089 80.226 72.3791C90.6999 78.5492 107.768 78.697 118.353 72.7116C128.938 66.7262 129.021 56.8706 118.547 50.7005ZM115.121 70.6241C112.22 72.296 108.711 73.4044 105.007 73.9586L104.6 72.6285C104.434 72.0927 103.945 71.7233 103.381 71.7233H95.3919C94.8285 71.7233 94.339 72.0927 94.1727 72.6285L93.7663 73.9586C90.0626 73.4044 86.5528 72.296 83.6527 70.6241C74.9613 65.6086 74.9613 57.471 83.6527 52.4554C92.344 47.4399 106.429 47.4399 115.121 52.4554C123.812 57.471 123.812 65.6086 115.121 70.6241Z" fill="url(#paint9_radial_16_1437)"/>
<path d="M115.13 51.504C106.438 46.4885 92.3532 46.4885 83.6619 51.504C79.1084 54.1365 76.9471 57.6188 77.1688 61.0641C77.372 57.9328 79.5333 54.8385 83.6619 52.4554C92.3532 47.4399 106.438 47.4399 115.13 52.4554C119.268 54.8477 121.429 57.9328 121.632 61.0641C121.854 57.6188 119.692 54.1365 115.13 51.504Z" fill="white"/>
<path d="M118.353 71.7602C107.768 77.7456 90.6999 77.5978 80.226 71.4277C75.2384 68.4904 72.6523 64.7218 72.4491 60.9255C72.2459 65.0359 74.832 69.1924 80.226 72.3791C90.6999 78.5492 107.768 78.697 118.353 72.7116C123.895 69.5711 126.555 65.3776 126.324 61.2026C126.13 65.0543 123.479 68.8691 118.353 71.7602Z" fill="white"/>
<path d="M101.783 73.3582H96.999C96.6675 73.3582 96.3987 73.627 96.3987 73.9585V74.0509C96.3987 74.3825 96.6675 74.6513 96.999 74.6513H101.783C102.115 74.6513 102.384 74.3825 102.384 74.0509V73.9585C102.384 73.627 102.115 73.3582 101.783 73.3582Z" fill="#0C0A78"/>
<path d="M101.783 73.3582H97.0083C96.6758 73.3582 96.408 73.626 96.408 73.9585V74.0417C96.408 74.0971 96.4264 74.1525 96.4449 74.1987C96.5188 73.9493 96.7405 73.7553 97.0176 73.7553H101.793C102.07 73.7553 102.291 73.9401 102.365 74.1987C102.384 74.1433 102.402 74.0971 102.402 74.0417V73.9585C102.402 73.626 102.134 73.3582 101.802 73.3582H101.783Z" fill="url(#paint10_linear_16_1437)"/>
<path d="M90.9031 100.68L84.6594 107.931L91.0232 113.335V110.545L87.3379 107.359L90.7553 103.488L90.9031 100.68Z" fill="white"/>
<path d="M101.894 101.013L108.147 108.255L101.783 113.658V110.869L105.459 107.682L101.368 103.35L101.894 101.013Z" fill="white"/>
<path d="M92.27 113.335L97.7194 101.336H100.278L94.108 113.335H92.27Z" fill="white"/>
<path opacity="0.5" d="M101.081 74.0047C101.081 74.0047 115.527 69.1647 109.68 52.5663C103.834 35.9679 92.4455 30.9061 97.0267 17.6329C97.0267 17.6329 89.8409 28.3845 96.5556 42.9231C103.27 57.4617 104.748 55.7991 104.665 62.7544C104.573 71.0213 97.8949 74.0047 97.8949 74.0047H101.072H101.081Z" fill="white"/>
<path opacity="0.5" d="M102.384 19.9329C102.384 19.9329 100.878 10.0034 110.198 0C110.198 0 101.959 18.3996 104.656 27.4793C104.656 27.4793 102.476 21.7063 102.384 19.9329Z" fill="white"/>
</g>
<defs>
<linearGradient id="paint0_linear_16_1437" x1="194.406" y1="264.583" x2="194.406" y2="131.909" gradientUnits="userSpaceOnUse">
<stop stop-color="#3D1F81"/>
<stop offset="1" stop-color="#6B34A6"/>
</linearGradient>
<linearGradient id="paint1_linear_16_1437" x1="258.338" y1="210.479" x2="258.338" y2="26.3939" gradientUnits="userSpaceOnUse">
<stop stop-color="#3D1F81"/>
<stop offset="1" stop-color="#6B34A6"/>
</linearGradient>
<linearGradient id="paint2_linear_16_1437" x1="175.71" y1="118.48" x2="341.011" y2="118.48" gradientUnits="userSpaceOnUse">
<stop stop-color="#3919BB"/>
<stop offset="1" stop-color="#6507FA"/>
</linearGradient>
<radialGradient id="paint3_radial_16_1437" cx="0" cy="0" r="1" gradientUnits="userSpaceOnUse" gradientTransform="translate(77.7323 20.2654) scale(321.283 321.3)">
<stop stop-color="#E39A65"/>
<stop offset="0.47" stop-color="#A92FFB"/>
<stop offset="0.59" stop-color="#881BFA"/>
<stop offset="0.73" stop-color="#6507FA"/>
<stop offset="1" stop-color="#3919BB"/>
</radialGradient>
<radialGradient id="paint4_radial_16_1437" cx="0" cy="0" r="1" gradientUnits="userSpaceOnUse" gradientTransform="translate(69.2995 83.2415) scale(152.721 152.729)">
<stop stop-color="#E39A65"/>
<stop offset="0.15" stop-color="#A92FFB"/>
<stop offset="0.41" stop-color="#3919BB"/>
<stop offset="0.93" stop-color="#3919BB"/>
</radialGradient>
<linearGradient id="paint5_linear_16_1437" x1="72.0058" y1="64.3246" x2="126.786" y2="64.3246" gradientUnits="userSpaceOnUse">
<stop stop-color="#E39A65"/>
<stop offset="0.25" stop-color="#A92FFB"/>
<stop offset="0.56" stop-color="#3919BB"/>
</linearGradient>
<linearGradient id="paint6_linear_16_1437" x1="77.1411" y1="61.5351" x2="121.641" y2="61.5351" gradientUnits="userSpaceOnUse">
<stop stop-color="#4F1FEC"/>
<stop offset="1" stop-color="#A92FFB"/>
</linearGradient>
<linearGradient id="paint7_linear_16_1437" x1="98.3394" y1="74.3843" x2="98.3394" y2="48.6868" gradientUnits="userSpaceOnUse">
<stop stop-color="#3D1F81"/>
<stop offset="1" stop-color="#6B34A6"/>
</linearGradient>
<linearGradient id="paint8_linear_16_1437" x1="77.1411" y1="55.6698" x2="133.251" y2="55.6698" gradientUnits="userSpaceOnUse">
<stop stop-color="#131060"/>
<stop offset="0.19" stop-color="#140F62"/>
<stop offset="0.28" stop-color="#190F6A"/>
<stop offset="0.36" stop-color="#220F77"/>
<stop offset="0.42" stop-color="#2E0F8A"/>
<stop offset="0.48" stop-color="#3D0EA3"/>
<stop offset="0.54" stop-color="#510EC1"/>
<stop offset="0.58" stop-color="#670DE5"/>
<stop offset="0.61" stop-color="#740DF8"/>
<stop offset="0.62" stop-color="#7A14EF"/>
<stop offset="0.68" stop-color="#9B3BC2"/>
<stop offset="0.75" stop-color="#B75C9D"/>
<stop offset="0.81" stop-color="#CC7680"/>
<stop offset="0.88" stop-color="#DB886B"/>
<stop offset="0.94" stop-color="#E4935F"/>
<stop offset="1" stop-color="#E8975B"/>
</linearGradient>
<radialGradient id="paint9_radial_16_1437" cx="0" cy="0" r="1" gradientUnits="userSpaceOnUse" gradientTransform="translate(65.1617 48.8254) scale(99.8992 99.9046)">
<stop stop-color="#E39A65"/>
<stop offset="0.25" stop-color="#A92FFB"/>
<stop offset="0.74" stop-color="#3919BB"/>
</radialGradient>
<linearGradient id="paint10_linear_16_1437" x1="95.8723" y1="73.783" x2="103.631" y2="73.783" gradientUnits="userSpaceOnUse">
<stop stop-color="#131060"/>
<stop offset="0.19" stop-color="#140F62"/>
<stop offset="0.28" stop-color="#190F6A"/>
<stop offset="0.36" stop-color="#220F77"/>
<stop offset="0.42" stop-color="#2E0F8A"/>
<stop offset="0.48" stop-color="#3D0EA3"/>
<stop offset="0.54" stop-color="#510EC1"/>
<stop offset="0.58" stop-color="#670DE5"/>
<stop offset="0.61" stop-color="#740DF8"/>
<stop offset="0.62" stop-color="#7A14EF"/>
<stop offset="0.68" stop-color="#9B3BC2"/>
<stop offset="0.75" stop-color="#B75C9D"/>
<stop offset="0.81" stop-color="#CC7680"/>
<stop offset="0.88" stop-color="#DB886B"/>
<stop offset="0.94" stop-color="#E4935F"/>
<stop offset="1" stop-color="#E8975B"/>
</linearGradient>
<clipPath id="clip0_16_1437">
<rect width="405" height="300" fill="white"/>
</clipPath>
</defs>
</svg>
