<svg width="670" height="563" viewBox="0 0 670 563" fill="none" xmlns="http://www.w3.org/2000/svg">
<g clip-path="url(#clip0_14_5223)">
<circle cx="253" cy="253" r="253" fill="#B12FAE" fill-opacity="0.08"/>
<circle cx="253" cy="253" r="252.75" stroke="#B12FAE" stroke-opacity="0.32" stroke-width="0.5"/>
<path d="M171.452 277.858C166.386 269.133 157.423 265.542 157.423 265.542L154.298 267.005L161.332 279.773C160.388 284.681 157.024 287.381 157.024 287.381V287.354C157.024 287.354 152.782 288.205 148.42 285.771L143.14 272.178L140.015 273.641C140.015 273.641 137.023 282.819 140.454 292.315C140.454 292.315 141.784 295.387 142.023 295.667C143.26 297.116 146.492 298.779 152.742 298.393L174.285 339.504C172.489 342.59 172.184 346.46 173.806 349.918C176.439 355.557 183.141 357.991 188.78 355.358C194.418 352.724 196.852 346.021 194.219 340.382C192.596 336.91 189.431 334.663 185.921 334.064L168.221 291.171C172.436 286.729 173.327 283.231 173.008 281.209C172.942 280.784 171.439 277.858 171.439 277.858H171.452ZM189.179 348.761L183.474 351.434L178.314 347.83L178.859 341.552L184.564 338.879L189.724 342.483L189.179 348.761Z" fill="url(#paint0_linear_14_5223)"/>
<path d="M173.021 281.209C167.955 272.484 158.992 268.893 158.992 268.893L155.867 270.356L162.901 283.124C161.957 288.032 158.593 290.732 158.593 290.732V290.706C158.593 290.706 154.351 291.557 149.989 289.123L144.71 275.53L141.584 276.993C141.584 276.993 138.592 286.17 142.023 295.667C142.023 295.667 146.89 302.197 154.298 301.745L175.841 342.856C174.045 345.941 173.739 349.812 175.362 353.27C177.995 358.909 184.697 361.343 190.336 358.709C195.974 356.076 198.408 349.373 195.774 343.733C194.152 340.262 190.987 338.014 187.476 337.416L169.777 294.523C174.883 289.136 172.995 281.209 172.995 281.209H173.021ZM190.748 352.112L185.043 354.786L179.883 351.181L180.428 344.904L186.133 342.23L191.293 345.835L190.748 352.112Z" fill="url(#paint1_linear_14_5223)"/>
<path d="M143.128 272.206L140.008 273.664L141.572 277.014L144.693 275.556L143.128 272.206Z" fill="#E5E2FF"/>
<path d="M157.403 265.562L154.282 267.02L155.847 270.37L158.968 268.912L157.403 265.562Z" fill="#E5E2FF"/>
<path d="M189.176 348.784L183.465 351.452L185.03 354.802L190.741 352.134L189.176 348.784Z" fill="#E5E2FF"/>
<path d="M158.912 304.79L176.319 338.24C180.894 338.453 183.341 334.955 183.341 334.955L169.178 299.989C162.822 299.75 158.912 304.79 158.912 304.79ZM181.998 335.235C181.492 335.673 180.721 336.259 179.75 336.711C178.979 337.07 178.168 337.309 177.343 337.429L159.909 304.671C160.76 303.913 162.223 302.795 164.098 301.918C165.508 301.266 166.944 300.84 168.407 300.641L181.998 335.235Z" fill="url(#paint2_linear_14_5223)"/>
<path d="M181.998 335.234L183.341 334.955C183.341 334.955 181.346 338.493 176.319 338.24L177.343 337.429C177.343 337.429 179.817 337.136 181.998 335.234Z" fill="#E5E2FF"/>
<path style="mix-blend-mode:multiply" opacity="0.62" d="M158.912 304.79L159.909 304.657C159.909 304.657 162.888 301.572 168.407 300.641L169.165 300.002C169.165 300.002 166.944 299.617 163.487 301.226C160.029 302.835 158.899 304.79 158.899 304.79H158.912Z" fill="url(#paint3_linear_14_5223)"/>
<path style="mix-blend-mode:multiply" opacity="0.62" d="M154.298 301.745C154.298 301.745 162.662 300.255 169.803 294.523L172.064 300.002C172.064 300.002 169.497 297.462 163.859 299.763C157.276 302.45 157.635 307.743 157.635 307.743L154.298 301.731V301.745Z" fill="url(#paint4_linear_14_5223)"/>
<path style="mix-blend-mode:screen" opacity="0.5" d="M172.064 300.016C170.455 298.859 168.62 298.832 168.62 298.832L185.468 339.53L187.503 337.429L172.077 300.029L172.064 300.016Z" fill="url(#paint5_linear_14_5223)"/>
<path d="M172.064 300.016C172.064 300.016 170.295 305.455 175.375 308.036L172.064 300.016Z" fill="white"/>
<path d="M425.633 563H363.132C356.589 526.664 341.376 479.382 341.376 479.382C337.679 477.187 330.458 479.887 330.458 479.887L307.612 563H250.51C247.478 511.715 275.537 453.5 275.537 453.5C275.444 453.287 274.553 451.505 274.792 450.308C274.885 449.789 275.843 448.805 276.92 447.834C278.462 446.424 280.298 445.014 280.298 445.014L386.829 444.349C386.829 444.349 387.906 444.894 389.276 445.719H389.289C391.616 447.129 394.768 449.31 394.768 450.906C394.768 453.101 393.904 454.524 393.691 454.843L393.638 454.909C416.484 498.029 425.646 563 425.646 563H425.633Z" fill="url(#paint6_linear_14_5223)"/>
<path style="mix-blend-mode:screen" opacity="0.5" d="M303.394 525.685C311.04 492.538 306.841 463.269 294.017 460.31C281.192 457.352 264.599 481.824 256.953 514.97C249.308 548.116 253.507 577.385 266.331 580.344C279.155 583.303 295.749 558.831 303.394 525.685Z" fill="url(#paint7_radial_14_5223)"/>
<path style="mix-blend-mode:screen" opacity="0.5" d="M407.41 579.072C420.083 575.521 422.919 546.089 413.744 513.333C404.569 480.577 386.857 456.902 374.184 460.453C361.511 464.004 358.675 493.436 367.85 526.192C377.025 558.948 394.737 582.623 407.41 579.072Z" fill="url(#paint8_radial_14_5223)"/>
<path d="M300.205 563.066L299.553 562.96C306.827 520.134 325.272 484.223 325.458 483.864L325.538 483.771L330.232 479.661L330.671 480.167L326.017 484.236C325.192 485.859 307.319 521.158 300.205 563.093V563.066Z" fill="url(#paint9_linear_14_5223)"/>
<path d="M371.603 563.067C364.475 521.104 346.123 485.46 345.299 483.877L341.137 480.14L341.575 479.648L345.857 483.518C346.044 483.877 364.98 520.134 372.254 562.96L371.603 563.067Z" fill="url(#paint10_linear_14_5223)"/>
<path style="mix-blend-mode:multiply" opacity="0.76" d="M394.741 450.906C394.741 453.101 393.877 454.524 393.664 454.843L393.611 454.909C371.43 459.924 354.554 480.632 354.554 480.632C366.642 503.827 386.802 563 386.802 563H363.118C356.576 526.664 341.363 479.382 341.363 479.382C337.666 477.187 330.445 479.887 330.445 479.887L307.599 563H292.811C298.104 528.18 313.729 485.673 313.729 485.673C298.37 467.784 275.524 453.5 275.524 453.5L272.811 451.784L274.779 450.308C284.659 459.791 316.522 472.173 317.506 472.559L276.907 447.834C278.449 446.424 280.284 445.014 280.284 445.014L386.816 444.349C386.816 444.349 387.893 444.894 389.263 445.719L360.166 461.732L394.755 450.906H394.741Z" fill="url(#paint11_linear_14_5223)"/>
<path style="mix-blend-mode:multiply" opacity="0.76" d="M341.363 479.382L353.81 471.322L350.844 479.382L348.69 503.681L341.363 479.382Z" fill="url(#paint12_linear_14_5223)"/>
<path style="mix-blend-mode:multiply" opacity="0.76" d="M330.445 479.887L317.493 472.559L289.766 460.07L325.086 483.412L327.187 491.778L330.445 479.887Z" fill="url(#paint13_linear_14_5223)"/>
<path d="M366.084 230.03C366.164 230.602 366.23 230.908 366.23 230.908C365.579 233.621 364.834 236.135 364.023 238.436C361.416 245.924 358.172 251.244 355.738 254.556C353.624 257.415 352.121 258.785 352.121 258.785C332.719 252.694 323.158 233.714 319.487 224.271C319.461 224.231 319.447 224.178 319.434 224.125C318.729 222.343 318.264 220.906 317.971 219.975C317.745 219.217 317.639 218.805 317.639 218.805C317.719 218.645 317.798 218.472 317.878 218.313L317.918 218.246C318.237 217.581 318.556 216.903 318.849 216.251C321.389 210.692 323.078 205.491 324.168 201.395C325.112 197.91 325.618 195.224 325.857 193.8C325.977 193.069 326.03 192.67 326.03 192.67L335.073 197.445L366.23 213.937C365.765 216.796 365.579 219.483 365.565 221.837C365.539 223.5 365.592 224.989 365.685 226.253C365.778 227.796 365.938 229.019 366.057 229.817C366.057 229.91 366.071 229.964 366.084 230.03Z" fill="#FE9083"/>
<path d="M357.44 260.873C355.645 262.655 353.53 264.252 351.004 265.582C350.951 265.621 350.897 265.648 350.844 265.675C350.844 265.675 350.778 265.635 350.658 265.568C349.98 265.143 347.666 263.719 344.554 261.379C336.416 255.247 322.825 242.852 318.942 226.147C318.929 226.12 318.929 226.107 318.915 226.08C318.463 224.098 318.144 222.077 317.985 219.975C317.945 219.417 317.905 218.871 317.891 218.313C317.891 218.313 320.591 224.657 325.272 231.506C330.777 239.566 339.036 248.358 348.903 248.411C357.44 248.464 361.815 242.625 364.036 237.239C364.98 234.951 365.539 232.757 365.831 231.121C365.845 231.107 365.845 231.094 365.845 231.094C365.938 230.615 366.004 230.19 366.071 229.831C366.097 229.631 366.124 229.472 366.137 229.325C366.217 228.727 366.244 228.381 366.244 228.381C366.244 228.381 369.515 248.81 357.453 260.873H357.44Z" fill="url(#paint14_linear_14_5223)"/>
<path style="mix-blend-mode:multiply" opacity="0.5" d="M357.44 260.873C355.645 262.655 353.53 264.252 351.004 265.582H350.658V265.555C349.98 265.143 347.666 263.719 344.554 261.379C336.416 255.247 322.825 242.852 318.942 226.147C318.929 226.12 318.929 226.107 318.915 226.08C318.463 224.098 318.144 222.077 317.985 219.975C317.945 219.417 317.905 218.871 317.891 218.313C317.891 218.313 320.591 224.657 325.272 231.506C325.272 231.506 330.644 246.27 342.267 253.585C348.092 257.242 352.507 256.71 355.751 254.556C358.996 252.414 361.097 248.677 362.334 245.857C363.571 243.024 363.97 240.378 364.036 238.436C364.049 237.997 364.049 237.598 364.036 237.239C364.98 234.951 365.539 232.757 365.831 231.121C365.845 231.107 365.845 231.094 365.845 231.094C365.938 230.615 366.004 230.19 366.071 229.831C366.097 229.631 366.124 229.472 366.137 229.325C366.217 228.727 366.244 228.381 366.244 228.381C366.244 228.381 369.515 248.81 357.453 260.873H357.44Z" fill="url(#paint15_linear_14_5223)"/>
<path d="M432.123 381.493C431.976 381.559 431.91 381.599 431.91 381.599C430.819 381.732 427.428 380.987 422.987 377.143H422.973C422.973 377.143 422.96 377.103 422.934 377.09C422.934 377.077 422.907 377.05 422.88 377.037C419.157 373.778 414.689 368.339 410.234 359.428C401.324 341.619 398.771 329.728 398.359 327.653L398.305 327.334L393.106 335.58C389.582 346.181 382.906 390.045 383.026 391.933C383.146 393.822 388.943 403.026 388.824 404.156C388.824 404.156 388.824 404.169 388.811 404.183C388.651 405.326 386.044 407.84 385.3 410.58C384.794 412.402 388.332 418.148 390.819 422.444C392.108 424.691 393.106 426.527 393.106 427.219C393.106 429.227 386.802 439.056 386.802 439.056V444.349L386.709 444.442L386.417 444.708L386.177 444.908C383.784 446.796 373.637 452.981 341.935 454.683C304.367 456.692 279.34 444.602 279.34 444.602L281.228 439.428C281.228 439.428 279.473 437.925 279.34 437.167C279.22 436.409 280.723 434.64 280.723 434.64C280.723 434.64 276.946 432.632 276.946 430.105C276.946 427.578 284.513 419.784 284.26 413.094C284.008 406.417 278.21 400.498 277.452 396.721C276.694 392.944 287.279 383.621 287.279 383.621C278.21 354.892 276.441 316.335 276.441 316.335L274.686 314.313C274.686 314.313 263.848 339.012 254.02 351.102C252.85 352.538 251.613 353.961 250.337 355.331C247.597 358.297 244.685 361.077 241.879 363.511C235.071 369.443 228.887 373.34 227.318 373.034C224.791 372.528 214.711 352.618 215.176 332.202C215.389 322.493 221.24 311.627 227.318 302.915C227.969 301.984 228.621 301.066 229.286 300.175C233.594 294.31 237.73 289.708 239.712 287.607C240.483 286.782 240.922 286.343 240.922 286.343C240.922 286.343 239.539 281.888 238.595 278.017C238.581 277.924 238.555 277.831 238.528 277.738C238.528 277.698 238.515 277.645 238.501 277.605C238.488 277.538 238.475 277.512 238.475 277.512C237.916 275.131 237.571 273.07 237.89 272.564C238.728 271.221 243.608 269.705 244.446 268.707C245.284 267.696 248.808 250.725 251.494 248.877C254.074 247.108 258.608 245.817 273.728 239.872C274.473 239.58 275.231 239.287 276.029 238.968C292.984 232.251 309.62 224.098 309.62 224.098L316.003 216.251H318.849L317.918 218.246L317.878 218.313C318.33 220.334 318.849 222.276 319.434 224.125C319.447 224.178 319.461 224.231 319.487 224.271C328.264 251.962 350.844 260.887 350.844 260.887C366.536 249.302 366.23 230.908 366.23 230.908V228.381L369.169 229.259L371.177 234.047C371.177 234.047 374.581 239.34 388.066 245.272C390.393 246.296 392.893 247.586 395.473 249.063C407.814 256.072 421.537 266.912 422.588 269.212C422.694 269.452 422.814 269.824 422.947 270.356C424.396 276.062 427.375 297.382 430.141 304.99C431.87 309.738 434.596 312.358 436.604 313.715C436.604 313.715 436.613 313.719 436.631 313.728C438.12 314.752 439.211 315.071 439.211 315.071C439.423 316.242 439.623 317.399 439.809 318.543C445.594 355.012 434.596 379.764 432.123 381.493Z" fill="url(#paint16_linear_14_5223)"/>
<path style="mix-blend-mode:multiply" opacity="0.5" d="M287.399 312.651L276.441 316.335L274.686 314.313C274.686 314.313 263.848 339.012 254.02 351.102C252.85 352.538 251.613 353.961 250.337 355.331C247.597 358.297 244.685 361.077 241.879 363.511L233.528 327.507L229.286 300.175C233.594 294.31 237.73 289.708 239.712 287.607C240.483 286.782 240.922 286.343 240.922 286.343C240.922 286.343 239.539 281.888 238.595 278.017C238.581 277.924 238.555 277.831 238.528 277.738C238.528 277.698 238.515 277.645 238.501 277.605C238.488 277.538 238.475 277.512 238.475 277.512C237.916 275.131 237.571 273.07 237.89 272.564C238.728 271.221 243.608 269.705 244.446 268.707C245.283 267.696 248.808 250.725 251.494 248.877C251.494 248.877 249.738 265.169 259.06 285.838L263.595 292.222L276.867 302.889C276.867 302.889 281.907 309.579 287.399 312.651Z" fill="url(#paint17_linear_14_5223)"/>
<path d="M255.696 342.124C253.342 359.587 227.318 373.034 227.318 373.034C221.52 373.034 215.044 362.952 209.166 350.516C203.288 338.081 202.929 302.357 202.623 300.149C202.304 297.941 199.033 293.525 198.833 291.637C198.647 289.748 204.126 285.838 204.126 285.838L204.086 285.745L204.046 285.652C203.474 284.428 200.256 277.525 200.482 276.262C200.735 274.878 206.892 271.859 206.892 271.859L207.277 278.656C207.277 278.656 221.613 275.942 226.467 264.837L227.318 261.432L229.711 263.028V277.645C229.711 277.645 230.203 279.919 230.961 279.919C231.719 279.919 237.305 277.126 238.475 277.512C239.658 277.898 240.815 285.718 242.385 286.716C243.94 287.726 248.103 290.626 248.728 292.009C249.007 292.634 249.034 294.882 249.06 297.529C249.1 300.774 249.127 304.604 249.605 306.759C250.496 310.656 258.05 324.648 255.696 342.124Z" fill="url(#paint18_linear_14_5223)"/>
<path d="M493.72 327.161C492.549 329.01 486.672 332.88 485.156 334.397C483.64 335.9 485.156 340.874 485.156 340.874C460.461 367.088 434.716 380.216 432.123 381.493C431.976 381.559 431.91 381.599 431.91 381.599C416.404 371.172 417.734 354.001 422.88 339.53C427.801 325.645 436.232 314.247 436.604 313.755H436.617C436.617 313.755 436.617 313.741 436.631 313.728C436.91 313.622 441.338 311.786 444.503 311.547C445.554 311.467 446.511 311.879 447.415 312.451C449.304 313.622 450.9 315.47 452.442 314.699C454.716 313.555 459.796 301.545 463.24 301.213C465.647 300.987 468.985 303.434 471.206 304.83C472.177 305.442 472.935 305.854 473.307 305.748C474.57 305.416 478.852 300.282 479.198 300.149C479.531 300.002 481.485 301.439 481.485 301.439L480.116 303.141C482.217 315.244 489.105 323.384 489.105 323.384L493.72 316.628C493.72 316.628 494.903 325.313 493.72 327.161Z" fill="url(#paint19_linear_14_5223)"/>
<path d="M366.15 229.511C366.124 229.684 366.097 229.857 366.084 230.03C366.017 230.389 365.938 230.735 365.831 231.094C365.831 231.094 365.831 231.107 365.818 231.121C364.236 236.986 357.839 242.985 349.767 240.098C340.95 236.946 324.168 201.395 324.168 201.395L325.857 193.801L365.685 226.253L366.124 229.325L366.15 229.511Z" fill="#CB4D7A"/>
<path d="M233.528 223.008C233.528 223.008 231.094 209.561 232.185 199.653C233.275 189.744 231.906 178.479 231.906 178.479C231.906 178.479 229.499 177.468 227.73 178.479C225.961 179.49 221.852 189.731 223.701 197.963C225.549 206.196 224.126 225.934 224.126 225.934H221.36L215.309 217.621L212.371 216.783C212.371 216.783 195.442 232.743 195.695 242.24L197.902 250.685L218.74 249.967L232.344 234.433L233.515 223.008H233.528Z" fill="#EE8183"/>
<path d="M212.371 216.797C212.371 216.797 212.809 227.383 215.176 236.454C215.176 236.454 214.778 240.165 210.429 240.418L209.352 239.221C209.352 239.221 208.594 243.437 204.751 243.756L201.094 240.098L202.038 243.118C202.038 243.118 200.721 246.336 197.251 246.203C197.251 246.203 191.453 241.668 191.08 235.749L196.812 230.895V227.184L203.62 222.396L203.74 219.683C203.74 219.683 207.73 216.717 212.344 216.783L212.371 216.797Z" fill="url(#paint20_linear_14_5223)"/>
<path style="mix-blend-mode:multiply" opacity="0.6" d="M232.437 196.82C232.437 196.82 231.414 199.413 229.964 200.424C228.515 201.435 224.312 202.206 224.312 202.206L224.126 225.96H221.36L215.309 217.648C215.309 217.648 218.381 222.396 218.568 225.96L216.174 227.131L214.099 220.015L213.115 225.136L214.099 231.506C214.099 231.506 217.69 228.421 224.179 228.301L225.15 230.07C225.15 230.07 213.408 239.792 210.708 245.525C210.708 245.525 216.506 238.157 229.738 230.03L231.001 226.12L232.677 216.797C232.677 216.797 231.094 203.363 232.464 196.82H232.437Z" fill="url(#paint21_linear_14_5223)"/>
<path d="M242.265 238.21C241.174 241.482 229.751 255.088 228.488 258.04C227.225 260.98 226.467 264.837 226.467 264.837C220.855 276.98 207.277 278.656 207.277 278.656L206.652 267.696C206.652 267.696 199.352 263.493 198.115 261.192V261.153L197.955 260.767C197.583 258.626 197.902 250.685 197.902 250.685L210.682 245.512C216.227 238.329 229.711 230.017 229.711 230.017L230.336 226.253C220.655 221.491 222.278 207.087 223.913 205.318C225.549 203.563 228.568 203.563 228.568 203.563C228.568 203.563 232.105 215.147 234.366 220.574C236.64 225.987 243.355 234.938 242.265 238.21Z" fill="url(#paint22_linear_14_5223)"/>
<path d="M203.753 219.696C203.753 219.696 205.176 232.93 209.365 239.221C209.365 239.221 204.059 232.624 203.634 222.396L203.753 219.683V219.696Z" fill="#E28183"/>
<path d="M196.825 227.197C196.825 227.197 198.208 237.851 204.764 243.769C204.764 243.769 198.966 240.87 196.825 230.921V227.211V227.197Z" fill="#E28183"/>
<path style="mix-blend-mode:multiply" opacity="0.91" d="M230.27 255.221C230.27 255.221 215.868 269.212 206.666 267.696L207.291 278.656C207.291 278.656 222.411 277.339 227.331 261.432C227.331 261.432 229.1 256.857 230.283 255.221H230.27Z" fill="url(#paint23_linear_14_5223)"/>
<path d="M534.838 274.24C534.838 274.24 521.606 298.433 506.114 305.868H500.821L488.6 324.395C488.6 324.395 480.701 319.434 480.116 303.141C480.116 303.141 482.882 300.255 483.56 296.997C483.56 296.997 479.198 293.565 478.015 291.051C476.844 288.524 476.419 280.97 475.581 277.858C474.743 274.745 467.602 268.281 466.006 267.444C464.411 266.606 457.19 266.18 457.19 266.18C457.19 266.18 456.179 263.573 457.19 262.323C458.2 261.059 469.451 256.684 475.581 260.887C475.581 260.887 476.007 264.079 476.671 265.768C477.35 267.444 482.722 273.402 483.56 273.402C484.398 273.402 488.015 270.383 489.611 268.029C491.14 265.768 499.265 248.251 501.233 242.333C501.246 242.266 501.26 242.213 501.286 242.16C501.313 242.067 501.353 241.974 501.366 241.894C501.393 241.827 501.406 241.774 501.419 241.721C501.433 241.694 501.446 241.681 501.446 241.655C502.962 236.534 511.779 226.705 516.486 224.018C516.486 224.018 518.494 223.513 519.585 226.027C519.585 226.027 515.808 236.787 511.858 243.171C511.193 244.248 510.475 245.512 509.731 246.868H509.717C506.353 253.053 502.563 261.153 502.018 262.336L501.951 262.483L504.052 263.56L509.731 258.173L515.555 252.654L528.92 266.765L527.603 268.441L523.428 273.801L525.542 274.187L530.462 268.747L534.838 274.24Z" fill="url(#paint24_linear_14_5223)"/>
<path style="mix-blend-mode:multiply" opacity="0.6" d="M531.752 279.387L527.524 285.598C527.524 285.598 504.318 267.696 499.278 266.18C494.238 264.664 492.39 265.675 492.39 265.675L487.19 272.311C487.19 272.311 496.765 280.797 497.603 292.222C497.603 292.222 494.411 277.778 483.573 273.402C484.411 273.402 488.028 270.383 489.624 268.029C491.153 265.768 499.278 248.251 501.246 242.333C500.98 243.344 500.635 245.312 501.459 246.868C502.603 248.983 509.332 246.988 509.731 246.868H509.744L502.031 262.336L501.965 262.483L504.066 263.56L509.744 258.173L506.898 264.784L527.617 268.441L523.441 273.801L525.555 274.187L531.752 279.387Z" fill="url(#paint25_linear_14_5223)"/>
<path d="M515.569 252.667C515.569 252.667 519.598 252.082 522.204 257.282L521.619 258.958C521.619 258.958 525.542 259.729 529.345 266.1C529.345 266.1 525.981 272.232 517.67 274.998C517.67 274.998 513.8 273.907 513.135 270.636L513.893 268.534L510.874 270.809C510.874 270.809 507.257 271.899 505.661 266.526L515.569 252.667Z" fill="url(#paint26_linear_14_5223)"/>
<path d="M536.061 272.577C536.061 272.577 536.899 268.707 532.79 266.193L524.811 275.011C524.811 275.011 525.05 277.844 528.508 278.456C528.508 278.456 533.973 276.607 536.061 272.577Z" fill="url(#paint27_linear_14_5223)"/>
<path style="mix-blend-mode:multiply" opacity="0.91" d="M478.015 291.051C478.015 291.051 487.257 301.372 500.821 305.868L494.97 314.726L482.775 299.231L483.56 296.997C483.56 296.997 478.679 293.326 478.015 291.051Z" fill="url(#paint28_linear_14_5223)"/>
<path d="M521.606 258.958C521.606 258.958 517.736 265.342 513.88 268.534L513.122 270.636C513.122 270.636 520.622 265.568 523.375 259.729C523.375 259.729 522.484 259.091 521.593 258.958H521.606Z" fill="#E28183"/>
<path style="mix-blend-mode:multiply" opacity="0.5" d="M493.72 327.161C492.549 329.01 486.672 332.88 485.156 334.397C483.64 335.9 485.156 340.874 485.156 340.874C460.461 367.088 434.716 380.216 432.123 381.493C431.976 381.559 431.91 381.599 431.91 381.599C429.889 381.852 420.061 379.085 410.234 359.428C401.324 341.619 398.771 329.728 398.359 327.653L398.305 327.334L400.473 324.395L403.691 288.112L405.952 295.414C414.516 285.08 422.588 269.212 422.588 269.212L422.947 270.356C424.396 276.062 427.375 297.382 430.141 304.99C431.87 309.738 434.596 312.358 436.604 313.715V313.741V313.755C428.718 320.95 424.809 331.298 422.88 339.53C421.112 347.085 420.992 352.871 420.992 352.871C420.992 352.871 423.173 342.629 430.061 330.313C432.561 325.831 436.205 321.828 439.809 318.543C442.522 316.069 445.221 313.994 447.415 312.451C449.304 313.622 450.9 315.47 452.442 314.699C442.07 330.274 442.322 361.103 452.07 355.225C461.804 349.346 464.038 336.87 464.038 336.87C461.738 321.668 462.429 304.524 464.278 301.266C466.525 301.346 472.948 305.854 473.32 305.748C472.735 323.637 481.14 335.58 481.14 335.58L486.685 327.002C478.613 313.396 479.211 300.149 479.211 300.149C479.544 300.002 481.499 301.439 481.499 301.439L480.129 303.141C482.23 315.244 489.118 323.384 489.118 323.384L493.733 316.628C493.733 316.628 494.916 325.313 493.733 327.161H493.72Z" fill="url(#paint29_linear_14_5223)"/>
<path style="mix-blend-mode:multiply" opacity="0.5" d="M386.802 439.056V444.349L386.709 444.442L386.417 444.708L386.177 444.908C383.784 446.796 373.637 452.981 341.935 454.683C304.367 456.692 279.34 444.602 279.34 444.602L281.228 439.428C281.228 439.428 279.473 437.925 279.34 437.167C279.22 436.409 280.723 434.64 280.723 434.64C280.723 434.64 276.946 432.632 276.946 430.105C276.946 427.83 283.117 421.247 284.114 415.062C284.234 414.397 284.287 413.745 284.26 413.094C284.008 406.444 278.263 400.552 277.465 396.774C277.465 396.735 277.465 396.721 277.465 396.721C276.707 392.944 287.292 383.621 287.292 383.621C278.223 354.892 276.454 316.335 276.454 316.335L274.699 314.313C274.699 314.313 263.861 339.012 254.034 351.102C244.206 363.205 229.844 373.539 227.331 373.034C221.533 373.034 215.057 362.952 209.179 350.516C203.301 338.081 202.942 302.356 202.636 300.149C202.317 297.941 199.046 293.525 198.846 291.637C205.15 302.476 215.19 299.284 215.19 299.284C207.916 299.444 204.139 285.838 204.139 285.838L204.099 285.745L204.059 285.651L200.509 276.275C200.908 276.727 209.219 286.024 217.251 280.292C225.483 274.413 229.725 263.028 229.725 263.028V277.645C229.725 277.645 230.217 279.919 230.975 279.919C230.483 286.649 229.06 294.842 227.331 302.915C223.594 320.378 218.474 337.243 218.474 337.243C218.474 337.243 232.358 329.688 237.238 310.536C239.565 301.372 239.951 293.405 239.725 287.607C239.525 282.646 238.874 279.254 238.608 278.017C238.595 277.924 238.568 277.831 238.541 277.738C238.541 277.698 238.528 277.645 238.515 277.605C238.515 277.578 238.501 277.552 238.501 277.538L239.845 280.385L242.398 286.715C245.363 311.294 239.246 348.335 239.246 348.335C248.156 337.243 250.004 312.717 249.619 306.759C249.446 303.913 249.22 300.401 249.074 297.529C248.874 294.39 248.741 292.009 248.741 292.009L266.973 302.889L263.608 292.222L276.88 302.889C276.88 302.889 288.808 317.253 301.069 318.929C313.33 320.618 358.344 319.607 358.344 319.607C358.344 319.607 319.208 322.121 307.785 325.485C296.362 328.85 294.181 332.707 294.181 332.707C302.439 374.723 348.145 388.887 349.568 389.313C308.104 383.089 288.808 347.83 288.808 347.83C288.808 347.83 288.13 367.66 291.322 375.215C294.513 382.769 313.33 401.257 337.52 405.114C339.554 405.433 341.562 405.632 343.544 405.725C363.943 406.683 380.832 396.256 382.56 395.139C382.653 395.072 382.707 395.045 382.707 395.045C382.707 395.045 382.693 395.072 382.667 395.112C382.015 396.109 373.651 407.867 339.873 409.157C337.825 409.237 335.831 409.223 333.889 409.144H333.863C302.559 407.827 286.614 386.972 286.614 386.972C286.614 386.972 275.031 393.197 282.425 402.427C282.505 402.52 282.585 402.626 282.665 402.72C284.846 405.233 289.646 408.306 295.324 411.471C295.484 411.564 295.644 411.657 295.79 411.737C302.652 415.528 310.697 419.438 316.921 422.67C316.961 422.683 316.987 422.696 317.014 422.71C320.817 424.691 323.942 426.394 325.684 427.671C325.697 427.671 325.697 427.684 325.697 427.684C327.453 428.961 327.812 429.785 326.096 429.985C317.36 430.996 284.274 423.774 282.931 425.782C281.587 427.804 284.566 433.004 284.566 433.004C314.939 448.06 379.927 440.638 381.975 440.412C327.586 454.338 283.09 436.702 283.09 436.702L284.566 441.915C284.566 441.915 308.796 450.308 337.347 450.986C365.911 451.651 383.717 444.349 383.717 444.349L386.816 439.056H386.802Z" fill="url(#paint30_linear_14_5223)"/>
<path style="mix-blend-mode:multiply" opacity="0.5" d="M364.555 319.447C364.555 319.447 386.191 320.618 400.486 324.408L393.119 335.594C393.119 335.594 382.028 325.831 364.568 319.447H364.555Z" fill="url(#paint31_linear_14_5223)"/>
<path style="mix-blend-mode:multiply" opacity="0.5" d="M384.768 379.085C384.768 379.085 371.27 390.35 357.999 395.551C344.727 400.764 331.961 401.257 331.961 401.257C331.961 401.257 339.594 403.531 358.358 400.498C377.135 397.479 383.558 387.305 383.558 387.305L384.768 379.072V379.085Z" fill="url(#paint32_linear_14_5223)"/>
<path style="mix-blend-mode:multiply" opacity="0.5" d="M390.819 422.444C365.845 428.908 334.142 419.651 334.408 418.52C334.674 417.39 343.091 419.026 362.613 415.115C381.536 411.325 388.398 404.595 388.811 404.183C388.651 405.326 386.044 407.84 385.3 410.58C384.794 412.402 388.332 418.148 390.819 422.444Z" fill="url(#paint33_linear_14_5223)"/>
<path style="mix-blend-mode:multiply" opacity="0.5" d="M322.985 322.825C301.654 324.993 295.91 330.939 295.91 330.939C289.912 331.697 276.441 316.335 276.441 316.335L274.686 314.313C274.686 314.313 263.848 339.012 254.02 351.102C252.85 352.538 251.613 353.961 250.337 355.331L251.733 352.192C251.733 352.192 254.02 351.102 254.685 339.092C255.363 327.095 249.645 309.193 249.605 306.759C249.566 304.325 248.728 292.009 248.728 292.009L266.96 302.889L263.595 292.222L276.867 302.889C276.867 302.889 282.066 310.709 295.191 317.226C307.572 323.384 321.455 322.892 322.985 322.825Z" fill="url(#paint34_linear_14_5223)"/>
<path style="mix-blend-mode:multiply" opacity="0.5" d="M274.686 314.313L287.399 312.651C287.399 312.651 292.479 316.016 302.678 320.165L294.181 332.707C294.181 332.707 297.559 350.583 307.24 360.651C307.24 360.651 281.548 346.38 277.93 334.383L274.699 314.313H274.686Z" fill="url(#paint35_linear_14_5223)"/>
<path style="mix-blend-mode:multiply" opacity="0.5" d="M200.495 276.275L204.126 285.838C204.126 285.838 207.823 298.739 215.176 299.284C222.53 299.829 229.711 277.645 229.711 277.645V263.028C229.711 263.028 221.892 279.786 213.448 281.675C205.003 283.563 200.495 276.275 200.495 276.275Z" fill="url(#paint36_linear_14_5223)"/>
<path style="mix-blend-mode:multiply" opacity="0.5" d="M244.446 268.707C244.446 268.707 251.002 281.808 259.06 285.838C259.06 285.838 249.472 262.562 251.494 248.877C251.494 248.877 247.97 251.071 244.446 268.707Z" fill="url(#paint37_linear_14_5223)"/>
<path style="mix-blend-mode:multiply" opacity="0.76" d="M403.691 288.112L405.952 295.414L408.239 355.331C408.239 355.331 402.428 343.933 398.359 327.653L400.473 324.395C400.473 324.395 404.024 301.811 403.691 288.112Z" fill="url(#paint38_linear_14_5223)"/>
<path style="mix-blend-mode:multiply" opacity="0.5" d="M473.307 305.748C473.307 305.748 472.03 335.181 484.531 337.722L485.156 340.874C485.156 340.874 468.972 340.275 473.307 305.748Z" fill="url(#paint39_linear_14_5223)"/>
<path style="mix-blend-mode:multiply" opacity="0.3" d="M452.442 314.699C452.442 314.699 451.963 315.75 447.415 312.451C447.415 312.451 431.684 323.597 425.62 339.304C425.62 339.304 435.314 324.874 440.474 323.318C445.634 321.761 446.884 327.52 446.884 327.52C446.884 327.52 448.931 319.407 452.442 314.712V314.699Z" fill="url(#paint40_linear_14_5223)"/>
<path style="mix-blend-mode:multiply" opacity="0.5" d="M198.833 291.637C198.833 291.637 204.884 302.795 216.227 299.297C216.227 299.297 209.432 303.873 202.623 300.149C202.623 300.149 198.394 292.9 198.833 291.637Z" fill="url(#paint41_linear_14_5223)"/>
<path style="mix-blend-mode:multiply" opacity="0.5" d="M238.475 277.512C238.475 277.512 246.8 308.634 225.084 332.016C225.084 332.016 239.18 324.781 242.385 308.022C245.589 291.264 238.475 277.525 238.475 277.525V277.512Z" fill="url(#paint42_linear_14_5223)"/>
<path style="mix-blend-mode:multiply" opacity="0.5" d="M387.6 252.64C387.6 252.64 386.67 266.685 379.927 276.767C373.198 286.848 359.847 293.645 359.847 293.645C359.847 293.645 376.603 287.474 384.289 278.775C391.975 270.077 387.6 252.627 387.6 252.627V252.64Z" fill="url(#paint43_linear_14_5223)"/>
<path style="mix-blend-mode:multiply" opacity="0.5" d="M301.894 231.506C301.894 231.506 301.894 243.251 305.67 255.221C309.447 267.191 342.254 288.112 342.254 288.112C342.254 288.112 308.436 274.067 301.894 261.432C295.351 248.797 301.894 231.506 301.894 231.506Z" fill="url(#paint44_linear_14_5223)"/>
<path d="M301.508 287.447V306.573C301.508 306.573 345.538 306.214 394.914 309.485L396.045 292.262C396.045 292.262 353.118 287.168 301.521 287.434L301.508 287.447Z" fill="url(#paint45_linear_14_5223)"/>
<path d="M309.673 291.809C309.673 291.477 309.846 291.331 310.152 291.331L319.075 291.597C319.953 291.623 320.711 291.756 321.322 291.996C321.934 292.235 322.426 292.568 322.798 292.993C323.171 293.419 323.423 293.911 323.583 294.509C323.743 295.095 323.809 295.746 323.783 296.465L323.703 298.912C323.676 299.63 323.57 300.282 323.384 300.854C323.197 301.426 322.905 301.918 322.506 302.317C322.107 302.716 321.602 303.008 320.977 303.221C320.352 303.421 319.594 303.514 318.716 303.487L313.915 303.341L312.918 300.534H312.785L312.705 303.301L309.341 303.194L309.686 291.796L309.673 291.809ZM312.785 300.229L318.49 300.401C319.128 300.415 319.594 300.295 319.873 300.016C320.152 299.736 320.298 299.244 320.325 298.526L320.391 296.531C320.418 295.786 320.298 295.281 320.032 295.002C319.766 294.722 319.314 294.576 318.676 294.563L313.224 294.403C313.144 294.403 313.091 294.43 313.038 294.47C312.998 294.523 312.971 294.576 312.971 294.642L312.798 300.229H312.785Z" fill="#EBEFFF"/>
<path d="M328.61 296.917H328.49L328.384 300.481C328.384 300.627 328.45 300.707 328.61 300.721L338.637 301.026L338.543 304.112L325.392 303.713C325.072 303.713 324.926 303.54 324.926 303.208L325.259 292.288C325.259 291.956 325.432 291.809 325.751 291.809L338.53 292.195C338.863 292.195 339.022 292.368 339.009 292.701L338.916 295.786L335.764 296.85H335.631L335.684 295.267C335.684 295.148 335.631 295.081 335.525 295.081L328.783 294.882C328.69 294.882 328.636 294.908 328.61 294.948C328.583 295.001 328.57 295.055 328.57 295.108L328.53 296.597L334.089 296.77L334.009 299.191L329.354 299.045L328.636 296.93L328.61 296.917Z" fill="#EBEFFF"/>
<path d="M350.897 296.691H350.764L350.804 295.374C350.804 295.241 350.751 295.174 350.618 295.174L344.341 294.988C344.115 294.988 343.956 295.028 343.863 295.121C343.77 295.214 343.73 295.361 343.716 295.547V295.839C343.703 296.066 343.73 296.212 343.81 296.278C343.889 296.345 344.036 296.398 344.248 296.438L351.602 297.688C352.068 297.768 352.467 297.888 352.786 298.021C353.105 298.167 353.371 298.353 353.57 298.579C353.77 298.805 353.903 299.085 353.983 299.417C354.062 299.75 354.089 300.135 354.076 300.588L354.049 301.532C354.036 302.024 353.956 302.45 353.823 302.822C353.69 303.194 353.491 303.5 353.211 303.753C352.932 304.006 352.56 304.179 352.121 304.298C351.669 304.418 351.124 304.458 350.472 304.445L339.887 304.125L339.98 301.04L349.475 301.332C349.754 301.332 349.953 301.292 350.046 301.199C350.139 301.093 350.193 300.92 350.206 300.654V300.322C350.219 300.109 350.193 299.962 350.126 299.883C350.06 299.803 349.927 299.736 349.714 299.71L342.613 298.593C342.134 298.513 341.722 298.406 341.389 298.26C341.057 298.114 340.778 297.941 340.565 297.715C340.352 297.489 340.206 297.223 340.113 296.903C340.02 296.584 339.993 296.212 340.006 295.773L340.033 294.935C340.059 294.07 340.312 293.419 340.778 292.953C341.256 292.488 342.014 292.275 343.091 292.315L353.663 292.634C353.996 292.634 354.169 292.82 354.156 293.166L354.076 295.613L350.924 296.664L350.897 296.691Z" fill="#EBEFFF"/>
<path d="M355.366 304.618L355.725 292.727L359.089 292.834L358.73 304.724L355.366 304.618Z" fill="#EBEFFF"/>
<path d="M371.23 299.989C371.23 299.816 371.23 299.63 371.23 299.444C371.23 299.258 371.204 299.085 371.19 298.938V298.792L374.528 298.898L374.355 304.737C374.355 305.043 374.209 305.189 373.93 305.189L364.98 304.923C364.103 304.897 363.345 304.764 362.733 304.524C362.121 304.285 361.629 303.953 361.257 303.527C360.884 303.101 360.618 302.609 360.472 302.011C360.313 301.425 360.246 300.774 360.273 300.056L360.352 297.608C360.379 296.89 360.485 296.238 360.672 295.667C360.858 295.095 361.15 294.603 361.549 294.203C361.948 293.804 362.454 293.512 363.079 293.299C363.704 293.1 364.462 293.006 365.339 293.033L374.236 293.299C374.555 293.299 374.701 293.472 374.701 293.804L374.621 296.371L371.47 297.422H371.337L371.377 296.278C371.377 296.172 371.337 296.119 371.23 296.105L365.552 295.933C365.22 295.933 364.954 295.933 364.728 295.999C364.501 296.052 364.315 296.145 364.169 296.292C364.023 296.438 363.916 296.624 363.837 296.877C363.77 297.116 363.717 297.422 363.704 297.781L363.637 299.869C363.611 300.588 363.73 301.093 363.996 301.386C364.262 301.678 364.714 301.838 365.353 301.851L370.991 302.024C371.111 302.024 371.177 301.971 371.177 301.838L371.23 300.029V299.989Z" fill="#EBEFFF"/>
<path d="M381.63 293.499C381.882 293.499 382.055 293.552 382.161 293.632C382.268 293.711 382.348 293.831 382.441 294.004L386.696 302.689C386.763 302.822 386.869 302.889 387.002 302.889H387.175C387.348 302.889 387.441 302.822 387.441 302.636L387.707 293.685L390.765 293.778L390.42 305.203C390.42 305.522 390.26 305.668 389.954 305.655L385.114 305.509C384.888 305.509 384.715 305.469 384.608 305.389C384.502 305.322 384.396 305.189 384.302 305.003L379.887 296.332C379.821 296.199 379.728 296.132 379.582 296.132H379.422C379.249 296.132 379.156 296.212 379.156 296.385L378.89 305.322L375.832 305.229L376.177 293.818C376.177 293.485 376.337 293.339 376.643 293.339L381.643 293.485L381.63 293.499Z" fill="#EBEFFF"/>
<path style="mix-blend-mode:multiply" opacity="0.5" d="M371.177 234.047C370.14 246.416 366.377 255.035 362.36 260.847C356.828 268.827 350.844 271.553 350.844 271.553C344.86 268.946 339.674 265.701 335.206 262.123C316.242 246.961 310.125 225.947 309.66 224.218C317.665 243.556 329.421 255.274 338.331 261.871C345.512 267.204 350.844 269.212 350.844 269.212V263.028C349.421 262.496 348.038 261.884 346.722 261.219C331.03 253.305 322.785 236.813 318.929 226.147C318.915 226.12 318.915 226.107 318.902 226.08C316.814 220.308 316.003 216.251 316.003 216.251H318.849L317.918 218.246L317.878 218.313C318.33 220.334 318.849 222.276 319.434 224.125C319.447 224.178 319.461 224.231 319.487 224.271C328.264 251.962 350.844 260.887 350.844 260.887C366.536 249.302 366.23 230.908 366.23 230.908V228.381L369.169 229.259L371.177 234.047Z" fill="url(#paint46_linear_14_5223)"/>
<path style="mix-blend-mode:multiply" opacity="0.3" d="M464.278 301.266C464.278 301.266 460.009 315.204 464.038 336.87C464.038 336.87 466.06 309.406 467.562 307.012C469.078 304.618 473.307 305.748 473.307 305.748C473.307 305.748 466.645 302.064 464.264 301.266H464.278Z" fill="url(#paint47_linear_14_5223)"/>
<path style="mix-blend-mode:multiply" opacity="0.5" d="M422.88 377.037C419.157 373.778 414.689 368.339 410.234 359.428C401.324 341.619 398.771 329.728 398.359 327.653L400.473 324.395L403.305 296.997L405.952 295.414C405.952 295.414 415.407 284.973 422.588 269.212C422.694 269.452 422.814 269.824 422.947 270.356C424.396 276.062 427.375 297.382 430.141 304.99C431.87 309.738 434.596 312.358 436.604 313.715C436.604 313.715 420.234 338.001 419.436 355.331C418.731 371.105 422.242 376.239 422.88 377.037Z" fill="url(#paint48_linear_14_5223)"/>
<path style="mix-blend-mode:multiply" opacity="0.5" d="M325.684 427.684C325.684 427.684 296.176 422.843 284.127 415.075C284.127 415.075 284.114 415.075 284.114 415.062C284.234 414.397 284.287 413.745 284.26 413.094C284.008 406.444 278.263 400.552 277.465 396.774C277.598 397.134 278.462 399.129 282.651 402.72C285.298 404.994 289.3 407.92 295.311 411.471C295.471 411.564 295.63 411.657 295.777 411.737C304.287 416.765 311.615 420.169 316.907 422.67C316.947 422.683 316.974 422.696 317 422.71C321.761 424.944 324.846 426.421 325.671 427.671C325.684 427.671 325.684 427.684 325.684 427.684Z" fill="url(#paint49_linear_14_5223)"/>
<path style="mix-blend-mode:multiply" opacity="0.5" d="M388.811 404.183C388.651 405.326 386.044 407.84 385.3 410.58C385.3 410.58 374.475 422.045 334.408 418.52C334.674 417.39 343.091 419.026 362.613 415.115C381.536 411.325 388.398 404.595 388.811 404.183Z" fill="url(#paint50_linear_14_5223)"/>
<g style="mix-blend-mode:multiply" opacity="0.5">
<path d="M395.473 249.063L369.861 257.362L362.36 260.847H362.321L357.44 260.873H350.844L346.722 261.219L344.541 261.379L338.331 261.871L335.206 262.123L304.487 251.005L298.995 249.023L273.728 239.872C274.473 239.58 275.231 239.287 276.029 238.968C292.984 232.251 309.62 224.098 309.62 224.098L316.003 216.251H318.849C321.389 210.692 323.078 205.491 324.168 201.395L325.857 193.8C325.977 193.069 326.03 192.67 326.03 192.67L335.073 197.445L365.565 221.837C365.539 223.5 365.592 224.989 365.685 226.253L366.124 229.325C366.204 228.727 366.23 228.381 366.23 228.381L369.169 229.259L371.177 234.047C371.177 234.047 374.581 239.34 388.066 245.272C390.393 246.296 392.893 247.586 395.473 249.063Z" fill="#7A4AC0"/>
</g>
<path d="M375.964 225.694C375.964 225.694 364.023 228.381 350.844 221.997C337.666 215.613 326.588 196.793 325.91 192.098C325.245 187.39 330.95 175.127 330.95 165.551C330.95 155.975 326.256 139.509 334.142 130.598C342.041 121.7 378.318 120.357 390.087 131.782C390.087 131.782 393.731 140.932 393.731 146.106C393.731 147.356 393.505 149.192 393.172 151.306C393.066 152.091 392.92 152.929 392.787 153.794C391.736 160.058 390.287 167.706 390.965 171.057C391.204 172.228 391.577 173.305 392.015 174.329C393.465 177.694 395.619 180.367 396.005 183.267C396.51 187.057 391.43 213.937 375.964 225.694Z" fill="url(#paint51_linear_14_5223)"/>
<path d="M330.857 162.851C330.857 162.851 327.599 154.671 319.407 154.552C319.407 154.552 314.62 156.44 313.862 160.098C313.862 160.098 315.631 173.332 317.639 179.503C319.647 185.674 327.041 184.783 327.041 184.783C327.041 184.783 333.477 174.941 330.844 162.851H330.857Z" fill="url(#paint52_linear_14_5223)"/>
<path d="M362.334 189.797C362.334 189.797 365.06 189.584 366.23 190.462C367.4 191.34 371.696 195.503 377.108 196.633C382.521 197.764 386.164 193.149 387.308 192.923C388.465 192.683 389.728 194.319 389.728 194.319C389.728 194.319 389.236 192.431 386.404 191.579C386.404 191.579 385.26 195.929 377.414 194.439C369.568 192.949 366.217 189.465 366.217 189.465L365.818 188.746C365.818 188.746 363.611 189.212 362.321 189.797H362.334Z" fill="url(#paint53_linear_14_5223)"/>
<path style="mix-blend-mode:multiply" opacity="0.6" d="M350.738 149.099L350.844 148.261C350.844 148.261 358.677 134.508 374.169 134.136C389.662 133.764 393.159 143.473 393.159 143.473L396.031 139.11L389.489 125.823L343.956 125.065L332.865 134.016L331.469 155.922L336.402 184.836L348.397 191.234L351.788 188.228C350.538 178.545 343.344 169.701 343.344 169.701L348.597 166.056C348.597 166.056 362.081 172.587 369.861 170.632C369.861 170.632 375.725 153.528 375.379 140.866C375.379 140.866 355.406 143.818 350.738 149.125V149.099Z" fill="url(#paint54_linear_14_5223)"/>
<path d="M350.046 150.123C350.046 150.123 350.804 145.175 359.156 143.193C368.464 140.985 376.031 139.123 376.031 139.123C376.031 139.123 374.382 144.55 371.284 146.585C371.284 146.585 361.43 146.226 356.456 147.356C351.469 148.487 350.06 150.123 350.06 150.123H350.046Z" fill="#38368E"/>
<path d="M393.172 143.473C393.172 143.473 388.451 147.117 385.233 155.815C385.233 155.815 388.318 151.785 391.151 151.852C393.092 151.892 392.787 153.82 392.787 153.82C392.787 153.82 394.715 148.62 393.172 143.486V143.473Z" fill="#38368E"/>
<path d="M353.171 164.128C353.171 164.128 353.677 153.674 363.876 151.027C363.876 151.027 367.533 155.749 367.906 161.109C367.906 161.109 362.493 160.098 353.171 164.128Z" fill="url(#paint55_linear_14_5223)"/>
<path d="M382.401 168.291C382.401 168.291 383.225 159.965 388.013 156.893C388.013 156.893 391.271 159.34 390.938 166.309C390.938 166.309 388.079 165.272 382.414 168.304L382.401 168.291Z" fill="url(#paint56_linear_14_5223)"/>
<path d="M353.171 164.128C353.171 164.128 356.483 168.198 365.765 168.996C365.765 168.996 367.533 166.309 367.361 161.029C367.361 161.029 358.836 160.218 353.158 164.114L353.171 164.128Z" fill="#FFEBED"/>
<path d="M382.401 168.291V169.514C382.401 169.514 383.824 172.494 388.957 172.999C388.957 172.999 390.606 170.432 390.752 166.256C390.752 166.256 387.494 165.445 382.414 168.304L382.401 168.291Z" fill="#FFEBED"/>
<path d="M363.092 160.816C363.092 160.816 360.738 163.676 360.951 168.198C360.951 168.198 364.036 168.929 365.765 168.996C365.765 168.996 367.799 166.163 367.361 161.029C367.361 161.029 364.661 160.444 363.092 160.816Z" fill="#7F9EC9"/>
<path d="M387.268 166.389C387.268 166.389 385.938 167.812 385.685 172.188C385.685 172.188 387.507 172.986 388.957 172.986C388.957 172.986 390.819 170.339 390.752 166.243C390.752 166.243 389.449 165.75 387.268 166.389Z" fill="#7F9EC9"/>
<path d="M362.334 168.517C362.334 168.517 361.496 162.864 364.728 160.71L367.374 161.042C367.374 161.042 368.252 165.511 365.778 169.009C365.778 169.009 363.145 168.716 362.334 168.517Z" fill="#38368E"/>
<path d="M388.438 166.136C388.438 166.136 387.241 168.65 386.683 172.56C386.683 172.56 387.6 172.933 388.957 172.986C388.957 172.986 390.765 170.765 390.752 166.243C390.752 166.243 389.369 165.87 388.438 166.136Z" fill="#38368E"/>
<path d="M353.171 164.128C353.171 164.128 359.342 160.537 369.861 162.585L367.906 161.109C367.906 161.109 360.406 158.781 353.171 164.128Z" fill="#131163"/>
<path d="M382.401 168.291C382.401 168.291 387.348 165.657 393.119 167.054L390.739 165.298C390.739 165.298 386.869 164.7 382.401 168.291Z" fill="#131163"/>
<path d="M359.847 164.128C359.847 164.128 361.523 163.755 363.039 165.285C363.039 165.285 360.964 165.897 359.847 164.128Z" fill="white"/>
<path d="M384.675 168.996C384.675 168.996 387.308 168.49 388.212 169.687C388.212 169.687 386.802 170.658 384.675 168.996Z" fill="white"/>
<path d="M353.796 164.74C353.796 164.74 358.597 169.488 366.283 170.618L366.483 167.825L365.778 169.009C365.778 169.009 358.384 168.57 353.796 164.753V164.74Z" fill="#C6659C"/>
<path d="M382.401 169.501C382.401 169.501 383.252 172.573 389.502 173.957L389.303 172.454L388.957 172.986C388.957 172.986 384.515 172.414 382.401 169.501Z" fill="#C6659C"/>
<path d="M369.861 181.764C369.861 181.764 372.188 181.258 376.47 181.764C380.752 182.269 385.566 183.44 388.199 181.764C388.199 181.764 384.701 185.262 381.669 185.794C378.637 186.326 374.023 183.666 374.023 183.666L372.002 183.706C372.002 183.706 370.446 182.948 369.834 181.764H369.861Z" fill="#CB5F7D"/>
<path d="M372.321 183.706C372.321 183.706 373.371 183.027 374.249 183.2C375.127 183.373 376.031 184.65 376.031 184.65C376.031 184.65 374.169 183.666 372.321 183.706Z" fill="#9F4A8B"/>
<path d="M388.212 181.764C389.329 180.673 383.531 170.352 380.765 169.967C377.999 169.581 375.393 181.538 375.393 181.538C375.393 181.538 379.249 182.083 382.986 182.575C386.723 183.081 388.212 181.764 388.212 181.764Z" fill="#FFBCAF"/>
<path style="mix-blend-mode:multiply" opacity="0.6" d="M392.348 149.258C390.779 149.059 385.233 155.802 385.233 155.802C385.233 155.802 381.709 166.721 382.401 169.953C383.092 173.199 391.656 174.914 391.656 174.914L392.015 174.342C391.577 173.305 391.204 172.228 390.965 171.057C390.287 167.706 391.736 160.058 392.787 153.794C392.787 153.794 393.132 152.503 393.172 151.306C393.212 150.296 393.066 149.338 392.348 149.258Z" fill="url(#paint57_linear_14_5223)"/>
<path d="M392.095 193.601C390.326 189.904 391.417 187.975 376.058 185.967C354.315 183.107 352.453 189.744 348.756 188.733C348.623 188.693 348.464 188.64 348.318 188.574C344.315 187.017 334.886 177.747 334.647 165.258C334.394 152.277 343.091 143.074 343.091 143.074C339.94 140.427 338.676 132.753 342.081 129.468C345.485 126.196 351.283 126.954 365.512 128.457C379.754 129.973 379.754 129.095 379.754 129.095C384.276 130.252 386.869 134.495 387.6 135.852C387.747 136.118 387.813 136.277 387.813 136.277L389.582 134.641C394.369 141.571 393.491 149.125 393.491 149.125C393.491 149.125 401.297 133.245 400.407 130.997C398.784 126.847 394.276 120.796 393.997 120.41H393.983C393.983 120.41 392.72 108.307 388.943 108.307C385.167 108.307 369.036 111.951 369.036 111.951C370.805 107.802 370.552 103.014 370.552 103.014L370.486 103.08C365.22 107.802 360.073 108.32 352.786 111.699C349.115 113.414 347.387 114.997 345.964 116.646L345.472 117.231L344.953 117.857C344.448 118.495 343.929 119.147 343.304 119.812C343.278 119.852 343.238 119.878 343.224 119.891L343.185 119.931C342.599 120.57 341.908 121.221 341.07 121.913C336.283 125.81 325.751 128.417 324.487 132.54C323.224 136.65 326.083 142.276 327.599 148.075C329.102 153.873 328.41 158.994 328.41 158.994C328.41 158.994 333.424 165.458 331.761 174.914C330.285 183.386 327.054 184.77 327.054 184.77C324.78 189.438 325.857 193.8 325.857 193.8C330.511 212.314 349.767 223.34 349.767 223.34C366.895 229.724 378.159 226.945 378.159 226.945C390.619 218.805 394.888 191.912 395.074 190.662C394.861 190.994 392.547 194.585 392.082 193.601H392.095ZM384.409 210.745C381.39 210.24 380.752 202.592 379.754 201.581C378.744 200.584 373.278 200.996 373.278 200.996C373.278 200.996 368.238 206.715 366.23 206.875C364.209 207.047 353.464 202.672 355.791 196.128C358.105 189.571 366.23 188.733 366.23 188.733C366.23 188.733 370.432 192.258 376.722 192.67C383.026 193.082 385.3 191.925 386.044 191.593C386.802 191.247 390.858 193.096 390.752 198.815C390.686 202.791 387.441 211.25 384.409 210.745Z" fill="url(#paint58_linear_14_5223)"/>
<path d="M383.638 172.268C383.638 172.268 389.063 179.011 388.545 181.551C387.973 184.331 381.683 185.807 381.683 185.807C381.683 185.807 386.723 184.065 387.76 181.551C387.76 181.551 386.47 176.444 383.624 172.268H383.638Z" fill="#D2726C"/>
<path style="mix-blend-mode:multiply" opacity="0.6" d="M393.491 149.125C393.491 149.125 394.369 141.571 389.582 134.641C393.425 127.778 393.983 120.397 393.983 120.397H393.997C395.3 123.615 396.045 129.853 396.045 129.853L400.407 130.997C401.297 133.245 393.491 149.125 393.491 149.125Z" fill="url(#paint59_linear_14_5223)"/>
<path style="mix-blend-mode:multiply" opacity="0.6" d="M387.6 135.852C386.869 134.495 384.276 130.252 379.754 129.095C379.754 129.095 379.754 129.973 365.512 128.457C351.283 126.954 345.485 126.196 342.081 129.468C338.676 132.753 339.94 140.427 343.091 143.074C343.091 143.074 334.394 152.277 334.647 165.258C334.886 177.747 344.315 187.017 348.318 188.574L348.131 189.957C348.131 189.957 348.836 218.552 355.791 220.826C362.733 223.087 377.148 221.917 378.491 223.26C379.834 224.604 378.305 226.732 378.172 226.931C378.172 226.931 366.908 229.724 349.78 223.34C349.78 223.34 330.525 212.314 325.87 193.8C325.87 193.8 324.793 189.438 327.067 184.77C327.067 184.77 330.299 183.386 331.775 174.914C333.437 165.458 328.424 158.994 328.424 158.994C328.424 158.994 329.115 153.873 327.612 148.075C326.096 142.276 323.237 136.65 324.501 132.54C332.559 133.803 337.852 129.601 337.852 129.601C337.852 129.601 339.262 127.645 345.498 126.635C351.735 125.624 376.802 128.151 376.802 128.151C376.802 128.151 374.289 126.063 368.996 124.68C363.996 123.363 346.921 124.892 345.086 125.039C347.041 124.693 366.403 121.368 368.611 122.033C370.951 122.724 379.329 126.568 379.329 126.568C378.571 122.724 371.071 113.467 371.071 113.467C371.071 113.467 360.485 113.654 353.557 115.103C347.373 116.393 343.982 119.226 343.318 119.812L344.967 117.857L345.485 117.231L345.977 116.646L348.397 116.234L360.552 111.326C364.634 109.145 369.861 103.745 370.499 103.08L370.565 103.014C370.565 103.014 370.818 107.802 369.049 111.951C379.316 110.688 382.786 111.326 382.786 111.326C387.454 117.936 387.614 135.852 387.614 135.852H387.6Z" fill="url(#paint60_linear_14_5223)"/>
<path style="mix-blend-mode:multiply" opacity="0.5" d="M349.767 223.34C349.767 223.34 356.057 221.851 365.552 222.223C375.047 222.609 380.512 222.649 378.159 226.945C378.159 226.945 366.23 229.644 349.767 223.34Z" fill="url(#paint61_linear_14_5223)"/>
<path d="M382.773 111.326C382.773 111.326 388.545 109.078 390.832 109.438C390.832 109.438 389.928 108.227 388.983 107.974C388.039 107.722 369.036 111.938 369.036 111.938C369.036 111.938 380.885 110.555 382.773 111.313V111.326Z" fill="url(#paint62_linear_14_5223)"/>
<path d="M371.057 113.467C371.057 113.467 370.605 119.758 368.597 122.033L345.073 125.039L338.171 123.815C338.171 123.815 340.844 122.671 343.783 119.253C346.722 115.822 362.055 112.457 371.071 113.467H371.057Z" fill="url(#paint63_linear_14_5223)"/>
<path d="M393.983 120.397C393.983 120.397 395.898 126.581 396.045 129.853L400.407 130.997C400.407 130.997 399.077 126.315 393.983 120.397Z" fill="url(#paint64_linear_14_5223)"/>
<path style="mix-blend-mode:multiply" opacity="0.8" d="M329.886 173.957C329.886 173.957 328.237 166.016 324.181 162.093C320.126 158.169 315.511 159.42 315.511 159.42C315.511 159.42 316.774 174.143 318.091 177.734C319.407 181.325 321.429 182.269 321.429 182.269C321.429 182.269 318.596 179.782 318.211 174.914C317.825 170.046 317.705 163.183 318.782 162.359C319.86 161.534 324.181 164.74 324.181 164.74C324.181 164.74 322.812 166.415 322.001 170.751C321.176 175.087 324.208 178.239 325.338 178.173C326.469 178.106 325.272 173.159 325.458 171.722C325.644 170.286 328.171 170.605 329.886 173.943V173.957Z" fill="url(#paint65_linear_14_5223)"/>
<path style="mix-blend-mode:multiply" opacity="0.8" d="M325.844 164.088C325.844 164.088 321.415 167.001 321.894 172.959C322.373 178.931 325.777 178.665 325.791 177.415C325.791 176.164 325.139 172.933 325.485 171.11C325.83 169.288 328.769 170.113 328.769 170.113C328.769 170.113 326.828 165.378 325.83 164.088H325.844Z" fill="url(#paint66_linear_14_5223)"/>
<path d="M395.087 190.662C395.087 190.662 389.582 215.759 378.159 226.945C378.159 226.945 391.191 221.824 395.087 190.662Z" fill="#34C7FF"/>
<path d="M388.983 107.988C388.983 107.988 391.882 110.249 392.441 118.083C392.986 125.93 389.595 134.641 389.595 134.641C389.595 134.641 393.957 128.124 394.382 120.982C394.808 113.84 391.297 108.892 388.997 107.988H388.983Z" fill="#34C7FF"/>
<path d="M353.836 124.413C353.836 124.413 360.552 126.701 367.919 127.353C375.286 128.005 376.802 128.151 376.802 128.151C376.802 128.151 373.837 125.278 367.533 124.413C361.23 123.549 353.836 124.413 353.836 124.413Z" fill="url(#paint67_linear_14_5223)"/>
<path d="M386.284 191.22C386.284 191.22 389.502 191.22 390.765 195.25C391.776 198.469 392.055 201.235 392.055 201.235L393.199 196.82C393.199 196.82 391.71 191.22 390.167 189.957C389.05 189.052 387.135 188.135 386.231 188.347L386.297 191.22H386.284Z" fill="url(#paint68_linear_14_5223)"/>
<path d="M377.627 187.19L378.172 191.978C378.172 191.978 382.082 192.298 384.675 191.22L385.14 188.321C385.14 188.321 380.153 187.057 377.627 187.19Z" fill="url(#paint69_linear_14_5223)"/>
<path d="M395.473 249.063C395.473 249.063 418.386 265.794 421.351 271.553C424.33 277.312 425.527 295.361 429.543 303.181C429.543 303.181 426.79 290.4 424.862 280.385C422.934 270.37 423.399 270.223 422.322 267.763C421.245 265.302 404.143 253.439 395.46 249.063H395.473Z" fill="#34C7FF"/>
<path d="M391.377 342.23C391.377 342.23 380.34 389.499 380.832 392.691C381.337 395.883 388.478 402.4 388.811 404.183C388.811 404.183 383.345 411.498 383.598 413.12C383.85 414.743 393.172 424.984 392.92 428.163C392.853 429.081 386.802 439.056 386.802 439.056C386.802 439.056 393.638 429.253 393.97 427.684C394.303 426.115 385.592 413.014 385.34 411.684C384.675 408.239 389.688 405.699 389.848 403.438C390.021 401.163 383.079 395.631 383.013 391.933C382.959 388.236 391.35 342.217 391.35 342.217L391.377 342.23Z" fill="#34C7FF"/>
<path d="M393.611 454.909C393.611 454.909 417.481 508.961 425.62 563C425.62 563 424.263 510.252 393.611 454.909Z" fill="#34C7FF"/>
<path d="M242.265 238.21C242.265 238.21 236.094 236.893 233.528 231.506C230.961 226.12 232.637 218.313 232.637 218.313C232.637 218.313 237.477 227.596 239.884 230.762C242.291 233.927 242.943 237.545 242.265 238.21Z" fill="#FFBCAF"/>
<path opacity="0.6" d="M432.841 210.04L437.123 332.136C437.296 336.977 441.272 340.821 446.112 340.821H656.396C661.276 340.821 665.266 336.924 665.386 332.042L668.324 208.524C668.444 203.443 664.348 199.28 659.268 199.307L441.764 200.73C436.697 200.77 432.655 204.973 432.827 210.04H432.841Z" fill="#36D1F7"/>
<path d="M656.396 341.14H446.112C441.059 341.14 436.963 337.19 436.79 332.136L432.508 210.04C432.415 207.5 433.333 205.092 435.101 203.257C436.857 201.422 439.224 200.397 441.777 200.384L659.295 198.961C661.822 198.961 664.229 199.932 666.011 201.754C667.793 203.576 668.75 205.97 668.684 208.51L665.745 332.029C665.625 337.136 661.529 341.14 656.423 341.14H656.396ZM659.335 199.626H659.282L441.764 201.049C439.397 201.062 437.203 202.007 435.567 203.709C433.931 205.412 433.08 207.646 433.16 210.013L437.442 332.109C437.601 336.804 441.405 340.475 446.099 340.475H656.383C661.05 340.475 664.933 336.684 665.04 332.016L667.979 208.497C668.032 206.13 667.154 203.909 665.492 202.22C663.843 200.544 661.662 199.626 659.322 199.626H659.335Z" fill="#2E3A72"/>
<path style="mix-blend-mode:multiply" opacity="0.6" d="M433.16 216.251H668.085L668.457 209.814C668.79 204.121 664.242 199.333 658.537 199.373L441.112 201.089C436.577 201.129 432.934 204.866 433.027 209.402L433.16 216.251Z" fill="url(#paint70_linear_14_5223)"/>
<path style="mix-blend-mode:multiply" opacity="0.3" d="M444.969 226.107V296.757H516.885V225.734L444.969 226.107Z" fill="url(#paint71_linear_14_5223)"/>
<path style="mix-blend-mode:multiply" opacity="0.3" d="M617.658 230.855H586.381V262.137H617.658V230.855Z" fill="url(#paint72_linear_14_5223)"/>
<path style="mix-blend-mode:multiply" opacity="0.3" d="M654.561 230.855H623.284V262.137H654.561V230.855Z" fill="url(#paint73_linear_14_5223)"/>
<path style="mix-blend-mode:multiply" opacity="0.3" d="M580.131 230.855H548.854V262.137H580.131V230.855Z" fill="url(#paint74_linear_14_5223)"/>
<g style="mix-blend-mode:multiply">
<path d="M654.561 280.371H574.572V287.859H654.561V280.371Z" fill="#C5C8DA"/>
</g>
<g style="mix-blend-mode:multiply">
<path d="M654.561 291.783H554.559V294.097H654.561V291.783Z" fill="#C5C8DA"/>
</g>
<g style="mix-blend-mode:multiply">
<path d="M574.639 266.127H555.503V268.441H574.639V266.127Z" fill="#C5C8DA"/>
</g>
<g style="mix-blend-mode:multiply">
<path d="M611.581 266.127H592.445V268.441H611.581V266.127Z" fill="#C5C8DA"/>
</g>
<g style="mix-blend-mode:multiply">
<path d="M648.497 266.127H629.361V268.441H648.497V266.127Z" fill="#C5C8DA"/>
</g>
<g style="mix-blend-mode:multiply">
<path d="M581.022 295.547H548.854V297.861H581.022V295.547Z" fill="#C5C8DA"/>
</g>
<g style="mix-blend-mode:multiply">
<path d="M654.561 299.271H554.559V301.585H654.561V299.271Z" fill="#C5C8DA"/>
</g>
<g style="mix-blend-mode:multiply">
<path d="M654.561 302.995H548.854V305.309H654.561V302.995Z" fill="#C5C8DA"/>
</g>
<g style="mix-blend-mode:multiply">
<path d="M654.561 306.719H548.854V309.033H654.561V306.719Z" fill="#C5C8DA"/>
</g>
<g style="mix-blend-mode:multiply">
<path d="M654.561 321.788H554.559V324.102H654.561V321.788Z" fill="#C5C8DA"/>
</g>
<g style="mix-blend-mode:multiply">
<path d="M654.561 325.512H548.854V327.826H654.561V325.512Z" fill="#C5C8DA"/>
</g>
<g style="mix-blend-mode:multiply">
<path d="M654.561 329.236H548.854V331.55H654.561V329.236Z" fill="#C5C8DA"/>
</g>
<g style="mix-blend-mode:multiply">
<path d="M650.319 310.456H548.854V312.771H650.319V310.456Z" fill="#C5C8DA"/>
</g>
<g style="mix-blend-mode:multiply">
<path d="M654.561 314.18H554.559V316.495H654.561V314.18Z" fill="#C5C8DA"/>
</g>
<g style="mix-blend-mode:multiply">
<path d="M634.507 317.904H548.854V320.219H634.507V317.904Z" fill="#C5C8DA"/>
</g>
<g style="mix-blend-mode:soft-light">
<path d="M465.115 282.592C453.839 282.592 444.663 273.415 444.663 262.137C444.663 250.858 453.839 241.681 465.115 241.681C476.392 241.681 485.568 250.858 485.568 262.137C485.568 273.415 476.392 282.592 465.115 282.592ZM465.115 242.998C454.57 242.998 445.993 251.576 445.993 262.124C445.993 272.671 454.57 281.249 465.115 281.249C475.661 281.249 484.238 272.671 484.238 262.124C484.238 251.576 475.661 242.998 465.115 242.998Z" fill="#E0FFFF"/>
</g>
<path d="M465.115 273.256C471.255 273.256 476.233 268.278 476.233 262.137C476.233 255.996 471.255 251.018 465.115 251.018C458.975 251.018 453.998 255.996 453.998 262.137C453.998 268.278 458.975 273.256 465.115 273.256Z" fill="white"/>
<g style="mix-blend-mode:soft-light">
<path d="M516.885 246.203C505.608 246.203 496.432 237.026 496.432 225.748C496.432 214.469 505.608 205.292 516.885 205.292C528.162 205.292 537.338 214.469 537.338 225.748C537.338 237.026 528.162 246.203 516.885 246.203ZM516.885 206.609C506.34 206.609 497.762 215.187 497.762 225.734C497.762 236.281 506.34 244.86 516.885 244.86C527.431 244.86 536.008 236.281 536.008 225.734C536.008 215.187 527.431 206.609 516.885 206.609Z" fill="#E0FFFF"/>
</g>
<path d="M527.197 227.348C528.096 221.637 524.195 216.279 518.485 215.381C512.775 214.483 507.419 218.384 506.52 224.094C505.622 229.805 509.523 235.163 515.233 236.061C520.942 236.959 526.299 233.058 527.197 227.348Z" fill="white"/>
<g style="mix-blend-mode:soft-light">
<path d="M441.391 206.675L442.881 204.401L450.966 211.49L449.729 213.219L441.391 206.675Z" fill="white"/>
<path d="M451.179 206.675L449.676 204.401L441.591 211.49L442.841 213.219L451.179 206.675Z" fill="white"/>
</g>
<path d="M662.407 205.944H590.012V209.574H662.407V205.944Z" fill="white"/>
<path d="M209.019 153.528V184.943L246.6 185.262L247.105 152.517L209.019 153.528Z" fill="url(#paint75_linear_14_5223)"/>
<path d="M247.105 152.517L249.552 156.64L248.329 185.235L246.6 185.262L247.105 152.517Z" fill="#B12FAE"/>
<path d="M215.735 164.128L219.206 159.087L237.97 174.848L235.084 178.678L215.735 164.128Z" fill="white"/>
<path d="M238.448 164.128L234.977 159.087L216.214 174.848L219.099 178.678L238.448 164.128Z" fill="white"/>
<path opacity="0.81" d="M296.681 523.352H168.101C162.383 523.352 157.702 518.777 157.569 513.058L155.162 407.574C155.029 401.669 159.776 396.801 165.694 396.801H299.567C305.498 396.801 310.258 401.695 310.099 407.627L307.213 513.111C307.053 518.817 302.386 523.352 296.681 523.352Z" fill="url(#paint76_linear_14_5223)"/>
<path d="M296.681 523.685H168.101C162.25 523.685 157.369 518.923 157.236 513.071L154.829 407.587C154.763 404.635 155.867 401.855 157.928 399.74C159.989 397.639 162.742 396.469 165.694 396.469H299.567C302.519 396.469 305.285 397.639 307.346 399.754C309.407 401.868 310.498 404.675 310.418 407.627L307.519 513.111C307.359 519.043 302.585 523.671 296.654 523.671L296.681 523.685ZM165.707 397.147C162.941 397.147 160.348 398.237 158.42 400.219C156.478 402.201 155.454 404.821 155.521 407.587L157.928 513.071C158.048 518.564 162.622 523.033 168.128 523.033H296.708C302.266 523.033 306.748 518.67 306.907 513.111L309.806 407.627C309.886 404.848 308.862 402.227 306.921 400.232C304.979 398.237 302.386 397.147 299.607 397.147H165.734H165.707Z" fill="#2E3A72"/>
<path d="M257.465 418.374H189.844V421.273H257.465V418.374Z" fill="white"/>
<path d="M223.647 425.423H189.844V428.322H223.647V425.423Z" fill="white"/>
<path d="M223.647 431.302H189.844V434.201H223.647V431.302Z" fill="white"/>
<path d="M254.34 431.302H227.437V434.201H254.34V431.302Z" fill="white"/>
<path d="M244.353 437.18H189.844V440.08H244.353V437.18Z" fill="white"/>
<path d="M209.246 443.059H189.844V445.958H209.246V443.059Z" fill="white"/>
<path d="M246.786 460.695H213.235V463.594H246.786V460.695Z" fill="white"/>
<path d="M250.656 448.938H189.844V451.837H250.656V448.938Z" fill="white"/>
<path d="M236.626 454.816H189.844V457.716H236.626V454.816Z" fill="white"/>
<path d="M211.852 460.695H189.844V463.594H211.852V460.695Z" fill="white"/>
<path d="M223.647 466.587H189.844V469.486H223.647V466.587Z" fill="white"/>
<path d="M199.538 472.466H189.844V475.365H199.538V472.466Z" fill="white"/>
<path d="M238.714 472.466H203.527V475.365H238.714V472.466Z" fill="white"/>
<path d="M246.786 478.172H213.235V481.071H246.786V478.172Z" fill="white"/>
<path d="M211.852 478.172H189.844V481.071H211.852V478.172Z" fill="white"/>
<path d="M223.647 484.05H189.844V486.95H223.647V484.05Z" fill="white"/>
<path d="M199.538 489.929H189.844V492.828H199.538V489.929Z" fill="white"/>
<path d="M238.714 489.929H203.527V492.828H238.714V489.929Z" fill="white"/>
<path d="M641.702 175.752C641.702 179.037 639.042 181.697 635.757 181.697C632.473 181.697 629.813 179.037 629.813 175.752C629.813 172.467 632.473 169.807 635.757 169.807C639.042 169.807 641.702 172.467 641.702 175.752Z" fill="#2E3A72"/>
<path d="M84.6418 313.595C84.6418 317.678 81.3306 320.99 77.248 320.99C73.1655 320.99 69.8542 317.678 69.8542 313.595C69.8542 309.512 73.1655 306.2 77.248 306.2C81.3306 306.2 84.6418 309.512 84.6418 313.595Z" fill="#4883ED"/>
<path d="M653.218 181.697C656.501 181.697 659.162 179.036 659.162 175.752C659.162 172.469 656.501 169.807 653.218 169.807C649.935 169.807 647.273 172.469 647.273 175.752C647.273 179.036 649.935 181.697 653.218 181.697Z" fill="#B12FAE"/>
<path d="M270.005 220.826C272.326 220.826 274.207 218.945 274.207 216.624C274.207 214.302 272.326 212.421 270.005 212.421C267.684 212.421 265.803 214.302 265.803 216.624C265.803 218.945 267.684 220.826 270.005 220.826Z" fill="#B12FAE"/>
<path d="M551.46 406.284C553.781 406.284 555.662 404.402 555.662 402.081C555.662 399.76 553.781 397.878 551.46 397.878C549.139 397.878 547.258 399.76 547.258 402.081C547.258 404.402 549.139 406.284 551.46 406.284Z" fill="#B12FAE"/>
<path d="M114.589 447.727C116.66 447.727 118.339 446.048 118.339 443.977C118.339 441.905 116.66 440.226 114.589 440.226C112.518 440.226 110.839 441.905 110.839 443.977C110.839 446.048 112.518 447.727 114.589 447.727Z" fill="#B12FAE"/>
<path opacity="0.73" d="M178.633 407.095H113.738C108.512 407.095 104.23 402.959 104.057 397.732L102.621 355.038C102.435 349.559 106.823 345.023 112.302 345.023H179.936C185.402 345.023 189.79 349.545 189.617 355.012L188.314 397.705C188.155 402.932 183.873 407.095 178.633 407.095Z" fill="url(#paint77_linear_14_5223)"/>
<path d="M178.633 407.428H113.738C108.313 407.428 103.911 403.172 103.725 397.745L102.288 355.052C102.195 352.312 103.193 349.718 105.094 347.75C106.996 345.782 109.563 344.691 112.302 344.691H179.936C182.676 344.691 185.229 345.768 187.131 347.737C189.032 349.705 190.043 352.285 189.95 355.025L188.647 397.719C188.474 403.158 184.085 407.428 178.633 407.428ZM112.302 345.369C109.749 345.369 107.355 346.38 105.573 348.215C103.791 350.051 102.86 352.472 102.953 355.038L104.39 397.732C104.562 402.799 108.672 406.776 113.738 406.776H178.633C183.713 406.776 187.822 402.786 187.982 397.705L189.285 355.012C189.365 352.458 188.434 350.051 186.652 348.215C184.87 346.38 182.49 345.369 179.936 345.369H112.302Z" fill="#B12FAE"/>
<path d="M131.039 360.359L115.041 378.912L131.332 392.744V385.602L121.903 377.449L130.653 367.541L131.039 360.359Z" fill="white"/>
<path d="M159.165 361.196L175.162 379.75L158.872 393.582V386.44L168.301 378.274L157.808 367.182L159.165 361.196Z" fill="white"/>
<path d="M134.523 392.745L148.46 362.034H155.016L139.231 392.745H134.523Z" fill="white"/>
<path opacity="0.73" d="M615.252 494.943H534.066C527.537 494.943 522.178 489.769 521.952 483.239L520.143 429.839C519.917 422.989 525.396 417.31 532.258 417.31H616.874C623.709 417.31 629.188 422.962 628.989 429.799L627.353 483.199C627.153 489.743 621.794 494.943 615.238 494.943H615.252Z" fill="url(#paint78_linear_14_5223)"/>
<path d="M615.252 495.276H534.066C527.311 495.276 521.859 489.995 521.619 483.252L519.811 429.852C519.691 426.447 520.941 423.228 523.308 420.781C525.675 418.334 528.853 416.991 532.258 416.991H616.874C620.265 416.991 623.443 418.334 625.81 420.768C628.177 423.202 629.427 426.421 629.321 429.812L627.685 483.212C627.473 489.982 622.007 495.289 615.238 495.289L615.252 495.276ZM532.271 417.642C529.053 417.642 526.034 418.919 523.8 421.233C521.566 423.548 520.382 426.607 520.489 429.825L522.297 483.226C522.51 489.61 527.683 494.611 534.08 494.611H615.265C621.674 494.611 626.847 489.596 627.047 483.186L628.683 429.785C628.776 426.567 627.606 423.521 625.358 421.22C623.124 418.906 620.119 417.642 616.9 417.642H532.284H532.271Z" fill="#B12FAE"/>
<path d="M610.77 425.902H536.42V470.072H610.77V425.902Z" fill="#B12FAE"/>
<path d="M567.006 436.861V459.099L586.009 446.956L567.006 436.861Z" fill="white"/>
<path d="M610.77 478.198H536.42V482.241H610.77V478.198Z" fill="#B12FAE"/>
<path d="M555.662 478.198H536.42V482.241H555.662V478.198Z" fill="white"/>
<path fill-rule="evenodd" clip-rule="evenodd" d="M481.951 411.937L478.068 423.042C480.209 416.911 483.294 412.921 481.951 411.937ZM478.068 423.042L474.185 434.148C475.169 433.855 475.927 429.187 478.068 423.042ZM481.951 411.937L478.068 423.042C480.209 416.911 483.294 412.921 481.951 411.937ZM478.068 423.042L474.185 434.148C475.169 433.855 475.927 429.187 478.068 423.042ZM489.265 432.658L493.028 434.8L497.097 423.694L492.736 422.962C492.815 422.55 492.895 422.138 492.948 421.726C493.268 419.824 493.374 417.962 493.321 416.193L497.882 413.333L495.807 403.544L491.432 407.72C490.821 406.47 490.076 405.38 489.198 404.462C488.959 404.196 488.706 403.956 488.44 403.73L491.113 397.559L483.999 395.245L482.297 401.469C480.701 401.469 479.092 401.868 477.483 402.6L476.698 396.721L468.865 402.653L470.674 407.867C469.264 409.476 467.974 411.338 466.857 413.426L463.081 411.298L459.011 422.404L463.373 423.135C462.908 425.476 462.735 427.751 462.801 429.905L458.24 432.765L460.315 442.554L464.69 438.377C465.474 439.973 466.472 441.33 467.682 442.367L465.009 448.552L472.004 451.279L473.081 447.342L473.812 444.655C475.408 444.655 477.03 444.256 478.64 443.538L479.411 449.416L487.243 443.485L485.435 438.271C486.539 437.007 487.576 435.584 488.52 434.015C488.786 433.589 489.025 433.15 489.265 432.698V432.658ZM478.068 423.042C475.913 429.174 478.068 435.505 474.185 434.148C470.288 432.778 468.865 426.7 471.02 420.582C473.174 414.45 478.068 410.593 481.951 411.95C485.847 413.307 480.209 416.911 478.068 423.056V423.042ZM481.951 411.937L478.068 423.042C480.209 416.911 483.294 412.921 481.951 411.937ZM478.068 423.042L474.185 434.148C475.169 433.855 475.927 429.187 478.068 423.042Z" fill="url(#paint79_linear_14_5223)"/>
<path fill-rule="evenodd" clip-rule="evenodd" d="M493.041 434.8L497.111 423.694L492.962 421.726L492.297 421.406L492.736 415.288L497.337 413.041L495.821 403.544L485.781 400.272L487.629 404.675L491.127 397.546L484.012 395.232L481.086 394.274L474.078 391.547L472.775 396.336L466.671 393.436L458.839 399.368L461.219 405.779L453.892 426.075L450.275 439.255L457.23 440.013L454.969 445.24L461.977 447.967L472.004 451.239L470.395 448.02L469.384 446.091L473.094 447.302L479.424 449.363L487.257 443.431L482.416 437.726L488.533 433.962L493.041 434.786V434.8ZM471.006 420.582C473.161 414.45 478.054 410.593 481.938 411.95L478.054 423.056L474.171 434.161C470.275 432.791 468.852 426.713 471.006 420.595V420.582Z" fill="url(#paint80_linear_14_5223)"/>
<path fill-rule="evenodd" clip-rule="evenodd" d="M483.015 431.528L487.084 420.422L482.722 419.691C483.188 417.35 483.36 415.075 483.307 412.934L487.868 410.075L485.794 400.286L481.419 404.462C480.648 402.866 479.637 401.509 478.427 400.472L481.1 394.301L474.092 391.574L472.283 398.211C470.701 398.211 469.065 398.61 467.469 399.328L466.698 393.449L458.865 399.368L460.674 404.582C459.264 406.191 457.974 408.066 456.857 410.154L453.081 408.026L449.011 419.132L453.373 419.864C452.908 422.204 452.735 424.479 452.788 426.62L448.227 429.48L450.301 439.269L454.676 435.092C455.448 436.688 456.458 438.045 457.668 439.082L454.995 445.254L462.004 447.98L463.812 441.343C465.395 441.343 467.03 440.944 468.626 440.226L469.397 446.105L477.23 440.186L475.421 434.973C476.831 433.363 478.121 431.488 479.238 429.4L483.015 431.528ZM464.145 430.876C460.248 429.506 458.839 423.441 460.98 417.31C463.121 411.179 468.028 407.322 471.924 408.678C475.82 410.048 477.23 416.113 475.089 422.244C472.948 428.376 468.041 432.233 464.145 430.876Z" fill="url(#paint81_linear_14_5223)"/>
<g style="mix-blend-mode:multiply" opacity="0.5">
<path fill-rule="evenodd" clip-rule="evenodd" d="M497.882 413.333L487.855 410.061L483.294 412.921L493.334 416.193L497.882 413.333Z" fill="#601734"/>
</g>
<g style="mix-blend-mode:soft-light">
<path fill-rule="evenodd" clip-rule="evenodd" d="M487.257 443.445L477.217 440.173L475.421 434.959L485.448 438.231L487.257 443.445Z" fill="#B3D9FF"/>
</g>
<g style="mix-blend-mode:multiply" opacity="0.5">
<path fill-rule="evenodd" clip-rule="evenodd" d="M478.414 400.459L483.919 402.055L485.781 400.272L489.424 401.469L491.127 397.559L481.086 394.287L478.414 400.459Z" fill="#601734"/>
</g>
<g style="mix-blend-mode:multiply" opacity="0.5">
<path fill-rule="evenodd" clip-rule="evenodd" d="M463.799 441.343L469.052 443.524L468.613 440.213C468.613 440.213 465.78 441.702 463.799 441.33V441.343Z" fill="#601734"/>
</g>
<g style="mix-blend-mode:multiply" opacity="0.5">
<path fill-rule="evenodd" clip-rule="evenodd" d="M464.61 411.258L473.453 415.94C473.453 415.94 474.73 414.224 475.727 413.533C475.727 413.533 473.413 403.77 464.597 411.258H464.61Z" fill="#601734"/>
</g>
<path d="M261.467 80.1638L270.005 97.2545L264.3 99.8481L256.321 84.1406L261.467 80.1638Z" fill="#B12FAE"/>
<path d="M69.3755 478.291L77.2746 486.95L80.3731 483.372L72.9261 475.166L69.3755 478.291Z" fill="#4883ED"/>
<path d="M470.687 184.437L462.735 189.265L459.543 183.227L468.24 178.146L470.687 184.437Z" fill="#2E3A72"/>
<path d="M509.837 489.969L498.441 498.055L495.262 492.017L506.326 485.553L509.837 489.969Z" fill="#2E3A72"/>
<path fill-rule="evenodd" clip-rule="evenodd" d="M494.784 143.114L492.855 98.3452H551.46L549.053 142.994L494.784 143.114Z" fill="#00CBDC"/>
<path fill-rule="evenodd" clip-rule="evenodd" d="M492.855 98.3452L491.1 100.992L492.855 143.114H494.784L492.855 98.3452Z" fill="#4883ED"/>
<path d="M512.324 107.283L503.121 106.299L504.385 136.982L512.324 136.197V133.019L507.723 133.138L507.191 109.477L512.324 109.624V107.283Z" fill="white"/>
<path d="M531.154 107.283L540.356 106.299L539.093 136.982L531.154 136.197V133.019L535.755 133.138L536.274 109.477L531.154 109.624V107.283Z" fill="white"/>
<path fill-rule="evenodd" clip-rule="evenodd" d="M90.6792 241.109L91.9824 210.599H52.0347L53.6837 241.029L90.6792 241.109Z" fill="#00CBDC"/>
<path fill-rule="evenodd" clip-rule="evenodd" d="M91.9824 210.599L93.1792 212.394L91.9824 241.109H90.6792L91.9824 210.599Z" fill="#4883ED"/>
<path d="M76.5964 216.743C76.5964 216.743 80.9715 216.57 81.7561 216.929C82.5274 217.289 81.5566 224.431 81.5566 224.431L83.2987 226.04L81.663 227.623C81.663 227.623 81.7428 234.858 80.7188 235.457C79.6949 236.055 76.1709 235.457 76.1709 235.457V233.648C76.1709 233.648 79.0433 233.834 79.522 233.448C80.0007 233.063 79.9475 226.745 79.9475 226.745L80.7188 225.894L79.9475 224.976C79.9475 224.976 80.0938 220.467 80.0007 219.23C79.9475 218.406 76.5964 218.366 76.5964 218.366V216.743Z" fill="white"/>
<path d="M66.5563 216.743C66.5563 216.743 62.1812 216.57 61.3966 216.929C60.612 217.289 61.5961 224.431 61.5961 224.431L59.854 226.04L61.4897 227.623C61.4897 227.623 61.4099 234.858 62.4339 235.457C63.4578 236.055 66.9818 235.457 66.9818 235.457V233.648C66.9818 233.648 64.1094 233.834 63.6307 233.448C63.152 233.063 63.2052 226.745 63.2052 226.745L62.4339 225.894L63.2052 224.976C63.2052 224.976 63.0589 220.467 63.152 219.23C63.2052 218.406 66.5563 218.366 66.5563 218.366V216.743Z" fill="white"/>
<path d="M427.787 147.157L418 121.527L443.386 126.834L427.787 147.157ZM419.051 122.432L427.987 145.813L442.216 127.273L419.051 122.432Z" fill="#B12FAE"/>
<path d="M506.025 498.356L497.424 510.092L497.96 510.485L506.561 498.749L506.025 498.356Z" fill="#B12FAE"/>
<path d="M417.229 402.281L407.986 390.789L408.505 390.377L417.747 401.868L417.229 402.281Z" fill="#B12FAE"/>
<path fill-rule="evenodd" clip-rule="evenodd" d="M123.113 475.624L129.813 466.828L130.342 467.231L123.651 476.015L132.595 482.507L132.209 483.039L123.248 476.545L116.537 485.355L116.009 484.952L122.709 476.154L113.765 469.673L114.164 469.127L123.113 475.624Z" fill="#B12FAE"/>
<path d="M90.8243 280L90.515 280.589L102.452 286.862L102.761 286.273L90.8243 280Z" fill="#B12FAE"/>
<path d="M561.022 125.916L560.53 125.478L574.32 109.743L574.825 110.196L561.022 125.916Z" fill="#B12FAE"/>
<path d="M293.126 163.962L292.53 164.258L298.696 176.655L299.292 176.358L293.126 163.962Z" fill="#B12FAE"/>
<path d="M210.807 372.572L194.956 385.832L195.382 386.342L211.234 373.082L210.807 372.572Z" fill="#B12FAE"/>
</g>
<defs>
<linearGradient id="paint0_linear_14_5223" x1="188.797" y1="355.367" x2="148.718" y2="269.587" gradientUnits="userSpaceOnUse">
<stop stop-color="#DBCCFF"/>
<stop offset="1" stop-color="#D1BBFF"/>
</linearGradient>
<linearGradient id="paint1_linear_14_5223" x1="190.35" y1="358.723" x2="150.271" y2="272.943" gradientUnits="userSpaceOnUse">
<stop stop-color="#B5A6E7"/>
<stop offset="1" stop-color="#7760BF"/>
</linearGradient>
<linearGradient id="paint2_linear_14_5223" x1="180.387" y1="337.394" x2="163.492" y2="301.234" gradientUnits="userSpaceOnUse">
<stop stop-color="#B5A6E7"/>
<stop offset="1" stop-color="#7760BF"/>
</linearGradient>
<linearGradient id="paint3_linear_14_5223" x1="158.714" y1="304.347" x2="168.967" y2="299.558" gradientUnits="userSpaceOnUse">
<stop stop-color="#8B8BE0"/>
<stop offset="1" stop-color="#A177B7"/>
</linearGradient>
<linearGradient id="paint4_linear_14_5223" x1="164.948" y1="304.341" x2="162.049" y2="298.135" gradientUnits="userSpaceOnUse">
<stop stop-color="white"/>
<stop offset="1" stop-color="#A177B7"/>
</linearGradient>
<linearGradient id="paint5_linear_14_5223" x1="187.543" y1="338.543" x2="168.92" y2="298.683" gradientUnits="userSpaceOnUse">
<stop/>
<stop offset="1" stop-color="white"/>
</linearGradient>
<linearGradient id="paint6_linear_14_5223" x1="337.945" y1="563" x2="337.945" y2="444.349" gradientUnits="userSpaceOnUse">
<stop stop-color="#6456C0"/>
<stop offset="1" stop-color="#5F2C95"/>
</linearGradient>
<radialGradient id="paint7_radial_14_5223" cx="0" cy="0" r="1" gradientUnits="userSpaceOnUse" gradientTransform="translate(281.074 518.562) rotate(12.9919) scale(23.7238 61.4747)">
<stop stop-color="#4B474B"/>
<stop offset="1"/>
</radialGradient>
<radialGradient id="paint8_radial_14_5223" cx="0" cy="0" r="1" gradientUnits="userSpaceOnUse" gradientTransform="translate(390.474 518.768) rotate(-15.6523) scale(23.7239 61.4745)">
<stop stop-color="#4B474B"/>
<stop offset="1"/>
</radialGradient>
<linearGradient id="paint9_linear_14_5223" x1="299.553" y1="521.357" x2="330.671" y2="521.357" gradientUnits="userSpaceOnUse">
<stop stop-color="#9E8CEF"/>
<stop offset="1" stop-color="#CAAFEE"/>
</linearGradient>
<linearGradient id="paint10_linear_14_5223" x1="372.268" y1="521.357" x2="341.15" y2="521.357" gradientUnits="userSpaceOnUse">
<stop stop-color="#9E8CEF"/>
<stop offset="1" stop-color="#CAAFEE"/>
</linearGradient>
<linearGradient id="paint11_linear_14_5223" x1="333.769" y1="563" x2="333.769" y2="444.349" gradientUnits="userSpaceOnUse">
<stop stop-color="#CCCCFF"/>
<stop offset="1" stop-color="#755CBB"/>
</linearGradient>
<linearGradient id="paint12_linear_14_5223" x1="347.586" y1="503.681" x2="347.586" y2="471.322" gradientUnits="userSpaceOnUse">
<stop stop-color="#CCCCFF"/>
<stop offset="1" stop-color="#755CBB"/>
</linearGradient>
<linearGradient id="paint13_linear_14_5223" x1="310.112" y1="491.778" x2="310.112" y2="460.07" gradientUnits="userSpaceOnUse">
<stop stop-color="#CCCCFF"/>
<stop offset="1" stop-color="#755CBB"/>
</linearGradient>
<linearGradient id="paint14_linear_14_5223" x1="342.267" y1="265.675" x2="342.267" y2="218.313" gradientUnits="userSpaceOnUse">
<stop stop-color="#D5CDF8"/>
<stop offset="1" stop-color="#F3EDFB"/>
</linearGradient>
<linearGradient id="paint15_linear_14_5223" x1="317.878" y1="241.947" x2="366.642" y2="241.947" gradientUnits="userSpaceOnUse">
<stop stop-color="#CCCCFF"/>
<stop offset="1" stop-color="#755CBB"/>
</linearGradient>
<linearGradient id="paint16_linear_14_5223" x1="328.317" y1="454.909" x2="328.317" y2="216.251" gradientUnits="userSpaceOnUse">
<stop stop-color="#9E8CEF"/>
<stop offset="1" stop-color="#CAAFEE"/>
</linearGradient>
<linearGradient id="paint17_linear_14_5223" x1="229.286" y1="306.2" x2="287.399" y2="306.2" gradientUnits="userSpaceOnUse">
<stop stop-color="#CCCCFF"/>
<stop offset="1" stop-color="#755CBB"/>
</linearGradient>
<linearGradient id="paint18_linear_14_5223" x1="227.491" y1="373.034" x2="227.491" y2="261.432" gradientUnits="userSpaceOnUse">
<stop stop-color="#9E8CEF"/>
<stop offset="1" stop-color="#DAC7F3"/>
</linearGradient>
<linearGradient id="paint19_linear_14_5223" x1="419.37" y1="340.874" x2="494.252" y2="340.874" gradientUnits="userSpaceOnUse">
<stop stop-color="#A999F1"/>
<stop offset="1" stop-color="#DAC7F3"/>
</linearGradient>
<linearGradient id="paint20_linear_14_5223" x1="203.142" y1="246.216" x2="203.142" y2="216.797" gradientUnits="userSpaceOnUse">
<stop offset="0.02" stop-color="#FFC2A9"/>
<stop offset="1" stop-color="#FF9595"/>
</linearGradient>
<linearGradient id="paint21_linear_14_5223" x1="221.666" y1="245.525" x2="221.666" y2="196.82" gradientUnits="userSpaceOnUse">
<stop stop-color="#FFEADB"/>
<stop offset="0.99" stop-color="#C27CB6"/>
</linearGradient>
<linearGradient id="paint22_linear_14_5223" x1="220.084" y1="278.656" x2="220.084" y2="203.563" gradientUnits="userSpaceOnUse">
<stop offset="0.02" stop-color="#FFC2A9"/>
<stop offset="1" stop-color="#FF9595"/>
</linearGradient>
<linearGradient id="paint23_linear_14_5223" x1="206.652" y1="266.938" x2="230.27" y2="266.938" gradientUnits="userSpaceOnUse">
<stop offset="0.02" stop-color="#D1A1D6"/>
<stop offset="0.99" stop-color="#BD89C4"/>
</linearGradient>
<linearGradient id="paint24_linear_14_5223" x1="495.794" y1="324.395" x2="495.794" y2="223.979" gradientUnits="userSpaceOnUse">
<stop offset="0.02" stop-color="#FFC2A9"/>
<stop offset="1" stop-color="#FF9595"/>
</linearGradient>
<linearGradient id="paint25_linear_14_5223" x1="507.656" y1="292.222" x2="507.656" y2="242.333" gradientUnits="userSpaceOnUse">
<stop stop-color="#FFEADB"/>
<stop offset="0.99" stop-color="#C27CB6"/>
</linearGradient>
<linearGradient id="paint26_linear_14_5223" x1="517.497" y1="275.011" x2="517.497" y2="252.64" gradientUnits="userSpaceOnUse">
<stop stop-color="#FFB0B0"/>
<stop offset="0.98" stop-color="#FFC2A9"/>
</linearGradient>
<linearGradient id="paint27_linear_14_5223" x1="530.462" y1="278.456" x2="530.462" y2="266.193" gradientUnits="userSpaceOnUse">
<stop stop-color="#FFB0B0"/>
<stop offset="0.98" stop-color="#FFC2A9"/>
</linearGradient>
<linearGradient id="paint28_linear_14_5223" x1="478.015" y1="302.902" x2="500.821" y2="302.902" gradientUnits="userSpaceOnUse">
<stop offset="0.02" stop-color="#D1A1D6"/>
<stop offset="0.99" stop-color="#BD89C4"/>
</linearGradient>
<linearGradient id="paint29_linear_14_5223" x1="446.285" y1="381.626" x2="446.285" y2="269.212" gradientUnits="userSpaceOnUse">
<stop stop-color="#CCCCFF"/>
<stop offset="1" stop-color="#755CBB"/>
</linearGradient>
<linearGradient id="paint30_linear_14_5223" x1="198.833" y1="358.975" x2="386.803" y2="358.975" gradientUnits="userSpaceOnUse">
<stop stop-color="#CCCCFF"/>
<stop offset="1" stop-color="#755CBB"/>
</linearGradient>
<linearGradient id="paint31_linear_14_5223" x1="364.555" y1="327.52" x2="400.486" y2="327.52" gradientUnits="userSpaceOnUse">
<stop stop-color="#CCEDFF"/>
<stop offset="1" stop-color="#755CBB"/>
</linearGradient>
<linearGradient id="paint32_linear_14_5223" x1="331.961" y1="390.577" x2="384.768" y2="390.577" gradientUnits="userSpaceOnUse">
<stop stop-color="#CCEDFF"/>
<stop offset="1" stop-color="#755CBB"/>
</linearGradient>
<linearGradient id="paint33_linear_14_5223" x1="334.408" y1="414.464" x2="390.819" y2="414.464" gradientUnits="userSpaceOnUse">
<stop stop-color="#CCEDFF"/>
<stop offset="1" stop-color="#755CBB"/>
</linearGradient>
<linearGradient id="paint34_linear_14_5223" x1="285.856" y1="355.331" x2="285.856" y2="292.009" gradientUnits="userSpaceOnUse">
<stop stop-color="#CCEDFF"/>
<stop offset="1" stop-color="#755CBB"/>
</linearGradient>
<linearGradient id="paint35_linear_14_5223" x1="290.963" y1="360.664" x2="290.963" y2="312.664" gradientUnits="userSpaceOnUse">
<stop stop-color="#CCEDFF"/>
<stop offset="1" stop-color="#755CBB"/>
</linearGradient>
<linearGradient id="paint36_linear_14_5223" x1="215.11" y1="299.297" x2="215.11" y2="263.028" gradientUnits="userSpaceOnUse">
<stop stop-color="#CCEDFF"/>
<stop offset="1" stop-color="#755CBB"/>
</linearGradient>
<linearGradient id="paint37_linear_14_5223" x1="244.446" y1="267.364" x2="259.06" y2="267.364" gradientUnits="userSpaceOnUse">
<stop stop-color="#CCEDFF"/>
<stop offset="1" stop-color="#755CBB"/>
</linearGradient>
<linearGradient id="paint38_linear_14_5223" x1="403.305" y1="355.331" x2="403.305" y2="288.112" gradientUnits="userSpaceOnUse">
<stop stop-color="#CCCCFF"/>
<stop offset="1" stop-color="#755CBB"/>
</linearGradient>
<linearGradient id="paint39_linear_14_5223" x1="478.866" y1="340.874" x2="478.866" y2="305.748" gradientUnits="userSpaceOnUse">
<stop stop-color="#CCCCFF"/>
<stop offset="1" stop-color="#755CBB"/>
</linearGradient>
<linearGradient id="paint40_linear_14_5223" x1="439.038" y1="339.304" x2="439.038" y2="312.451" gradientUnits="userSpaceOnUse">
<stop stop-color="#CCCCFF"/>
<stop offset="1" stop-color="#755CBB"/>
</linearGradient>
<linearGradient id="paint41_linear_14_5223" x1="207.517" y1="301.612" x2="207.517" y2="291.637" gradientUnits="userSpaceOnUse">
<stop stop-color="#CCEDFF"/>
<stop offset="1" stop-color="#755CBB"/>
</linearGradient>
<linearGradient id="paint42_linear_14_5223" x1="234.153" y1="332.016" x2="234.153" y2="277.512" gradientUnits="userSpaceOnUse">
<stop stop-color="#CCCCFF"/>
<stop offset="1" stop-color="#755CBB"/>
</linearGradient>
<linearGradient id="paint43_linear_14_5223" x1="374.342" y1="293.658" x2="374.342" y2="252.64" gradientUnits="userSpaceOnUse">
<stop stop-color="#CCEDFF"/>
<stop offset="1" stop-color="#755CBB"/>
</linearGradient>
<linearGradient id="paint44_linear_14_5223" x1="320.631" y1="288.112" x2="320.631" y2="231.506" gradientUnits="userSpaceOnUse">
<stop stop-color="#CCEDFF"/>
<stop offset="1" stop-color="#755CBB"/>
</linearGradient>
<linearGradient id="paint45_linear_14_5223" x1="301.508" y1="298.46" x2="396.045" y2="298.46" gradientUnits="userSpaceOnUse">
<stop stop-color="#8642A0"/>
<stop offset="1" stop-color="#6456C0"/>
</linearGradient>
<linearGradient id="paint46_linear_14_5223" x1="309.66" y1="243.902" x2="371.177" y2="243.902" gradientUnits="userSpaceOnUse">
<stop stop-color="#CCCCFF"/>
<stop offset="1" stop-color="#755CBB"/>
</linearGradient>
<linearGradient id="paint47_linear_14_5223" x1="467.815" y1="336.87" x2="467.815" y2="301.266" gradientUnits="userSpaceOnUse">
<stop stop-color="#CCCCFF"/>
<stop offset="1" stop-color="#755CBB"/>
</linearGradient>
<linearGradient id="paint48_linear_14_5223" x1="417.481" y1="377.037" x2="417.481" y2="269.212" gradientUnits="userSpaceOnUse">
<stop stop-color="#CCCCFF"/>
<stop offset="1" stop-color="#755CBB"/>
</linearGradient>
<linearGradient id="paint49_linear_14_5223" x1="301.575" y1="427.684" x2="301.575" y2="396.774" gradientUnits="userSpaceOnUse">
<stop stop-color="#CCCCFF"/>
<stop offset="1" stop-color="#755CBB"/>
</linearGradient>
<linearGradient id="paint50_linear_14_5223" x1="361.616" y1="419.199" x2="361.616" y2="404.183" gradientUnits="userSpaceOnUse">
<stop stop-color="#CCCCFF"/>
<stop offset="1" stop-color="#755CBB"/>
</linearGradient>
<linearGradient id="paint51_linear_14_5223" x1="360.951" y1="226.266" x2="360.951" y2="123.576" gradientUnits="userSpaceOnUse">
<stop offset="0.02" stop-color="#FFC2A9"/>
<stop offset="1" stop-color="#FF9595"/>
</linearGradient>
<linearGradient id="paint52_linear_14_5223" x1="322.679" y1="184.823" x2="322.679" y2="154.552" gradientUnits="userSpaceOnUse">
<stop offset="0.02" stop-color="#FFC2A9"/>
<stop offset="1" stop-color="#FF9595"/>
</linearGradient>
<linearGradient id="paint53_linear_14_5223" x1="375.22" y1="196.274" x2="376.497" y2="189.664" gradientUnits="userSpaceOnUse">
<stop stop-color="#E1616A"/>
<stop offset="1" stop-color="#FF8883"/>
</linearGradient>
<linearGradient id="paint54_linear_14_5223" x1="363.77" y1="191.22" x2="363.77" y2="125.065" gradientUnits="userSpaceOnUse">
<stop stop-color="#FFEADB"/>
<stop offset="0.99" stop-color="#C27CB6"/>
</linearGradient>
<linearGradient id="paint55_linear_14_5223" x1="360.539" y1="164.128" x2="360.539" y2="151.027" gradientUnits="userSpaceOnUse">
<stop stop-color="#CF6074"/>
<stop offset="1" stop-color="#F37270"/>
</linearGradient>
<linearGradient id="paint56_linear_14_5223" x1="386.683" y1="168.291" x2="386.683" y2="156.879" gradientUnits="userSpaceOnUse">
<stop stop-color="#CF6074"/>
<stop offset="1" stop-color="#FF817F"/>
</linearGradient>
<linearGradient id="paint57_linear_14_5223" x1="387.747" y1="174.914" x2="387.747" y2="149.258" gradientUnits="userSpaceOnUse">
<stop stop-color="#FFEADB"/>
<stop offset="0.99" stop-color="#C27CB6"/>
</linearGradient>
<linearGradient id="paint58_linear_14_5223" x1="362.334" y1="227.556" x2="362.334" y2="103.014" gradientUnits="userSpaceOnUse">
<stop stop-color="#2E33A0"/>
<stop offset="1" stop-color="#0665A5"/>
</linearGradient>
<linearGradient id="paint59_linear_14_5223" x1="395.034" y1="149.125" x2="395.034" y2="120.397" gradientUnits="userSpaceOnUse">
<stop stop-color="#FFEADB"/>
<stop offset="0.99" stop-color="#8860C7"/>
</linearGradient>
<linearGradient id="paint60_linear_14_5223" x1="355.898" y1="227.556" x2="355.898" y2="103.014" gradientUnits="userSpaceOnUse">
<stop stop-color="#CCC2DB"/>
<stop offset="0.99" stop-color="#8860C7"/>
</linearGradient>
<linearGradient id="paint61_linear_14_5223" x1="364.236" y1="227.53" x2="364.236" y2="222.17" gradientUnits="userSpaceOnUse">
<stop stop-color="#776D7E"/>
<stop offset="1" stop-color="#9D68C2"/>
</linearGradient>
<linearGradient id="paint62_linear_14_5223" x1="379.941" y1="111.951" x2="379.941" y2="107.988" gradientUnits="userSpaceOnUse">
<stop stop-color="#1F77D1"/>
<stop offset="1" stop-color="#0686C9"/>
</linearGradient>
<linearGradient id="paint63_linear_14_5223" x1="354.621" y1="125.039" x2="354.621" y2="113.295" gradientUnits="userSpaceOnUse">
<stop stop-color="#1F77D1"/>
<stop offset="1" stop-color="#0686C9"/>
</linearGradient>
<linearGradient id="paint64_linear_14_5223" x1="397.202" y1="130.997" x2="397.202" y2="120.397" gradientUnits="userSpaceOnUse">
<stop stop-color="#1F77D1"/>
<stop offset="1" stop-color="#0686C9"/>
</linearGradient>
<linearGradient id="paint65_linear_14_5223" x1="327.08" y1="177.654" x2="313.527" y2="161.044" gradientUnits="userSpaceOnUse">
<stop stop-color="#FFEADB"/>
<stop offset="0.99" stop-color="#B060F4"/>
</linearGradient>
<linearGradient id="paint66_linear_14_5223" x1="328.503" y1="175.513" x2="321.84" y2="167.334" gradientUnits="userSpaceOnUse">
<stop stop-color="#FFEADB"/>
<stop offset="0.99" stop-color="#B060F4"/>
</linearGradient>
<linearGradient id="paint67_linear_14_5223" x1="353.836" y1="126.089" x2="376.789" y2="126.089" gradientUnits="userSpaceOnUse">
<stop stop-color="#1F77D1"/>
<stop offset="1" stop-color="#0686C9"/>
</linearGradient>
<linearGradient id="paint68_linear_14_5223" x1="386.217" y1="194.771" x2="393.186" y2="194.771" gradientUnits="userSpaceOnUse">
<stop stop-color="#1F77D1"/>
<stop offset="1" stop-color="#0686C9"/>
</linearGradient>
<linearGradient id="paint69_linear_14_5223" x1="377.627" y1="189.598" x2="385.127" y2="189.598" gradientUnits="userSpaceOnUse">
<stop stop-color="#1F77D1"/>
<stop offset="1" stop-color="#0686C9"/>
</linearGradient>
<linearGradient id="paint70_linear_14_5223" x1="433.027" y1="207.819" x2="668.484" y2="207.819" gradientUnits="userSpaceOnUse">
<stop stop-color="#9D68C2"/>
<stop offset="1" stop-color="#AEC2FF"/>
</linearGradient>
<linearGradient id="paint71_linear_14_5223" x1="480.927" y1="296.757" x2="480.927" y2="225.734" gradientUnits="userSpaceOnUse">
<stop stop-color="#CCEDFF"/>
<stop offset="1" stop-color="#9D68C2"/>
</linearGradient>
<linearGradient id="paint72_linear_14_5223" x1="602.02" y1="262.137" x2="602.02" y2="230.855" gradientUnits="userSpaceOnUse">
<stop stop-color="#CCEDFF"/>
<stop offset="1" stop-color="#9D68C2"/>
</linearGradient>
<linearGradient id="paint73_linear_14_5223" x1="638.922" y1="262.137" x2="638.922" y2="230.855" gradientUnits="userSpaceOnUse">
<stop stop-color="#CCEDFF"/>
<stop offset="1" stop-color="#9D68C2"/>
</linearGradient>
<linearGradient id="paint74_linear_14_5223" x1="564.492" y1="262.137" x2="564.492" y2="230.855" gradientUnits="userSpaceOnUse">
<stop stop-color="#CCEDFF"/>
<stop offset="1" stop-color="#9D68C2"/>
</linearGradient>
<linearGradient id="paint75_linear_14_5223" x1="228.062" y1="185.262" x2="228.062" y2="152.517" gradientUnits="userSpaceOnUse">
<stop stop-color="#D93DE3"/>
<stop offset="1" stop-color="#FF6DBA"/>
</linearGradient>
<linearGradient id="paint76_linear_14_5223" x1="222.384" y1="530.242" x2="240.089" y2="389.247" gradientUnits="userSpaceOnUse">
<stop stop-color="#067EFF"/>
<stop offset="1" stop-color="#3E37A0"/>
</linearGradient>
<linearGradient id="paint77_linear_14_5223" x1="146.119" y1="407.095" x2="146.119" y2="345.023" gradientUnits="userSpaceOnUse">
<stop stop-color="#D906E3"/>
<stop offset="1" stop-color="#FF6DF9"/>
</linearGradient>
<linearGradient id="paint78_linear_14_5223" x1="574.572" y1="494.943" x2="574.572" y2="417.297" gradientUnits="userSpaceOnUse">
<stop stop-color="#D906E3"/>
<stop offset="1" stop-color="#FF6DF9"/>
</linearGradient>
<linearGradient id="paint79_linear_14_5223" x1="473.853" y1="451.532" x2="482.22" y2="394.985" gradientUnits="userSpaceOnUse">
<stop stop-color="#1852A0"/>
<stop offset="1" stop-color="#067ED3"/>
</linearGradient>
<linearGradient id="paint80_linear_14_5223" x1="467.608" y1="450.071" x2="482.735" y2="393.898" gradientUnits="userSpaceOnUse">
<stop stop-color="#1852A0"/>
<stop offset="1" stop-color="#067ED3"/>
</linearGradient>
<linearGradient id="paint81_linear_14_5223" x1="461.166" y1="445.994" x2="470.084" y2="389.209" gradientUnits="userSpaceOnUse">
<stop stop-color="#188DC1"/>
<stop offset="1" stop-color="#06BFE7"/>
</linearGradient>
<clipPath id="clip0_14_5223">
<rect width="670" height="563" fill="white"/>
</clipPath>
</defs>
</svg>
