<svg width="41" height="41" viewBox="0 0 41 41" fill="none" xmlns="http://www.w3.org/2000/svg">
<g id="contacts">
<path id="Exclude" fill-rule="evenodd" clip-rule="evenodd" d="M0.157654 20.1577C0.157654 9.11192 9.11187 0.157715 20.1576 0.157715C31.2032 0.157715 40.1576 9.11192 40.1577 20.1577C40.1577 31.2034 31.2034 40.1576 20.1576 40.1576C9.11187 40.1576 0.157654 31.2034 0.157654 20.1577ZM8.19447 11.9746C8.38247 11.8999 8.58113 11.8635 8.7918 11.8635L31.778 11.8639C32.0495 11.8624 32.317 11.9294 32.5558 12.0586L28.8754 15.8501L25.0558 19.7808L21.278 23.6835C21.2199 23.7285 21.1756 23.7696 21.1357 23.8067C21.0732 23.8648 21.0212 23.9132 20.9425 23.9515C20.7705 24.035 20.5754 24.0897 20.3843 24.083C20.2074 24.0768 20.0358 24.0035 19.8771 23.9244C19.7958 23.8835 19.6993 23.806 19.6276 23.7484C19.5907 23.7188 19.5604 23.6945 19.542 23.683L16.278 20.3359L16.0558 20.0999L15.9447 19.9888L15.8336 19.8777L15.7642 19.7941L11.9585 15.8497L8.19447 11.9746ZM6.98602 13.9328C6.98602 13.2875 7.23758 12.7159 7.63891 12.3355L7.66647 12.363L11.486 16.3075L15.3056 20.2381L15.3749 20.3213L11.8887 23.6964L7.95802 27.5159L7.43047 28.0159C7.15358 27.6519 6.98602 27.1772 6.98602 26.655V13.9328ZM29.3336 16.3079L33.0558 12.4608C33.3843 12.8359 33.5834 13.3577 33.5834 13.9328V26.655C33.5834 27.1057 33.4616 27.5239 33.25 27.8635L33.014 27.6412L29.0834 23.8217L25.4585 20.3079L25.5278 20.2386L29.3336 16.3079ZM12.3474 24.155L15.8194 20.7799L19.1256 24.1692C19.142 24.183 19.1576 24.1961 19.1724 24.2086C19.303 24.3185 19.3752 24.3793 19.4994 24.4404C19.7745 24.5755 20.0754 24.6955 20.382 24.7003C20.6878 24.7048 20.9918 24.5963 21.2696 24.4679C21.3755 24.4191 21.4609 24.3513 21.5519 24.2791C21.6091 24.2337 21.6686 24.1865 21.7367 24.1412L25.0007 20.7803L28.6256 24.2803L32.57 28.0999L32.8198 28.3497C32.5238 28.5884 32.1691 28.7386 31.778 28.7386H8.7918C8.46647 28.7386 8.16647 28.6306 7.90291 28.4608L8.40291 27.9746L12.3474 24.155Z" fill="#C5C8DA"/>
</g>
</svg>
