<svg width="40" height="40" viewBox="0 0 40 40" fill="none" xmlns="http://www.w3.org/2000/svg">
<g id="contacts">
<path id="Vector" d="M20 0C8.9557 0 -6.10352e-05 9.18083 -6.10352e-05 20.5063C-6.10352e-05 29.5667 5.73056 37.2532 13.6773 39.9648C14.6768 40.1546 15.0438 39.5199 15.0438 38.9783C15.0438 38.4893 15.0251 36.8738 15.0167 35.1604C9.45247 36.4008 8.27839 32.7409 8.27839 32.7409C7.36862 30.3706 6.05776 29.7405 6.05776 29.7405C4.24324 28.4677 6.19454 28.4938 6.19454 28.4938C8.20294 28.6385 9.26047 30.607 9.26047 30.607C11.0443 33.7421 13.9392 32.8356 15.0805 32.3118C15.2599 30.9863 15.7784 30.0818 16.3503 29.5697C11.9081 29.051 7.23811 27.2927 7.23811 19.4353C7.23811 17.1966 8.01942 15.3672 9.29891 13.9312C9.09123 13.4146 8.4067 11.329 9.49262 8.50439C9.49262 8.50439 11.1721 7.95323 14.9941 10.6064C16.5893 10.1519 18.3003 9.92417 20 9.91645C21.6997 9.92417 23.412 10.1519 25.0104 10.6064C28.8278 7.95323 30.5049 8.50439 30.5049 8.50439C31.5935 11.329 30.9087 13.4146 30.701 13.9312C31.9833 15.3672 32.7593 17.1965 32.7593 19.4353C32.7593 27.3114 28.0805 29.0457 23.627 29.5533C24.3443 30.1897 24.9835 31.4377 24.9835 33.3508C24.9835 36.0945 24.9603 38.3028 24.9603 38.9783C24.9603 39.5239 25.3203 40.1634 26.3342 39.962C34.2765 37.2474 39.9999 29.5636 39.9999 20.5063C39.9999 9.18083 31.0454 0 20 0Z" fill="#C5C8DA"/>
</g>
</svg>
