<svg width="496" height="443" viewBox="0 0 496 443" fill="none" xmlns="http://www.w3.org/2000/svg">
<ellipse cx="359.5" cy="136" rx="135.5" ry="136" fill="#B12FAE" fill-opacity="0.12"/>
<path d="M494.75 136C494.75 210.974 434.196 271.75 359.5 271.75C284.804 271.75 224.25 210.974 224.25 136C224.25 61.0265 284.804 0.25 359.5 0.25C434.196 0.25 494.75 61.0265 494.75 136Z" stroke="#B12FAE" stroke-opacity="0.72" stroke-width="0.5"/>
<g style="mix-blend-mode:multiply">
<path d="M450.002 415C450.002 429.905 349.261 442 225.002 442C100.743 442 0.00192261 429.905 0.00192261 415C0.00192261 400.095 100.743 388 225.002 388C349.261 388 450.002 400.082 450.002 415Z" fill="#C5C8DA"/>
</g>
<path d="M122.341 328.45C119.531 328.716 116.807 329.795 113.955 329.784C110.515 329.763 110.9 318.81 110.494 316.035C109.479 309.214 106.637 302.105 100.537 298.337C94.7793 294.793 87.0449 295.454 82.0347 299.874C78.7017 302.809 76.6934 306.844 74.7491 310.837C73.1894 309.203 71.5015 307.784 70.5828 306.887C64.9851 301.411 58.9707 296.287 52.5397 291.825C47.5936 288.388 40.9275 284.097 34.6354 284.502C27.5848 284.951 27.1254 292.871 27.8732 298.23C27.9373 298.689 28.0335 299.137 28.1082 299.596C26.1426 298.07 24.1449 296.575 22.1045 295.145C16.0047 290.854 7.41576 289.914 2.52306 296.372C2.3735 296.565 2.27736 296.757 2.20258 296.938C2.05302 297.077 1.91414 297.237 1.78595 297.44C-2.391 304.165 1.29454 311.712 7.30893 315.907C9.40275 317.369 11.5927 318.725 13.7934 320.038C8.72973 320.913 3.6768 322.792 2.19189 327.339C0.279682 333.146 6.25134 338.025 9.94757 341.409C15.7269 346.692 22.8951 350.621 29.8388 354.165C33.5137 356.043 37.3702 358.125 41.3655 359.566C38.556 362.672 35.8105 365.779 33.8983 369.632C30.9071 375.663 33.1932 383.2 38.0539 387.544C43.5021 392.412 51.0655 392.486 57.8917 391.312C60.509 390.864 71.3627 386.466 72.7194 388.953C73.9479 391.195 74.0761 394.248 74.5141 396.724C75.155 400.354 76.7147 403.748 79.2679 406.427C84.1713 411.562 91.6919 411.925 98.2939 411.146C105.911 410.238 113.421 407.431 120.343 404.239C124.125 402.499 127.81 400.546 131.507 398.646C133.269 397.749 136.752 394.6 138.846 395.059C139.967 395.486 141.142 395.23 142.04 394.568C142.307 394.387 142.542 394.162 142.734 393.917C142.788 393.853 142.83 393.789 142.884 393.725C142.905 393.693 142.926 393.661 142.958 393.629C142.98 393.597 143.001 393.565 143.023 393.533C143.065 393.469 143.108 393.394 143.151 393.33C143.311 393.052 143.428 392.753 143.503 392.444C143.802 391.366 143.621 390.181 142.82 389.284C141.762 387.662 143.151 383.979 143.418 382.26C144.069 378.183 144.337 373.987 144.678 369.878C145.319 362.149 145.106 354.271 143.535 346.66C142.2 340.149 139.177 333.243 132.97 330.083C129.594 328.364 126.048 328.129 122.33 328.492L122.341 328.45Z" fill="#BC74E1"/>
<path d="M69.0125 315.384C69.0979 314.498 68.4463 313.708 67.5596 313.623C66.673 313.537 65.8824 314.188 65.797 315.074L63.6711 337.181C57.2935 332.794 50.9052 328.418 44.5169 324.03L46.8137 300.141C46.8992 299.255 46.2475 298.465 45.3609 298.379C44.4742 298.294 43.6837 298.945 43.5982 299.831L41.4724 321.938C34.3897 317.071 27.307 312.214 20.2351 307.346C20.2137 307.325 20.1816 307.303 20.1603 307.293C18.4404 306.108 16.6029 308.776 18.3228 309.961C18.3549 309.983 18.3763 309.993 18.4083 310.015C25.491 314.872 32.5736 319.739 39.6456 324.596L19.7543 334.502C18.9531 334.897 18.6326 335.869 19.0279 336.669C19.4232 337.47 20.3953 337.79 21.1965 337.395L42.6902 326.688C49.0785 331.076 55.4561 335.463 61.8443 339.839L41.9531 349.735C41.1519 350.14 40.8314 351.112 41.2266 351.902C41.6326 352.702 42.594 353.033 43.3952 352.628L64.8889 341.921C71.7686 346.639 78.6483 351.368 85.5173 356.086L65.626 365.992C64.8248 366.387 64.5044 367.359 64.8996 368.159C65.2949 368.96 66.267 369.28 67.0682 368.885L88.5619 358.178C96.0505 363.324 103.539 368.469 111.028 373.614L91.1364 383.52C90.3352 383.915 90.0147 384.886 90.41 385.687C90.8053 386.487 91.7774 386.808 92.5786 386.413L114.072 375.706C120.749 380.296 127.436 384.886 134.124 389.476C135.844 390.661 137.681 387.993 135.961 386.808C129.274 382.218 122.597 377.628 115.92 373.037L118.217 349.148C118.303 348.262 117.651 347.472 116.754 347.386C115.867 347.301 115.076 347.952 114.991 348.838L112.865 370.945C105.377 365.8 97.8879 360.666 90.3993 355.51L92.6961 331.62C92.7816 330.734 92.1299 329.933 91.2433 329.859C90.3566 329.773 89.5661 330.424 89.4806 331.31L87.3547 353.407C80.475 348.689 73.5954 343.96 66.7264 339.242L69.0232 315.352L69.0125 315.384Z" fill="#A364C8"/>
<path d="M176 303.887C172.453 303.023 168.682 303.183 165.211 301.955C161.023 300.471 166.151 287.267 166.824 283.712C168.49 274.949 168.052 265.064 162.209 257.891C156.696 251.123 146.975 248.646 138.984 251.913C133.675 254.08 129.498 258.136 125.439 262.192C124.221 259.545 122.768 257.09 122.031 255.606C117.534 246.543 112.374 237.737 106.423 229.55C101.851 223.262 95.5377 215.192 87.6859 213.015C78.894 210.57 74.9628 220.028 73.5954 226.892C73.4779 227.479 73.3924 228.066 73.3069 228.653C71.555 225.952 69.7496 223.284 67.8694 220.668C62.2503 212.844 52.1658 208.051 43.4487 213.847C43.1923 214.018 42.9893 214.21 42.8184 214.402C42.5834 214.509 42.3376 214.648 42.1026 214.84C34.144 221.266 35.4259 232.047 40.9916 239.722C42.9252 242.402 45.019 244.974 47.1449 247.515C40.5964 246.426 33.6312 246.575 29.8709 251.486C25.0743 257.762 30.2875 266.249 33.3535 271.949C38.15 280.852 45.2327 288.687 52.1978 295.956C55.8834 299.799 59.6971 303.983 63.9595 307.431C59.2057 310.036 54.548 312.651 50.5634 316.547C44.346 322.632 43.9294 332.805 48.0209 340.17C52.5931 348.422 61.8016 351.731 70.6362 353.193C74.0227 353.759 89.1388 352.99 89.737 356.609C90.2818 359.865 89.1388 363.654 88.626 366.857C87.8675 371.554 88.3269 376.368 90.3032 380.723C94.0956 389.071 103.122 392.711 111.508 394.557C121.187 396.692 131.56 396.447 141.356 395.497C146.708 394.974 152.039 394.152 157.359 393.404C159.891 393.052 165.478 390.693 167.839 392.145C169.024 393.148 170.573 393.33 171.951 392.903C172.347 392.785 172.731 392.615 173.073 392.401C173.159 392.348 173.244 392.284 173.329 392.23C173.372 392.198 173.415 392.177 173.458 392.145C173.5 392.113 173.543 392.081 173.575 392.049C173.661 391.985 173.735 391.921 173.821 391.857C174.131 391.59 174.408 391.28 174.633 390.928C175.455 389.732 175.733 388.206 175.135 386.776C174.537 384.352 177.795 380.446 178.863 378.46C181.384 373.763 183.51 368.757 185.668 363.889C189.738 354.73 192.826 345.027 194.15 335.068C195.283 326.549 194.545 316.846 188.307 310.345C184.92 306.812 180.69 305.03 176 303.877V303.887Z" fill="#08E1B6"/>
<path d="M116.487 265.288C116.967 264.242 116.508 263.004 115.461 262.523C114.414 262.043 113.175 262.502 112.684 263.548L100.687 289.615C94.7579 281.556 88.8397 273.486 82.9107 265.427L95.8796 237.246C96.3603 236.2 95.9009 234.962 94.854 234.471C93.8071 233.99 92.5679 234.449 92.0765 235.495L80.0798 261.563C73.5099 252.617 66.94 243.683 60.3595 234.737C60.3381 234.705 60.306 234.673 60.2847 234.631C58.6929 232.464 55.3172 234.93 56.9196 237.107C56.941 237.139 56.973 237.182 56.9944 237.214C63.5643 246.159 70.1342 255.094 76.7147 264.039L48.2345 267.679C47.0915 267.829 46.2796 268.875 46.4291 270.017C46.5787 271.159 47.6256 271.97 48.7687 271.821L79.5563 267.893C85.4853 275.952 91.4035 284.022 97.3324 292.081L68.8522 295.721C67.7092 295.871 66.8973 296.917 67.0468 298.059C67.1964 299.201 68.2433 300.013 69.3864 299.863L100.174 295.935C106.562 304.624 112.94 313.302 119.328 321.991L90.848 325.632C89.705 325.781 88.8931 326.827 89.0426 327.969C89.1922 329.111 90.2391 329.923 91.3821 329.773L122.17 325.845C129.124 335.303 136.079 344.76 143.023 354.218L114.542 357.858C113.399 358.008 112.587 359.054 112.737 360.196C112.887 361.338 113.933 362.149 115.076 362L145.864 358.072C152.071 366.515 158.267 374.948 164.474 383.392C166.076 385.569 169.441 383.093 167.839 380.915C161.632 372.482 155.436 364.039 149.229 355.606L162.198 327.425C162.679 326.379 162.219 325.141 161.173 324.649C160.126 324.169 158.886 324.628 158.395 325.674L146.398 351.742C139.444 342.284 132.489 332.826 125.546 323.369L138.514 295.188C138.995 294.141 138.536 292.903 137.489 292.412C136.442 291.932 135.203 292.391 134.711 293.437L122.715 319.504C116.326 310.815 109.949 302.137 103.56 293.448L116.529 265.267L116.487 265.288Z" fill="#04C89B"/>
<path d="M324.693 335.591C320.142 338.687 318.465 344.387 318.07 349.617C317.6 355.734 318.209 361.925 319.48 367.914C320.153 371.095 320.783 374.361 321.691 377.478C322.076 378.802 323.529 381.545 322.856 382.922C322.311 383.701 322.29 384.651 322.632 385.463C322.728 385.698 322.845 385.922 322.995 386.114C322.995 386.114 323.07 386.21 323.112 386.263C323.134 386.285 323.155 386.317 323.176 386.338C323.198 386.359 323.219 386.381 323.24 386.402C323.283 386.445 323.326 386.487 323.379 386.53C323.561 386.701 323.764 386.85 323.988 386.968C324.757 387.395 325.708 387.48 326.541 387.032C328.144 386.466 331.178 388.58 332.641 389.113C335.729 390.234 338.805 391.398 341.935 392.39C347.672 394.205 353.825 395.668 359.882 395.614C365.128 395.572 370.982 394.536 374.304 390.031C376.035 387.683 376.921 384.865 377.06 381.961C377.156 379.987 376.953 377.585 377.701 375.706C378.524 373.625 387.454 375.994 389.548 376.09C395.007 376.336 400.925 375.525 404.707 371.169C408.083 367.284 409.119 361.157 406.181 356.737C404.301 353.909 401.855 351.752 399.334 349.596C402.314 348.07 405.134 346.063 407.816 344.227C412.901 340.768 418.125 336.979 422.12 332.271C424.673 329.261 428.871 324.852 426.799 320.486C425.186 317.081 421.03 316.099 416.992 315.928C418.584 314.679 420.154 313.399 421.661 312.054C425.955 308.168 428.092 301.891 424.15 297.045C424.032 296.896 423.904 296.789 423.776 296.693C423.69 296.554 423.605 296.415 423.466 296.276C419.001 291.708 412.367 293.298 408.019 297.259C406.566 298.582 405.145 299.949 403.756 301.336C403.778 300.973 403.799 300.61 403.799 300.247C403.852 295.978 402.709 289.829 397.144 290.171C392.176 290.48 387.38 294.494 383.854 297.675C379.261 301.817 375.062 306.417 371.227 311.264C370.597 312.054 369.422 313.334 368.354 314.765C366.441 311.829 364.465 308.883 361.559 306.908C357.201 303.952 351.08 304.186 346.924 307.538C342.523 311.082 341.006 316.932 340.888 322.376C340.846 324.585 342.224 333.125 339.542 333.477C337.31 333.776 335.077 333.2 332.844 333.264C329.896 333.36 327.15 333.883 324.672 335.57L324.693 335.591Z" fill="#08E1B6"/>
<path d="M373.311 317.775C373.161 317.092 373.588 316.409 374.272 316.249C374.956 316.099 375.639 316.526 375.8 317.209L379.656 334.299C384.218 330.232 388.779 326.165 393.341 322.098L389.174 303.621C389.025 302.927 389.452 302.254 390.136 302.094C390.83 301.945 391.514 302.372 391.663 303.055L395.52 320.145C400.584 315.64 405.636 311.125 410.7 306.62C410.721 306.599 410.743 306.588 410.754 306.567C411.982 305.467 413.681 307.378 412.452 308.467C412.431 308.488 412.409 308.499 412.399 308.52C407.335 313.025 402.282 317.54 397.218 322.045L413.777 327.82C414.439 328.055 414.792 328.781 414.557 329.442C414.322 330.104 413.595 330.456 412.933 330.232L395.039 323.988C390.478 328.055 385.916 332.122 381.355 336.189L397.913 341.974C398.575 342.209 398.928 342.935 398.693 343.597C398.458 344.259 397.731 344.611 397.069 344.376L379.175 338.132C374.261 342.508 369.347 346.895 364.433 351.272L380.991 357.047C381.654 357.282 382.006 358.008 381.771 358.669C381.536 359.331 380.81 359.684 380.147 359.449L362.254 353.204C356.902 357.976 351.55 362.736 346.198 367.508L362.756 373.294C363.418 373.528 363.771 374.254 363.536 374.916C363.301 375.578 362.574 375.93 361.912 375.706L344.018 369.461C339.243 373.721 334.468 377.969 329.693 382.228C328.464 383.328 326.766 381.417 327.994 380.318C332.769 376.058 337.545 371.81 342.32 367.551L338.154 349.073C338.004 348.39 338.431 347.707 339.115 347.547C339.809 347.397 340.482 347.824 340.643 348.507L344.499 365.597C349.851 360.826 355.203 356.054 360.555 351.283L356.389 332.805C356.239 332.122 356.667 331.439 357.35 331.278C358.034 331.129 358.718 331.556 358.878 332.239L362.735 349.329C367.649 344.953 372.563 340.565 377.477 336.189L373.311 317.711V317.775Z" fill="#04C89B"/>
<path d="M338.859 188.047C336.829 190.822 337.032 194.526 337.897 197.686C338.901 201.39 340.557 204.902 342.555 208.158C343.612 209.887 344.67 211.68 345.867 213.324C346.369 214.018 347.8 215.331 347.693 216.281C347.544 216.858 347.725 217.413 348.099 217.829C348.206 217.946 348.324 218.053 348.452 218.138C348.452 218.138 348.516 218.181 348.548 218.203C348.559 218.203 348.58 218.224 348.601 218.235C348.623 218.235 348.633 218.256 348.655 218.267C348.687 218.288 348.729 218.299 348.762 218.32C348.9 218.384 349.061 218.427 349.21 218.448C349.755 218.533 350.332 218.395 350.727 217.957C351.55 217.284 353.782 217.904 354.755 217.904C356.806 217.914 358.857 217.957 360.908 217.893C364.657 217.765 368.599 217.338 372.146 216.036C375.223 214.915 378.46 213.079 379.474 209.738C379.998 207.987 379.934 206.151 379.41 204.411C379.058 203.226 378.438 201.86 378.481 200.589C378.524 199.191 384.282 198.721 385.532 198.337C388.8 197.344 392.112 195.626 393.426 192.274C394.601 189.285 393.928 185.464 391.279 183.467C389.58 182.197 387.679 181.439 385.756 180.692C387.187 179.176 388.427 177.394 389.623 175.76C391.888 172.665 394.174 169.345 395.541 165.737C396.417 163.431 397.966 159.962 395.83 157.827C394.163 156.162 391.514 156.45 389.1 157.187C389.773 156.119 390.435 155.041 391.033 153.931C392.753 150.75 392.7 146.608 389.356 144.569C389.26 144.505 389.164 144.473 389.068 144.441C388.993 144.377 388.907 144.313 388.8 144.26C385.211 142.509 381.643 144.825 379.912 148.06C379.336 149.149 378.78 150.248 378.257 151.358C378.192 151.145 378.128 150.921 378.054 150.707C377.188 148.177 375.233 144.804 372.029 146.17C369.166 147.387 367.189 150.76 365.779 153.365C363.942 156.76 362.435 160.346 361.186 163.997C360.983 164.595 360.555 165.598 360.235 166.666C358.493 165.342 356.709 164.008 354.594 163.463C351.411 162.631 347.853 164.05 346.112 166.89C344.264 169.9 344.595 173.657 345.664 176.892C346.102 178.205 348.697 182.944 347.191 183.713C345.941 184.353 344.499 184.481 343.206 184.983C341.487 185.656 339.98 186.542 338.88 188.047H338.859Z" fill="#BC74E1"/>
<path d="M363.749 167.402C363.514 167.028 363.621 166.537 363.995 166.303C364.369 166.068 364.86 166.175 365.095 166.548L370.95 175.803C372.787 172.462 374.614 169.11 376.451 165.758L370.127 155.756C369.892 155.382 369.999 154.891 370.373 154.657C370.747 154.422 371.238 154.529 371.473 154.902L377.327 164.157C379.368 160.442 381.397 156.727 383.438 153.023C383.438 153.013 383.448 152.991 383.459 152.981C383.951 152.073 385.35 152.842 384.859 153.749C384.859 153.76 384.848 153.781 384.837 153.792C382.797 157.507 380.767 161.211 378.727 164.926L389.687 164.872C390.125 164.872 390.488 165.224 390.488 165.662C390.488 166.1 390.136 166.463 389.698 166.463L377.861 166.527C376.024 169.879 374.197 173.22 372.36 176.572L383.32 176.518C383.758 176.518 384.121 176.87 384.121 177.308C384.121 177.746 383.769 178.109 383.331 178.109L371.494 178.173C369.518 181.781 367.542 185.378 365.566 188.986L376.515 188.933C376.953 188.933 377.317 189.285 377.317 189.723C377.317 190.16 376.964 190.523 376.526 190.523L364.69 190.587C362.542 194.516 360.384 198.444 358.237 202.372L369.187 202.319C369.625 202.319 369.988 202.671 369.988 203.109C369.988 203.546 369.636 203.909 369.198 203.909L357.361 203.973C355.438 207.474 353.526 210.976 351.603 214.488C351.112 215.395 349.712 214.626 350.204 213.719C352.127 210.218 354.049 206.717 355.962 203.215L349.638 193.213C349.403 192.84 349.52 192.349 349.883 192.114C350.257 191.879 350.749 191.986 350.984 192.359L356.838 201.614C358.996 197.686 361.143 193.758 363.301 189.829L356.977 179.827C356.742 179.454 356.848 178.963 357.222 178.728C357.596 178.493 358.088 178.6 358.323 178.973L364.166 188.228C366.142 184.62 368.119 181.023 370.095 177.415L363.771 167.413L363.749 167.402Z" fill="#A364C8"/>
<path d="M105.035 65.1289H95.6018L103.828 46H113.271L105.035 65.1289Z" fill="#6833A3"/>
<path d="M118.73 65.1289H109.297L117.523 46H126.966L118.73 65.1289Z" fill="#6833A3"/>
<path d="M132.436 65.1289H122.992L131.218 46H140.662L132.436 65.1289Z" fill="#6833A3"/>
<path opacity="0.4" d="M146.121 65.1289H136.688L144.913 46H154.357L146.121 65.1289Z" fill="#6833A3"/>
<path opacity="0.4" d="M159.826 65.1289H150.383L158.609 46H168.052L159.826 65.1289Z" fill="#6833A3"/>
<path opacity="0.4" d="M173.522 65.1289H164.078L172.304 46H181.747L173.522 65.1289Z" fill="#6833A3"/>
<path opacity="0.4" d="M187.217 65.1289H177.773L185.999 46H195.443L187.217 65.1289Z" fill="#6833A3"/>
<path d="M367.713 66.73H406.737C411.095 66.73 414.642 70.2633 414.642 74.6292V103.141C414.642 107.496 411.106 111.04 406.737 111.04H367.713C363.354 111.04 359.818 107.507 359.818 103.152V74.6399C359.818 70.2847 363.354 66.7407 367.723 66.7407L367.713 66.73Z" stroke="#6833A3" stroke-miterlimit="10"/>
<path d="M394.996 86.809H379.453V90.94H394.996V86.809Z" fill="#6833A3"/>
<path d="M389.303 81.1087H385.168V96.6402H389.303V81.1087Z" fill="#6833A3"/>
<path d="M118.933 115.769V111.606H112.919C112.705 110.741 112.363 109.919 111.904 109.172L116.166 104.913L113.218 101.967L108.955 106.226C108.207 105.778 107.396 105.425 106.52 105.212V99.1914H102.353V105.212C101.488 105.425 100.665 105.767 99.9177 106.226L95.6552 101.967L92.7068 104.913L96.9692 109.172C96.5205 109.919 96.168 110.731 95.9544 111.595H89.9293V115.758H95.9544C96.168 116.623 96.5099 117.445 96.9585 118.192L92.6961 122.451L95.6446 125.398L99.907 121.138C100.655 121.587 101.467 121.939 102.343 122.152V128.162H106.509V122.152C107.374 121.939 108.197 121.597 108.945 121.138L113.207 125.398L116.155 122.451L111.893 118.192C112.342 117.445 112.694 116.634 112.908 115.758H118.922L118.933 115.769ZM104.436 117.658C102.246 117.658 100.462 115.876 100.462 113.687C100.462 111.499 102.246 109.717 104.436 109.717C106.626 109.717 108.41 111.499 108.41 113.687C108.41 115.876 106.626 117.658 104.436 117.658Z" fill="#6833A3"/>
<path d="M235.898 59.2792V56.7813H232.288C232.159 56.2583 231.956 55.7672 231.679 55.3189L234.232 52.7677L232.458 50.9957L229.905 53.5469C229.457 53.28 228.965 53.0666 228.442 52.9385V49.3304H225.942V52.9385C225.419 53.0666 224.927 53.2694 224.478 53.5469L221.925 50.9957L220.152 52.7677L222.705 55.3189C222.438 55.7672 222.224 56.2583 222.096 56.7813H218.485V59.2792H222.096C222.224 59.8022 222.427 60.2932 222.705 60.7416L220.152 63.2928L221.925 65.0648L224.478 62.5136C224.927 62.7804 225.419 62.9939 225.942 63.122V66.73H228.442V63.122C228.965 62.9939 229.457 62.7911 229.905 62.5136L232.458 65.0648L234.232 63.2928L231.679 60.7416C231.946 60.2932 232.159 59.8022 232.288 59.2792H235.898ZM227.192 60.4107C225.878 60.4107 224.81 59.3432 224.81 58.0302C224.81 56.7173 225.878 55.6498 227.192 55.6498C228.506 55.6498 229.574 56.7173 229.574 58.0302C229.574 59.3432 228.506 60.4107 227.192 60.4107Z" fill="#BC74E1"/>
<path d="M331.317 88.6236H153.054C152.049 88.6236 151.067 88.7624 150.127 88.9866L149.646 86.9904L144.913 91.7299C144.561 92.0502 144.219 92.3811 143.909 92.7333L143.802 92.8401C141.944 94.9964 140.801 97.7931 140.801 100.857V409.512C140.801 416.27 146.281 421.746 153.043 421.746H331.306C338.068 421.746 343.548 416.27 343.548 409.512V100.857C343.548 94.0997 338.068 88.6236 331.306 88.6236H331.317Z" fill="#7CA1D6"/>
<path d="M157.244 83.9161H335.507C342.27 83.9161 347.75 89.4029 347.75 96.1492V404.805C347.75 411.562 342.259 417.038 335.507 417.038H157.244C150.482 417.038 145.002 411.551 145.002 404.805V96.1492C145.002 89.3922 150.493 83.9161 157.244 83.9161Z" fill="url(#paint0_linear_14_5663)"/>
<path d="M282.293 105.244C282.293 106.696 281.118 107.87 279.666 107.87H212.492C211.04 107.87 209.864 106.696 209.864 105.244C209.864 103.792 211.04 102.618 212.492 102.618H279.666C281.118 102.618 282.293 103.792 282.293 105.244Z" fill="white"/>
<path d="M301.672 105.244C301.672 107.795 299.6 109.866 297.046 109.866C294.493 109.866 292.421 107.795 292.421 105.244C292.421 102.693 294.493 100.622 297.046 100.622C299.6 100.622 301.672 102.693 301.672 105.244Z" fill="white"/>
<g style="mix-blend-mode:overlay" opacity="0.4">
<path d="M335.184 132.582H237.02V138.88H335.184V132.582Z" fill="white"/>
</g>
<g style="mix-blend-mode:overlay" opacity="0.4">
<path d="M335.184 144.228H293.745V150.536H335.184V144.228Z" fill="white"/>
</g>
<g style="mix-blend-mode:overlay" opacity="0.4">
<path d="M335.184 174.768H318.38V181.066H335.184V174.768Z" fill="white"/>
</g>
<g style="mix-blend-mode:overlay" opacity="0.4">
<path d="M335.184 156.941H262.627V163.25H335.184V156.941Z" fill="white"/>
</g>
<g style="mix-blend-mode:overlay" opacity="0.4">
<path d="M307.174 174.768H241.379V181.066H307.174V174.768Z" fill="white"/>
</g>
<g style="mix-blend-mode:multiply" opacity="0.4">
<path d="M262.797 199.97V244.686H192.227V288.228" stroke="#402083" stroke-width="2" stroke-miterlimit="10"/>
</g>
<g style="mix-blend-mode:multiply" opacity="0.4">
<path d="M284.58 355.189V306.834H241.015" stroke="#402083" stroke-width="2" stroke-miterlimit="10"/>
</g>
<g filter="url(#filter0_d_14_5663)">
<rect x="254" y="213" width="97" height="47" rx="16" fill="#4883ED" shape-rendering="crispEdges"/>
<path d="M275.496 246H271.848V229.248H279.792C280.56 229.248 281.256 229.376 281.88 229.632C282.504 229.888 283.032 230.256 283.464 230.736C283.912 231.2 284.256 231.76 284.496 232.416C284.736 233.072 284.856 233.8 284.856 234.6C284.856 235.736 284.6 236.728 284.088 237.576C283.592 238.424 282.832 239.04 281.808 239.424L285.096 246H281.04L278.112 239.856H275.496V246ZM279.336 236.784C279.88 236.784 280.304 236.648 280.608 236.376C280.928 236.088 281.088 235.672 281.088 235.128V234.072C281.088 233.528 280.928 233.12 280.608 232.848C280.304 232.56 279.88 232.416 279.336 232.416H275.496V236.784H279.336ZM292.732 246.288C291.772 246.288 290.916 246.136 290.164 245.832C289.412 245.512 288.772 245.072 288.244 244.512C287.732 243.936 287.34 243.24 287.068 242.424C286.812 241.608 286.684 240.696 286.684 239.688C286.684 238.696 286.812 237.8 287.068 237C287.324 236.184 287.7 235.488 288.196 234.912C288.708 234.336 289.332 233.896 290.068 233.592C290.804 233.272 291.644 233.112 292.588 233.112C293.628 233.112 294.516 233.288 295.252 233.64C296.004 233.992 296.612 234.464 297.076 235.056C297.556 235.648 297.9 236.336 298.108 237.12C298.332 237.888 298.444 238.696 298.444 239.544V240.6H290.356V240.792C290.356 241.624 290.58 242.288 291.028 242.784C291.476 243.264 292.18 243.504 293.14 243.504C293.876 243.504 294.476 243.36 294.94 243.072C295.404 242.768 295.836 242.408 296.236 241.992L298.012 244.2C297.452 244.856 296.716 245.368 295.804 245.736C294.908 246.104 293.884 246.288 292.732 246.288ZM292.66 235.728C291.94 235.728 291.372 235.968 290.956 236.448C290.556 236.912 290.356 237.536 290.356 238.32V238.512H294.772V238.296C294.772 237.528 294.596 236.912 294.244 236.448C293.908 235.968 293.38 235.728 292.66 235.728ZM310.265 246C309.625 246 309.089 245.8 308.657 245.4C308.241 245 307.977 244.464 307.865 243.792H307.721C307.529 244.608 307.105 245.232 306.449 245.664C305.793 246.08 304.985 246.288 304.025 246.288C302.761 246.288 301.793 245.952 301.121 245.28C300.449 244.608 300.113 243.72 300.113 242.616C300.113 241.288 300.593 240.304 301.553 239.664C302.529 239.008 303.849 238.68 305.513 238.68H307.505V237.888C307.505 237.28 307.345 236.8 307.025 236.448C306.705 236.08 306.169 235.896 305.417 235.896C304.713 235.896 304.153 236.048 303.737 236.352C303.321 236.656 302.977 237 302.705 237.384L300.593 235.512C301.105 234.76 301.745 234.176 302.513 233.76C303.297 233.328 304.353 233.112 305.681 233.112C307.473 233.112 308.817 233.504 309.713 234.288C310.609 235.072 311.057 236.216 311.057 237.72V243.24H312.233V246H310.265ZM305.345 243.816C305.937 243.816 306.441 243.688 306.857 243.432C307.289 243.176 307.505 242.76 307.505 242.184V240.696H305.777C304.385 240.696 303.689 241.168 303.689 242.112V242.472C303.689 242.936 303.833 243.28 304.121 243.504C304.409 243.712 304.817 243.816 305.345 243.816ZM319.705 246.288C318.761 246.288 317.921 246.136 317.185 245.832C316.449 245.512 315.833 245.072 315.337 244.512C314.841 243.936 314.465 243.24 314.209 242.424C313.953 241.608 313.825 240.696 313.825 239.688C313.825 238.68 313.953 237.776 314.209 236.976C314.465 236.16 314.841 235.464 315.337 234.888C315.833 234.312 316.449 233.872 317.185 233.568C317.921 233.264 318.761 233.112 319.705 233.112C320.985 233.112 322.049 233.4 322.897 233.976C323.761 234.552 324.377 235.36 324.745 236.4L321.865 237.648C321.753 237.168 321.521 236.76 321.169 236.424C320.817 236.088 320.329 235.92 319.705 235.92C318.985 235.92 318.441 236.16 318.073 236.64C317.705 237.104 317.521 237.736 317.521 238.536V240.888C317.521 241.688 317.705 242.32 318.073 242.784C318.441 243.248 318.985 243.48 319.705 243.48C320.345 243.48 320.849 243.312 321.217 242.976C321.601 242.624 321.881 242.168 322.057 241.608L324.817 242.808C324.401 244.008 323.753 244.888 322.873 245.448C322.009 246.008 320.953 246.288 319.705 246.288ZM331.431 246C330.199 246 329.263 245.688 328.623 245.064C327.999 244.44 327.687 243.528 327.687 242.328V236.16H325.911V233.4H326.799C327.279 233.4 327.607 233.288 327.783 233.064C327.959 232.824 328.047 232.488 328.047 232.056V229.992H331.239V233.4H333.735V236.16H331.239V243.24H333.543V246H331.431Z" fill="white"/>
</g>
<g filter="url(#filter1_d_14_5663)">
<rect x="116" y="282" width="126" height="47" rx="16" fill="#00CBDC" shape-rendering="crispEdges"/>
<path d="M138.96 307.08L137.352 303.72H137.28V315H133.848V298.248H137.832L142.416 306.168L144.024 309.528H144.096V298.248H147.528V315H143.544L138.96 307.08ZM156.135 315.288C155.207 315.288 154.375 315.136 153.639 314.832C152.919 314.528 152.303 314.088 151.791 313.512C151.295 312.936 150.911 312.24 150.639 311.424C150.367 310.608 150.231 309.696 150.231 308.688C150.231 307.68 150.367 306.768 150.639 305.952C150.911 305.136 151.295 304.448 151.791 303.888C152.303 303.312 152.919 302.872 153.639 302.568C154.375 302.264 155.207 302.112 156.135 302.112C157.063 302.112 157.887 302.264 158.607 302.568C159.343 302.872 159.959 303.312 160.455 303.888C160.967 304.448 161.359 305.136 161.631 305.952C161.903 306.768 162.039 307.68 162.039 308.688C162.039 309.696 161.903 310.608 161.631 311.424C161.359 312.24 160.967 312.936 160.455 313.512C159.959 314.088 159.343 314.528 158.607 314.832C157.887 315.136 157.063 315.288 156.135 315.288ZM156.135 312.48C156.839 312.48 157.383 312.264 157.767 311.832C158.151 311.4 158.343 310.784 158.343 309.984V307.416C158.343 306.616 158.151 306 157.767 305.568C157.383 305.136 156.839 304.92 156.135 304.92C155.431 304.92 154.887 305.136 154.503 305.568C154.119 306 153.927 306.616 153.927 307.416V309.984C153.927 310.784 154.119 311.4 154.503 311.832C154.887 312.264 155.431 312.48 156.135 312.48ZM172.298 312.888H172.178C172.082 313.224 171.93 313.544 171.722 313.848C171.514 314.136 171.258 314.392 170.954 314.616C170.666 314.824 170.33 314.984 169.946 315.096C169.578 315.224 169.194 315.288 168.794 315.288C167.194 315.288 165.986 314.728 165.17 313.608C164.354 312.472 163.946 310.832 163.946 308.688C163.946 306.544 164.354 304.912 165.17 303.792C165.986 302.672 167.194 302.112 168.794 302.112C169.61 302.112 170.33 302.336 170.954 302.784C171.594 303.232 172.002 303.808 172.178 304.512H172.298V297.24H175.85V315H172.298V312.888ZM169.97 312.408C170.642 312.408 171.194 312.248 171.626 311.928C172.074 311.592 172.298 311.136 172.298 310.56V306.84C172.298 306.264 172.074 305.816 171.626 305.496C171.194 305.16 170.642 304.992 169.97 304.992C169.298 304.992 168.738 305.232 168.29 305.712C167.858 306.176 167.642 306.808 167.642 307.608V309.792C167.642 310.592 167.858 311.232 168.29 311.712C168.738 312.176 169.298 312.408 169.97 312.408ZM184.428 315.288C183.468 315.288 182.612 315.136 181.86 314.832C181.108 314.512 180.468 314.072 179.94 313.512C179.428 312.936 179.036 312.24 178.764 311.424C178.508 310.608 178.38 309.696 178.38 308.688C178.38 307.696 178.508 306.8 178.764 306C179.02 305.184 179.396 304.488 179.892 303.912C180.404 303.336 181.028 302.896 181.764 302.592C182.5 302.272 183.34 302.112 184.284 302.112C185.324 302.112 186.212 302.288 186.948 302.64C187.7 302.992 188.308 303.464 188.772 304.056C189.252 304.648 189.596 305.336 189.804 306.12C190.028 306.888 190.14 307.696 190.14 308.544V309.6H182.052V309.792C182.052 310.624 182.276 311.288 182.724 311.784C183.172 312.264 183.876 312.504 184.836 312.504C185.572 312.504 186.172 312.36 186.636 312.072C187.1 311.768 187.532 311.408 187.932 310.992L189.708 313.2C189.148 313.856 188.412 314.368 187.5 314.736C186.604 315.104 185.58 315.288 184.428 315.288ZM184.356 304.728C183.636 304.728 183.068 304.968 182.652 305.448C182.252 305.912 182.052 306.536 182.052 307.32V307.512H186.468V307.296C186.468 306.528 186.292 305.912 185.94 305.448C185.604 304.968 185.076 304.728 184.356 304.728ZM208.328 298.248V310.152C208.328 310.92 208.2 311.624 207.944 312.264C207.704 312.888 207.344 313.424 206.864 313.872C206.384 314.304 205.8 314.648 205.112 314.904C204.44 315.144 203.672 315.264 202.808 315.264C201.976 315.264 201.24 315.152 200.6 314.928C199.976 314.704 199.432 314.384 198.968 313.968C198.52 313.552 198.152 313.056 197.864 312.48C197.576 311.904 197.376 311.264 197.264 310.56L200.672 309.888C200.944 311.344 201.64 312.072 202.76 312.072C203.288 312.072 203.736 311.904 204.104 311.568C204.488 311.232 204.68 310.704 204.68 309.984V301.176H199.592V298.248H208.328ZM217.342 315.288C215.87 315.288 214.622 315.04 213.598 314.544C212.574 314.032 211.702 313.376 210.982 312.576L213.382 310.152C214.518 311.432 215.918 312.072 217.582 312.072C218.478 312.072 219.142 311.888 219.574 311.52C220.006 311.152 220.222 310.664 220.222 310.056C220.222 309.592 220.094 309.208 219.838 308.904C219.582 308.584 219.062 308.368 218.278 308.256L216.622 308.04C214.846 307.816 213.542 307.28 212.71 306.432C211.894 305.584 211.486 304.456 211.486 303.048C211.486 302.296 211.63 301.608 211.918 300.984C212.206 300.36 212.614 299.824 213.142 299.376C213.686 298.928 214.342 298.584 215.11 298.344C215.894 298.088 216.782 297.96 217.774 297.96C219.038 297.96 220.15 298.16 221.11 298.56C222.07 298.96 222.894 299.544 223.582 300.312L221.158 302.76C220.758 302.296 220.27 301.92 219.694 301.632C219.134 301.328 218.422 301.176 217.558 301.176C216.742 301.176 216.134 301.32 215.734 301.608C215.334 301.896 215.134 302.296 215.134 302.808C215.134 303.384 215.286 303.8 215.59 304.056C215.91 304.312 216.422 304.496 217.126 304.608L218.782 304.872C220.51 305.144 221.79 305.68 222.622 306.48C223.454 307.264 223.87 308.384 223.87 309.84C223.87 310.64 223.726 311.376 223.438 312.048C223.15 312.72 222.726 313.296 222.166 313.776C221.622 314.256 220.942 314.632 220.126 314.904C219.31 315.16 218.382 315.288 217.342 315.288Z" fill="white"/>
</g>
<g filter="url(#filter2_d_14_5663)">
<rect x="162" y="155" width="72" height="47" rx="16" fill="#A9C7F9" shape-rendering="crispEdges"/>
<path d="M180.472 181.808V179.72L189.928 173.504V177.08L184.216 180.68V180.848L189.928 184.448V188.048L180.472 181.808ZM192.463 191.624L199.615 170.24H202.543L195.391 191.624H192.463ZM205.902 184.448L211.614 180.848V180.68L205.902 177.08V173.504L215.358 179.696V181.784L205.902 188.048V184.448Z" fill="white"/>
</g>
<g filter="url(#filter3_d_14_5663)">
<rect x="183.002" y="360" width="128" height="39" rx="19.5" fill="#B12FAE" shape-rendering="crispEdges"/>
<path d="M212.018 384.12C211.378 384.12 210.782 384.016 210.23 383.808C209.686 383.592 209.21 383.292 208.802 382.908C208.402 382.516 208.09 382.056 207.866 381.528C207.642 381 207.53 380.424 207.53 379.8C207.53 379.176 207.642 378.6 207.866 378.072C208.09 377.544 208.406 377.088 208.814 376.704C209.222 376.312 209.698 376.012 210.242 375.804C210.786 375.588 211.382 375.48 212.03 375.48C212.718 375.48 213.346 375.6 213.914 375.84C214.482 376.072 214.962 376.42 215.354 376.884L214.346 377.832C214.042 377.504 213.702 377.26 213.326 377.1C212.95 376.932 212.542 376.848 212.102 376.848C211.662 376.848 211.258 376.92 210.89 377.064C210.53 377.208 210.214 377.412 209.942 377.676C209.678 377.94 209.47 378.252 209.318 378.612C209.174 378.972 209.102 379.368 209.102 379.8C209.102 380.232 209.174 380.628 209.318 380.988C209.47 381.348 209.678 381.66 209.942 381.924C210.214 382.188 210.53 382.392 210.89 382.536C211.258 382.68 211.662 382.752 212.102 382.752C212.542 382.752 212.95 382.672 213.326 382.512C213.702 382.344 214.042 382.092 214.346 381.756L215.354 382.716C214.962 383.172 214.482 383.52 213.914 383.76C213.346 384 212.714 384.12 212.018 384.12ZM220.609 384.12C219.953 384.12 219.349 384.012 218.797 383.796C218.245 383.58 217.765 383.28 217.357 382.896C216.949 382.504 216.633 382.048 216.409 381.528C216.185 381 216.073 380.424 216.073 379.8C216.073 379.176 216.185 378.604 216.409 378.084C216.633 377.556 216.949 377.1 217.357 376.716C217.765 376.324 218.245 376.02 218.797 375.804C219.349 375.588 219.949 375.48 220.597 375.48C221.253 375.48 221.853 375.588 222.397 375.804C222.949 376.02 223.429 376.324 223.837 376.716C224.245 377.1 224.561 377.556 224.785 378.084C225.009 378.604 225.121 379.176 225.121 379.8C225.121 380.424 225.009 381 224.785 381.528C224.561 382.056 224.245 382.512 223.837 382.896C223.429 383.28 222.949 383.58 222.397 383.796C221.853 384.012 221.257 384.12 220.609 384.12ZM220.597 382.752C221.021 382.752 221.413 382.68 221.773 382.536C222.133 382.392 222.445 382.188 222.709 381.924C222.973 381.652 223.177 381.34 223.321 380.988C223.473 380.628 223.549 380.232 223.549 379.8C223.549 379.368 223.473 378.976 223.321 378.624C223.177 378.264 222.973 377.952 222.709 377.688C222.445 377.416 222.133 377.208 221.773 377.064C221.413 376.92 221.021 376.848 220.597 376.848C220.173 376.848 219.781 376.92 219.421 377.064C219.069 377.208 218.757 377.416 218.485 377.688C218.221 377.952 218.013 378.264 217.861 378.624C217.717 378.976 217.645 379.368 217.645 379.8C217.645 380.224 217.717 380.616 217.861 380.976C218.013 381.336 218.221 381.652 218.485 381.924C218.749 382.188 219.061 382.392 219.421 382.536C219.781 382.68 220.173 382.752 220.597 382.752ZM226.774 384V375.6H228.058L233.326 382.068H232.69V375.6H234.238V384H232.954L227.686 377.532H228.322V384H226.774ZM236.489 384V375.6H237.773L243.041 382.068H242.405V375.6H243.953V384H242.669L237.401 377.532H238.037V384H236.489ZM247.644 379.092H251.82V380.376H247.644V379.092ZM247.764 382.692H252.504V384H246.204V375.6H252.336V376.908H247.764V382.692ZM258.131 384.12C257.491 384.12 256.895 384.016 256.343 383.808C255.799 383.592 255.323 383.292 254.915 382.908C254.515 382.516 254.203 382.056 253.979 381.528C253.755 381 253.643 380.424 253.643 379.8C253.643 379.176 253.755 378.6 253.979 378.072C254.203 377.544 254.519 377.088 254.927 376.704C255.335 376.312 255.811 376.012 256.355 375.804C256.899 375.588 257.495 375.48 258.143 375.48C258.831 375.48 259.459 375.6 260.027 375.84C260.595 376.072 261.075 376.42 261.467 376.884L260.459 377.832C260.155 377.504 259.815 377.26 259.439 377.1C259.063 376.932 258.655 376.848 258.215 376.848C257.775 376.848 257.371 376.92 257.003 377.064C256.643 377.208 256.327 377.412 256.055 377.676C255.791 377.94 255.583 378.252 255.431 378.612C255.287 378.972 255.215 379.368 255.215 379.8C255.215 380.232 255.287 380.628 255.431 380.988C255.583 381.348 255.791 381.66 256.055 381.924C256.327 382.188 256.643 382.392 257.003 382.536C257.371 382.68 257.775 382.752 258.215 382.752C258.655 382.752 259.063 382.672 259.439 382.512C259.815 382.344 260.155 382.092 260.459 381.756L261.467 382.716C261.075 383.172 260.595 383.52 260.027 383.76C259.459 384 258.827 384.12 258.131 384.12ZM264.572 384V376.92H261.788V375.6H268.916V376.92H266.132V384H264.572ZM271.527 379.092H275.703V380.376H271.527V379.092ZM271.647 382.692H276.387V384H270.087V375.6H276.219V376.908H271.647V382.692ZM278.126 384V375.6H281.798C282.71 375.6 283.51 375.776 284.198 376.128C284.886 376.48 285.422 376.968 285.806 377.592C286.19 378.216 286.382 378.952 286.382 379.8C286.382 380.64 286.19 381.376 285.806 382.008C285.422 382.632 284.886 383.12 284.198 383.472C283.51 383.824 282.71 384 281.798 384H278.126ZM279.686 382.68H281.726C282.358 382.68 282.902 382.56 283.358 382.32C283.822 382.08 284.178 381.744 284.426 381.312C284.682 380.88 284.81 380.376 284.81 379.8C284.81 379.216 284.682 378.712 284.426 378.288C284.178 377.856 283.822 377.52 283.358 377.28C282.902 377.04 282.358 376.92 281.726 376.92H279.686V382.68Z" fill="white"/>
<rect x="183.502" y="360.5" width="127" height="38" rx="19" stroke="#B12FAE" shape-rendering="crispEdges"/>
</g>
<path d="M276.305 54.7844C277.585 54.7844 278.574 55.092 279.271 55.7073C279.973 56.318 280.324 57.1816 280.324 58.2981C280.324 59.483 279.973 60.4058 279.271 61.0667C278.574 61.7229 277.585 62.051 276.305 62.051H274.951V64.6008H271.697V54.7844H276.305ZM274.951 59.5901H276.141C276.496 59.5901 276.767 59.4853 276.954 59.2756C277.145 59.066 277.241 58.7743 277.241 58.4006C277.241 58.0361 277.145 57.7535 276.954 57.553C276.763 57.3525 276.491 57.2522 276.141 57.2522H274.951V59.5901ZM287.29 64.6008H284.043V61.6204L280.461 54.7844H283.694L285.663 58.5647L287.57 54.7844H290.804L287.29 61.552V64.6008ZM296.765 57.3479V64.6008H293.518V57.3479H290.728V54.7844H299.567V57.3479H296.765ZM306.615 64.6008V61.0598H303.58V64.6008H300.326V54.7844H303.58V58.592H306.615V54.7844H309.862V64.6008H306.615ZM316.165 54.6887C317.19 54.6887 318.113 54.9029 318.934 55.3313C319.758 55.7597 320.401 56.3544 320.861 57.1155C321.326 57.8765 321.559 58.7333 321.559 59.6858C321.559 60.6474 321.326 61.511 320.861 62.2766C320.401 63.0422 319.758 63.6438 318.934 64.0813C318.113 64.5188 317.19 64.7375 316.165 64.7375C315.14 64.7375 314.214 64.5211 313.39 64.0881C312.569 63.6552 311.929 63.0536 311.469 62.2834C311.008 61.5133 310.778 60.6474 310.778 59.6858C310.778 58.7242 311.008 57.8652 311.469 57.1086C311.929 56.3521 312.569 55.7597 313.39 55.3313C314.214 54.9029 315.14 54.6887 316.165 54.6887ZM316.206 57.3889C315.832 57.3889 315.484 57.4892 315.16 57.6897C314.841 57.8902 314.586 58.1659 314.394 58.5168C314.203 58.8678 314.107 59.262 314.107 59.6995C314.107 60.137 314.203 60.5334 314.394 60.8889C314.586 61.2444 314.841 61.5247 315.16 61.7297C315.484 61.9348 315.832 62.0374 316.206 62.0374C316.58 62.0374 316.919 61.9348 317.225 61.7297C317.534 61.5247 317.778 61.2444 317.956 60.8889C318.134 60.5334 318.223 60.137 318.223 59.6995C318.223 59.262 318.134 58.8678 317.956 58.5168C317.778 58.1659 317.534 57.8902 317.225 57.6897C316.919 57.4892 316.58 57.3889 316.206 57.3889ZM329.283 64.6008L325.421 59.5901V64.6008H322.461V54.7844H325.182L329.058 59.8293V54.7844H331.997V64.6008H329.283Z" fill="#6833A3"/>
<path d="M427.376 178.269C427.376 181.183 425.015 183.542 422.099 183.542C419.182 183.542 416.821 181.183 416.821 178.269C416.821 175.355 419.182 172.996 422.099 172.996C425.015 172.996 427.376 175.355 427.376 178.269Z" stroke="#6833A3" stroke-width="3" stroke-miterlimit="10"/>
<path d="M448.838 135.741C448.838 137.865 447.118 139.595 444.981 139.595C442.845 139.595 441.125 137.876 441.125 135.741C441.125 133.606 442.845 131.888 444.981 131.888C447.118 131.888 448.838 133.606 448.838 135.741Z" stroke="#6833A3" stroke-width="2" stroke-miterlimit="10"/>
<path d="M65.1774 90.94C65.1774 93.0643 63.4574 94.7935 61.3209 94.7935C59.1843 94.7935 57.4644 93.0749 57.4644 90.94C57.4644 88.8051 59.1843 87.0865 61.3209 87.0865C63.4574 87.0865 65.1774 88.8051 65.1774 90.94Z" stroke="#6833A3" stroke-width="2" stroke-miterlimit="10"/>
<path d="M184 269.5V235.5H239" stroke="white" stroke-dasharray="2 2"/>
<path d="M311 271L311 354.5" stroke="white" stroke-dasharray="2 2"/>
<defs>
<filter id="filter0_d_14_5663" x="250" y="213" width="101" height="51" filterUnits="userSpaceOnUse" color-interpolation-filters="sRGB">
<feFlood flood-opacity="0" result="BackgroundImageFix"/>
<feColorMatrix in="SourceAlpha" type="matrix" values="0 0 0 0 0 0 0 0 0 0 0 0 0 0 0 0 0 0 127 0" result="hardAlpha"/>
<feOffset dx="-4" dy="4"/>
<feComposite in2="hardAlpha" operator="out"/>
<feColorMatrix type="matrix" values="0 0 0 0 0.0745098 0 0 0 0 0.0901961 0 0 0 0 0.313726 0 0 0 0.9 0"/>
<feBlend mode="normal" in2="BackgroundImageFix" result="effect1_dropShadow_14_5663"/>
<feBlend mode="normal" in="SourceGraphic" in2="effect1_dropShadow_14_5663" result="shape"/>
</filter>
<filter id="filter1_d_14_5663" x="112" y="282" width="130" height="51" filterUnits="userSpaceOnUse" color-interpolation-filters="sRGB">
<feFlood flood-opacity="0" result="BackgroundImageFix"/>
<feColorMatrix in="SourceAlpha" type="matrix" values="0 0 0 0 0 0 0 0 0 0 0 0 0 0 0 0 0 0 127 0" result="hardAlpha"/>
<feOffset dx="-4" dy="4"/>
<feComposite in2="hardAlpha" operator="out"/>
<feColorMatrix type="matrix" values="0 0 0 0 0.0745098 0 0 0 0 0.0901961 0 0 0 0 0.313726 0 0 0 0.9 0"/>
<feBlend mode="normal" in2="BackgroundImageFix" result="effect1_dropShadow_14_5663"/>
<feBlend mode="normal" in="SourceGraphic" in2="effect1_dropShadow_14_5663" result="shape"/>
</filter>
<filter id="filter2_d_14_5663" x="158" y="155" width="76" height="51" filterUnits="userSpaceOnUse" color-interpolation-filters="sRGB">
<feFlood flood-opacity="0" result="BackgroundImageFix"/>
<feColorMatrix in="SourceAlpha" type="matrix" values="0 0 0 0 0 0 0 0 0 0 0 0 0 0 0 0 0 0 127 0" result="hardAlpha"/>
<feOffset dx="-4" dy="4"/>
<feComposite in2="hardAlpha" operator="out"/>
<feColorMatrix type="matrix" values="0 0 0 0 0.0745098 0 0 0 0 0.0901961 0 0 0 0 0.313726 0 0 0 0.9 0"/>
<feBlend mode="normal" in2="BackgroundImageFix" result="effect1_dropShadow_14_5663"/>
<feBlend mode="normal" in="SourceGraphic" in2="effect1_dropShadow_14_5663" result="shape"/>
</filter>
<filter id="filter3_d_14_5663" x="171.002" y="356" width="152" height="63" filterUnits="userSpaceOnUse" color-interpolation-filters="sRGB">
<feFlood flood-opacity="0" result="BackgroundImageFix"/>
<feColorMatrix in="SourceAlpha" type="matrix" values="0 0 0 0 0 0 0 0 0 0 0 0 0 0 0 0 0 0 127 0" result="hardAlpha"/>
<feOffset dy="8"/>
<feGaussianBlur stdDeviation="6"/>
<feComposite in2="hardAlpha" operator="out"/>
<feColorMatrix type="matrix" values="0 0 0 0 0.694118 0 0 0 0 0.184314 0 0 0 0 0.682353 0 0 0 0.4 0"/>
<feBlend mode="normal" in2="BackgroundImageFix" result="effect1_dropShadow_14_5663"/>
<feBlend mode="normal" in="SourceGraphic" in2="effect1_dropShadow_14_5663" result="shape"/>
</filter>
<linearGradient id="paint0_linear_14_5663" x1="246.381" y1="417.049" x2="246.381" y2="83.9161" gradientUnits="userSpaceOnUse">
<stop stop-color="#3D1F81"/>
<stop offset="1" stop-color="#6B34A6"/>
</linearGradient>
</defs>
</svg>
