<svg xmlns="http://www.w3.org/2000/svg" width="75" height="75" viewBox="0 0 75 75" fill="none">
  <mask id="path-1-inside-1_17_1271" fill="white">
    <path fill-rule="evenodd" clip-rule="evenodd" d="M51.7104 37.0187L74.0411 59.3494L59.3545 74.036L37.0238 51.7053L14.6866 74.0425L0 59.3559L22.3372 37.0187L0.00508462 14.6866L14.6917 0L37.0238 22.3321L59.3494 0.00648729L74.036 14.6931L51.7104 37.0187Z"/>
  </mask>
  <path d="M74.0411 59.3494L74.9982 60.3065L75.9553 59.3494L74.9982 58.3923L74.0411 59.3494ZM51.7104 37.0187L50.7533 36.0616L49.7962 37.0187L50.7533 37.9758L51.7104 37.0187ZM59.3545 74.036L58.3974 74.9931L59.3545 75.9502L60.3116 74.9931L59.3545 74.036ZM37.0238 51.7053L37.9809 50.7482L37.0238 49.7911L36.0667 50.7482L37.0238 51.7053ZM14.6866 74.0425L13.7295 74.9996L14.6866 75.9567L15.6437 74.9996L14.6866 74.0425ZM0 59.3559L-0.957094 58.3988L-1.91419 59.3559L-0.957094 60.313L0 59.3559ZM22.3372 37.0187L23.2943 37.9758L24.2514 37.0187L23.2943 36.0616L22.3372 37.0187ZM0.00508462 14.6866L-0.952009 13.7295L-1.9091 14.6866L-0.952009 15.6437L0.00508462 14.6866ZM14.6917 0L15.6488 -0.957094L14.6917 -1.91419L13.7346 -0.957094L14.6917 0ZM37.0238 22.3321L36.0667 23.2892L37.0238 24.2463L37.9809 23.2892L37.0238 22.3321ZM59.3494 0.00648729L60.3065 -0.950607L59.3494 -1.9077L58.3923 -0.950607L59.3494 0.00648729ZM74.036 14.6931L74.9931 15.6502L75.9502 14.6931L74.9931 13.736L74.036 14.6931ZM74.9982 58.3923L52.6675 36.0616L50.7533 37.9758L73.084 60.3065L74.9982 58.3923ZM60.3116 74.9931L74.9982 60.3065L73.084 58.3923L58.3974 73.0789L60.3116 74.9931ZM36.0667 52.6624L58.3974 74.9931L60.3116 73.0789L37.9809 50.7482L36.0667 52.6624ZM15.6437 74.9996L37.9809 52.6624L36.0667 50.7482L13.7295 73.0854L15.6437 74.9996ZM-0.957094 60.313L13.7295 74.9996L15.6437 73.0854L0.957094 58.3988L-0.957094 60.313ZM21.3801 36.0616L-0.957094 58.3988L0.957094 60.313L23.2943 37.9758L21.3801 36.0616ZM-0.952009 15.6437L21.3801 37.9758L23.2943 36.0616L0.962179 13.7295L-0.952009 15.6437ZM13.7346 -0.957094L-0.952009 13.7295L0.962179 15.6437L15.6488 0.957094L13.7346 -0.957094ZM37.9809 21.375L15.6488 -0.957094L13.7346 0.957094L36.0667 23.2892L37.9809 21.375ZM58.3923 -0.950607L36.0667 21.375L37.9809 23.2892L60.3065 0.963581L58.3923 -0.950607ZM74.9931 13.736L60.3065 -0.950607L58.3923 0.963581L73.0789 15.6502L74.9931 13.736ZM52.6675 37.9758L74.9931 15.6502L73.0789 13.736L50.7533 36.0616L52.6675 37.9758Z" fill="#B12FAE" mask="url(#path-1-inside-1_17_1271)"/>
</svg>