<svg xmlns="http://www.w3.org/2000/svg" width="38" height="38" viewBox="0 0 38 38" fill="none">
  <mask id="path-1-inside-1_29_1550" fill="white">
    <path fill-rule="evenodd" clip-rule="evenodd" d="M25.9953 18.9675L37.2212 30.1933L29.8381 37.5764L18.6122 26.3506L7.3831 37.5797L0 30.1966L11.2291 18.9675L0.00256041 7.74089L7.38566 0.357788L18.6122 11.5844L29.8355 0.361054L37.2186 7.74415L25.9953 18.9675Z"/>
  </mask>
  <path d="M37.2212 30.1933L37.6997 30.6719L38.1783 30.1933L37.6997 29.7148L37.2212 30.1933ZM25.9953 18.9675L25.5168 18.4889L25.0382 18.9675L25.5168 19.446L25.9953 18.9675ZM29.8381 37.5764L29.3595 38.055L29.8381 38.5335L30.3166 38.055L29.8381 37.5764ZM18.6122 26.3506L19.0908 25.872L18.6122 25.3935L18.1337 25.872L18.6122 26.3506ZM7.3831 37.5797L6.90455 38.0582L7.3831 38.5368L7.86165 38.0582L7.3831 37.5797ZM0 30.1966L-0.478547 29.718L-0.957094 30.1966L-0.478547 30.6751L0 30.1966ZM11.2291 18.9675L11.7077 19.446L12.1862 18.9675L11.7077 18.4889L11.2291 18.9675ZM0.00256041 7.74089L-0.475987 7.26234L-0.954534 7.74089L-0.475987 8.21944L0.00256041 7.74089ZM7.38566 0.357788L7.86421 -0.120759L7.38566 -0.599306L6.90711 -0.120759L7.38566 0.357788ZM18.6122 11.5844L18.1337 12.0629L18.6122 12.5414L19.0908 12.0629L18.6122 11.5844ZM29.8355 0.361054L30.3141 -0.117493L29.8355 -0.59604L29.357 -0.117493L29.8355 0.361054ZM37.2186 7.74415L37.6972 8.2227L38.1757 7.74415L37.6972 7.26561L37.2186 7.74415ZM37.6997 29.7148L26.4739 18.4889L25.5168 19.446L36.7426 30.6719L37.6997 29.7148ZM30.3166 38.055L37.6997 30.6719L36.7426 29.7148L29.3595 37.0979L30.3166 38.055ZM18.1337 26.8291L29.3595 38.055L30.3166 37.0979L19.0908 25.872L18.1337 26.8291ZM7.86165 38.0582L19.0908 26.8291L18.1337 25.872L6.90455 37.1011L7.86165 38.0582ZM-0.478547 30.6751L6.90455 38.0582L7.86165 37.1011L0.478547 29.718L-0.478547 30.6751ZM10.7506 18.4889L-0.478547 29.718L0.478547 30.6751L11.7077 19.446L10.7506 18.4889ZM-0.475987 8.21944L10.7506 19.446L11.7077 18.4889L0.481107 7.26234L-0.475987 8.21944ZM6.90711 -0.120759L-0.475987 7.26234L0.481107 8.21944L7.86421 0.836335L6.90711 -0.120759ZM19.0908 11.1058L7.86421 -0.120759L6.90711 0.836335L18.1337 12.0629L19.0908 11.1058ZM29.357 -0.117493L18.1337 11.1058L19.0908 12.0629L30.3141 0.839601L29.357 -0.117493ZM37.6972 7.26561L30.3141 -0.117493L29.357 0.839601L36.7401 8.2227L37.6972 7.26561ZM26.4739 19.446L37.6972 8.2227L36.7401 7.26561L25.5168 18.4889L26.4739 19.446Z" fill="#B12FAE" mask="url(#path-1-inside-1_29_1550)"/>
</svg>