<svg xmlns="http://www.w3.org/2000/svg" width="1258" height="701" viewBox="0 0 1258 701" fill="none">
<path d="M1453.25 700.37C1453.25 507.725 1376.72 322.97 1240.5 186.749C1104.28 50.5281 919.527 -26 726.881 -26C534.236 -26 349.481 50.528 213.26 186.749C77.0392 322.97 0.511076 507.725 0.511047 700.37L726.881 700.37H1453.25Z" fill="white" fill-opacity="0.02"/>
<path d="M1229.53 700.37C1229.53 567.058 1176.58 439.207 1082.31 344.941C988.045 250.676 860.193 197.718 726.881 197.718C593.57 197.718 465.718 250.676 371.452 344.941C277.187 439.207 224.229 567.058 224.229 700.37L726.881 700.37H1229.53Z" fill="white" fill-opacity="0.02"/>
<path d="M1024.28 700.37C1024.28 661.315 1016.59 622.643 1001.64 586.56C986.697 550.478 964.791 517.693 937.175 490.077C909.558 462.461 876.773 440.554 840.691 425.609C804.609 410.663 765.936 402.971 726.881 402.971C687.826 402.971 649.154 410.663 613.071 425.609C576.989 440.555 544.204 462.461 516.588 490.077C488.972 517.693 467.065 550.478 452.12 586.56C437.174 622.643 429.482 661.315 429.482 700.37H726.881H1024.28Z" fill="white" fill-opacity="0.02"/>
<path d="M1001.41 586.656C1016.31 622.631 1024 661.183 1024.03 700.12H726.881L429.732 700.12C429.764 661.183 437.449 622.631 452.351 586.656C467.284 550.604 489.172 517.847 516.765 490.254C544.358 462.661 577.115 440.773 613.167 425.84C649.219 410.907 687.859 403.221 726.881 403.221C765.904 403.221 804.544 410.907 840.596 425.84C876.647 440.773 909.405 462.661 936.998 490.254C964.591 517.847 986.479 550.604 1001.41 586.656ZM429.232 700.12H224.479C224.545 566.965 277.469 439.278 371.629 345.118C465.848 250.899 593.636 197.968 726.881 197.968C860.127 197.968 987.915 250.899 1082.13 345.118C1176.29 439.278 1229.22 566.965 1229.28 700.12H1024.53C1024.5 661.117 1016.8 622.5 1001.87 586.465C986.915 550.352 964.991 517.539 937.351 489.9C909.712 462.261 876.899 440.336 840.787 425.378C804.674 410.419 765.969 402.721 726.881 402.721C687.793 402.721 649.088 410.419 612.976 425.378C576.863 440.336 544.05 462.261 516.411 489.9C488.772 517.539 466.847 550.352 451.889 586.465C436.962 622.5 429.264 661.117 429.232 700.12ZM0.76109 700.12C0.827297 507.631 77.3218 323.041 213.437 186.926C349.611 50.7517 534.302 -25.75 726.881 -25.75C919.46 -25.75 1104.15 50.7518 1240.33 186.926C1376.44 323.041 1452.94 507.631 1453 700.12H1229.78C1229.72 566.832 1176.74 439.018 1082.49 344.764C988.174 250.452 860.259 197.468 726.881 197.468C593.503 197.468 465.588 250.452 371.275 344.764C277.022 439.018 224.045 566.832 223.979 700.12L0.76109 700.12Z" stroke="white" stroke-opacity="0.04" stroke-width="0.5"/>
</svg>