<svg fill="#fafafa" width="193px" height="193px" viewBox="-4.48 -4.48 24.96 24.96" xmlns="http://www.w3.org/2000/svg" stroke="#fafafa" stroke-width="0.00016"><g id="SVGRepo_bgCarrier" stroke-width="0"><rect x="-4.48" y="-4.48" width="24.96" height="24.96" rx="12.48" fill="#242424" strokewidth="0"></rect></g><g id="SVGRepo_tracerCarrier" stroke-linecap="round" stroke-linejoin="round"></g><g id="SVGRepo_iconCarrier"><path d="M15 2.5H1a1 1 0 0 0-1 1v9a1 1 0 0 0 1 1h14a1 1 0 0 0 1-1v-9a1 1 0 0 0-1-1zm-1.3 1.25L8.42 8.56a.62.62 0 0 1-.84 0L2.3 3.75zm-12.45 8.5V4.48l5.49 5a1.86 1.86 0 0 0 2.52 0l5.49-5v7.77z"></path></g></svg>