<svg width="41" height="41" viewBox="0 0 41 41" fill="none" xmlns="http://www.w3.org/2000/svg">
<g id="contacts">
<path id="Vector" d="M20.1576 0C9.02481 0 0 9.02481 0 20.1576C0 31.2905 9.02481 40.3153 20.1576 40.3153C31.2905 40.3153 40.3154 31.2905 40.3154 20.1576C40.3153 9.02481 31.2903 0 20.1576 0ZM14.7795 29.9029H10.3537V15.6044H14.7795V29.9029ZM12.5455 13.7319C11.1001 13.7319 9.92835 12.5506 9.92835 11.0936C9.92835 9.6364 11.1003 8.45516 12.5455 8.45516C13.9908 8.45516 15.1626 9.6364 15.1626 11.0936C15.1627 12.5506 13.9909 13.7319 12.5455 13.7319ZM31.3653 29.9029H26.9609V22.3974C26.9609 20.3388 26.179 19.1897 24.5512 19.1897C22.7797 19.1897 21.8542 20.3865 21.8542 22.3974V29.9029H17.6093V15.6044H21.8542V17.5302C21.8542 17.5302 23.1311 15.1682 26.163 15.1682C29.1949 15.1682 31.3654 17.0195 31.3654 20.8493L31.3653 29.9029Z" fill="#C5C8DA"/>
</g>
</svg>
