<svg width="110" height="110" viewBox="0 0 110 110" fill="none" xmlns="http://www.w3.org/2000/svg">
<g id="illustrations/x-large">
<g id="x-large">
<mask id="path-1-inside-1_14_5219" fill="white">
<path fill-rule="evenodd" clip-rule="evenodd" d="M76.4079 54.6993L109.404 87.6954L87.7029 109.396L54.7068 76.4004L21.7011 109.406L0 87.705L33.0057 54.6993L0.00751292 21.7011L21.7086 0L54.7068 32.9982L87.6954 0.00958489L109.396 21.7107L76.4079 54.6993Z"/>
</mask>
<path d="M109.404 87.6954L110.818 89.1096L112.232 87.6954L110.818 86.2812L109.404 87.6954ZM76.4079 54.6993L74.9937 53.2851L73.5795 54.6993L74.9937 56.1135L76.4079 54.6993ZM87.7029 109.396L86.2887 110.811L87.7029 112.225L89.1171 110.811L87.7029 109.396ZM54.7068 76.4004L56.121 74.9862L54.7068 73.572L53.2926 74.9862L54.7068 76.4004ZM21.7011 109.406L20.2869 110.82L21.7011 112.235L23.1153 110.82L21.7011 109.406ZM0 87.705L-1.41421 86.2907L-2.82843 87.705L-1.41421 89.1192L0 87.705ZM33.0057 54.6993L34.4199 56.1135L35.8341 54.6993L34.4199 53.2851L33.0057 54.6993ZM0.00751292 21.7011L-1.4067 20.2869L-2.82091 21.7011L-1.4067 23.1153L0.00751292 21.7011ZM21.7086 0L23.1228 -1.41421L21.7086 -2.82843L20.2944 -1.41421L21.7086 0ZM54.7068 32.9982L53.2926 34.4124L54.7068 35.8266L56.121 34.4124L54.7068 32.9982ZM87.6954 0.00958489L89.1096 -1.40463L87.6954 -2.81884L86.2812 -1.40463L87.6954 0.00958489ZM109.396 21.7107L110.811 23.1249L112.225 21.7107L110.811 20.2965L109.396 21.7107ZM110.818 86.2812L77.8221 53.2851L74.9937 56.1135L107.99 89.1096L110.818 86.2812ZM89.1171 110.811L110.818 89.1096L107.99 86.2812L86.2887 107.982L89.1171 110.811ZM53.2926 77.8146L86.2887 110.811L89.1171 107.982L56.121 74.9862L53.2926 77.8146ZM23.1153 110.82L56.121 77.8146L53.2926 74.9862L20.2869 107.992L23.1153 110.82ZM-1.41421 89.1192L20.2869 110.82L23.1153 107.992L1.41421 86.2907L-1.41421 89.1192ZM31.5915 53.2851L-1.41421 86.2907L1.41421 89.1192L34.4199 56.1135L31.5915 53.2851ZM-1.4067 23.1153L31.5915 56.1135L34.4199 53.2851L1.42173 20.2869L-1.4067 23.1153ZM20.2944 -1.41421L-1.4067 20.2869L1.42173 23.1153L23.1228 1.41421L20.2944 -1.41421ZM56.121 31.584L23.1228 -1.41421L20.2944 1.41421L53.2926 34.4124L56.121 31.584ZM86.2812 -1.40463L53.2926 31.584L56.121 34.4124L89.1096 1.4238L86.2812 -1.40463ZM110.811 20.2965L89.1096 -1.40463L86.2812 1.4238L107.982 23.1249L110.811 20.2965ZM77.8221 56.1135L110.811 23.1249L107.982 20.2965L74.9937 53.2851L77.8221 56.1135Z" fill="#B12FAE" mask="url(#path-1-inside-1_14_5219)"/>
</g>
</g>
</svg>
