<svg width="55" height="55" viewBox="0 0 55 55" fill="none" xmlns="http://www.w3.org/2000/svg">
<mask id="path-1-inside-1_14_5947" fill="white">
<path fill-rule="evenodd" clip-rule="evenodd" d="M38.411 27.4979L54.9985 44.0853L44.0891 54.9947L27.5016 38.4072L10.9094 54.9995L0 44.0902L16.5923 27.4979L0.00378468 10.9094L10.9131 0L27.5016 16.5885L44.0853 0.00482436L54.9947 10.9142L38.411 27.4979Z"/>
</mask>
<path d="M54.9985 44.0853L55.7056 44.7924L56.4127 44.0853L55.7056 43.3782L54.9985 44.0853ZM38.411 27.4979L37.7039 26.7908L36.9968 27.4979L37.7039 28.205L38.411 27.4979ZM44.0891 54.9947L43.382 55.7018L44.0891 56.4089L44.7962 55.7018L44.0891 54.9947ZM27.5016 38.4072L28.2088 37.7001L27.5016 36.993L26.7945 37.7001L27.5016 38.4072ZM10.9094 54.9995L10.2023 55.7066L10.9094 56.4137L11.6165 55.7066L10.9094 54.9995ZM0 44.0902L-0.707107 43.383L-1.41421 44.0902L-0.707107 44.7973L0 44.0902ZM16.5923 27.4979L17.2994 28.205L18.0065 27.4979L17.2994 26.7908L16.5923 27.4979ZM0.00378468 10.9094L-0.703322 10.2023L-1.41043 10.9094L-0.703322 11.6165L0.00378468 10.9094ZM10.9131 0L11.6203 -0.707107L10.9131 -1.41421L10.206 -0.707107L10.9131 0ZM27.5016 16.5885L26.7945 17.2956L27.5016 18.0027L28.2088 17.2956L27.5016 16.5885ZM44.0853 0.00482436L44.7924 -0.702282L44.0853 -1.40939L43.3782 -0.702282L44.0853 0.00482436ZM54.9947 10.9142L55.7018 11.6213L56.4089 10.9142L55.7018 10.2071L54.9947 10.9142ZM55.7056 43.3782L39.1181 26.7908L37.7039 28.205L54.2914 44.7924L55.7056 43.3782ZM44.7962 55.7018L55.7056 44.7924L54.2914 43.3782L43.382 54.2876L44.7962 55.7018ZM26.7945 39.1143L43.382 55.7018L44.7962 54.2876L28.2088 37.7001L26.7945 39.1143ZM11.6165 55.7066L28.2088 39.1143L26.7945 37.7001L10.2023 54.2924L11.6165 55.7066ZM-0.707107 44.7973L10.2023 55.7066L11.6165 54.2924L0.707107 43.383L-0.707107 44.7973ZM15.8852 26.7908L-0.707107 43.383L0.707107 44.7973L17.2994 28.205L15.8852 26.7908ZM-0.703322 11.6165L15.8852 28.205L17.2994 26.7908L0.710891 10.2023L-0.703322 11.6165ZM10.206 -0.707107L-0.703322 10.2023L0.710891 11.6165L11.6203 0.707107L10.206 -0.707107ZM28.2088 15.8814L11.6203 -0.707107L10.206 0.707107L26.7945 17.2956L28.2088 15.8814ZM43.3782 -0.702282L26.7945 15.8814L28.2088 17.2956L44.7924 0.711931L43.3782 -0.702282ZM55.7018 10.2071L44.7924 -0.702282L43.3782 0.711931L54.2876 11.6213L55.7018 10.2071ZM39.1181 28.205L55.7018 11.6213L54.2876 10.2071L37.7039 26.7908L39.1181 28.205Z" fill="#B12FAE" mask="url(#path-1-inside-1_14_5947)"/>
</svg>
